<?xml version="1.0" encoding="UTF-8"?>
<svg id="Calque_2" data-name="Calque 2" xmlns="http://www.w3.org/2000/svg" viewBox="0 0 340.55 98.26">
  <defs>
    <style>
      .cls-1 {
        fill: #fff;
      }
    </style>
  </defs>
  <g id="Calque_1-2" data-name="Calque 1">
    <g>
      <g>
        <path class="cls-1" d="M98.87,88.19c-.39.3,1.24,1.47,1.08,2.31l-.94,4.96-3.26,2.65-13.15.15,1.69-8.51,2.11-10.49,12.64-.08,2.44,2.79-1.01,4.74c-.08.38-.92.95-1.21,1.17l-.41.31ZM95.63,86.46l.58-2.49c.04-.19-.33-.71-.55-.71l-5.19.1-.63,3.14,5.79-.05ZM95.23,90.69c-.26-.08-.88-.25-1.09-.25l-5.13.02-.72,3.67,6.14-.03.8-3.41Z"/>
        <path class="cls-1" d="M211.28,83.73l-2.86,14.2h-4.83s-4.83-10.74-4.83-10.74l-2.26,10.69-4.78.07,3.8-18.88,4.73-.05,4.54,10.24.12.52c.02.1.3.11.32.01l.09-.51,1.94-10.24h4.9s-.87,4.7-.87,4.7Z"/>
        <path class="cls-1" d="M235.35,90.67l-3.08-.08.7-3.68h5.65s2.12.39,2.12.39l-1.5,8.15-3.42,2.53h-10.19s-2.63-2.81-2.63-2.81l2.53-13.31,3.53-2.81,10.19-.02,2.47,2.9-.69,3.52-4.66.04.22-2.25-6.04-.03c-.24.25-.5.88-.57,1.27l-1.76,9.39h6.57s.56-3.19.56-3.19Z"/>
        <path class="cls-1" d="M125.25,97.99l-10.16.07-2.73-2.85,2.66-13.37,3.58-2.79h10.15s2.51,2.75,2.51,2.75l-2.58,13.51-3.43,2.68ZM118.45,94.02l5.66-.2,2.07-10.6-6.49.03-1.99,9.97v.54c0,.13.61.27.75.27Z"/>
        <path class="cls-1" d="M58.23,91.76l-19.41-1.72c-1.4-.08-2.61-.21-4.04-.61l21.21-3.42,18.81-2.87-1.39,9.9-15.19-1.29Z"/>
        <polygon class="cls-1" points="156.85 92.65 159.27 97.91 153.96 97.99 151.27 92.07 146.22 97.97 140.62 97.9 144.62 93.19 148.94 88.26 144.73 79.09 150.15 79.04 152.7 84.58 157.56 79.01 163.3 79.05 158.22 84.93 155.01 88.64 156.85 92.65"/>
        <polygon class="cls-1" points="287.17 89.58 265.12 91.73 250.53 93.05 252.16 83.1 274.56 87.17 287.17 89.58"/>
        <polygon class="cls-1" points="177.36 97.92 172.46 97.9 176.21 79.07 181.08 79.05 177.36 97.92"/>
      </g>
      <g>
        <path class="cls-1" d="M121.77,13.93l3.12,4.37-13.26,45.63-2.94,3.52,17.84.07,5.17-18.08-3.32-.79-.87-.11.15-.34.76.14,14.27-.65,9.75-.39,9.21-7.13,6.03-20.16-5.05-6.03-40.85-.04ZM150.03,25.8l-3.41,11.46-6.67.2c-1.87.43-3.5,1.19-5.4,2.17l4.1-13.83-4.48-1.3,18.77.18-2.9,1.12Z"/>
        <path class="cls-1" d="M179.67,14.01l2.76,3.54-16.01,27.37-4.47,1.31-.68.23v.36s.82.03.82.03l8.74-.2-6.79,2.68-11.24,18.17h17.02s5.66-10.19,5.66-10.19l-3.92-.97c-.51-.06-.51-.16.07-.22l20.92-.02-.09,6.4-.17,5h18.57c-.96-2.09-2.69-3.7-4.78-4.69l-.58-.47.37.02.5.1,2.13.75.1-49.29-28.95.09ZM192.93,34.12l-.22,12.24-7.81.03-3.83.62,11.38-12.68-4.71-.96,9.82.09-4.62.67Z"/>
        <path class="cls-1" d="M100.89,65.9c-.62,1.64-1.02,1.65-1.95,1.61l-16.02.29,2.49-2.52,7.13-24.73-20.36,24.02-5.48-25.05-7.59,25.37-3.38-.17c2.34,1.03,3.87,2.45,4.93,4.59l-23.02,5.18,4.91-6.49,14.87-49.39,2.42.22-2.6-.88-2.78-4.37,21.72.03,4.47,23.34,15.07-18.36,2.58-.05c-.83-.39-1.52-.77-2.09-1.37l-3.26-3.27,22.88.02-2.67,9-3.71.44,3.35.78-6.27,21.28-5.24,18.22c-1.13.62-2.47.87-3.59.89l1.71,1.82.34-1.03,1.14.61Z"/>
        <path class="cls-1" d="M246.16,49.77l8.51-.92c3.41-1.32,6.27-3,9.6-5.06l-5.5,20.37,2.61,3.85-41.25-.49-7.01-7.73,10.02-39.87,5.79-4.72,1.4.58.83-.77-.93-.18-.38-.36.73-.79,38.28-2.07-3.4,13.4c-5.07,4.18-10.27,7.73-16.23,10.96l2.93-11.8-19.22.88,4.73.87-7.45,29.63-2.49,1.01h16.71s1.72-6.79,1.72-6.79Z"/>
        <path class="cls-1" d="M31.35,74.47c-10.78,4.12-20.85,8.91-31.35,14.16l9.73-13.05L28.31,10.72l-10.84-5.97L49.13,0l-5.92,20.58-13.44,46.57-3.71-.36c2.45,1.64,4.33,3.24,6.11,5.41l-.82,2.27Z"/>
        <path class="cls-1" d="M310.45,84.33l-11.55-5.6c-8.18-3.9-16.29-7.03-25.22-9.69l3.03-2.58,3.89-15.32,6.98-27.94-10.48,1.21-10.02,7.53c.85-2.06,2.45-3.45,3.99-5.04l4.12-15.68c22.11-2.13,44-5.73,65.37-11.19l-6.88,5.39c-6.32,4.93-12.1,10.23-17.46,16.15l-.45-2.25-17.07,2.42,6.56.58-9.05,36.28-2.74,10.11c.86-.51.97-1.26,1.43-2.65l15.88,18.04.22.24-.32.27-.2-.26Z"/>
      </g>
    </g>
  </g>
</svg>