<?xml version="1.0" encoding="UTF-8"?>
<svg id="Calque_2" data-name="Calque 2" xmlns="http://www.w3.org/2000/svg" viewBox="0 0 151.9 110.91">
  <defs>
    <style>
      .cls-1 {
        fill: #e10600;
      }
    </style>
  </defs>
  <g id="Calque_1-2" data-name="Calque 1">
    <g>
      <path class="cls-1" d="M70.93,59.27l-.17-1.36-1.1-1.91-1.36-2.88-.95-2.41-.47.91c-.89-.84-1.99-1.78-2.45-2.92l-.81-2.02-.18.81c-.04.17-.61.06-.73-.07l-1.9-2.19-1.77-3.12c-.54-.95.65-2.32.03-3.77l-1.35-3.22-3.59-8.46c1.22,1.09,1.78,2.46,2.41,3.82l1.25,2.72,3.53,7.52c.29.61.96,1.12,1.43,1.32-.89.89-.47,1.68.32,2.92.91,1.44,1.76,2.33,2.88,1.57.7-.48,1.66-.12,1.7-.45.12-.9-.4-3-.9-4.34-.39-1.05-.06-1.53-.54-2.16l.64-.63c.17-.17.01-.73-.05-.99l-1.07-4.81c.54,1.04.69,2.07.99,3.26.17.65.48,1.73.45,2.32-.43,1.02-.41,1.65-.02,2.67l.81,2.11.97,2.28,1.46,3.19.13-4.09,1.21-3.41c.34-.95.3-1.98-.11-2.93-.37-.86-1.1-.87-1.44-3.34l-.26-1.83,1.35,3.89c.84-2.47,1.67-4.85,1.88-7.45.15-1.9-1.44-3.66-1.88-5.39l.63-5.65c.16-1.4-.07-2.76-.2-4.14l-.5-5.4c-.29-3.15-.6-6.19-.41-9.25l.32,2.33,1.66,9.65c.1.56.58,1.33.84,1.83-.08,2.05.15,3.92.57,5.92l.86,4.11c.12.55.28,1.08.52,1.58l1.64,3.39c.32.67.69,1.24.42,2.05l-1.75,5.18-.61,1.44.66-.08c.31,1.09.92,2,1.83,2.7l.08,1.63-.03,2.13c0,.41.27,1.13.46,1.34l.7-.36c.14-.07.45.29.57.39l.52.43,1.31-.85c.18-.12.62-.53.68-.74l.51-1.79.44-2.46c.18-.98.73-1.96,1.02-2.94l.53-1.77c.35-1.17.15-2.46.07-3.68l-.27-4.11-.04-5.94.16-.11.14,2.45.6,5.28v3.4c0,.75-.32,1.39-.13,2.13.23.89-.02,1.73-.34,2.55l-1.3,3.37c-.24.62.09,1.84-.05,2.45l-.59,2.45-.23,2.11c-.07.63-.29,1.13-.24,1.73.14,1.72-.78,2.33-.57,3.65.13.8.13,1.45-.16,2.16l-1.04,2.53-1.46,2.76c-.13.24-.49.67-.74.68-.3,0-.8-.4-.94-.67-.35-.7-1.45.73-3.53.54l-1.33.74c-.53-.67-1.26-1.61-1.6-2.34Z"/>
      <path class="cls-1" d="M67.98,64.07c-.9.27-1.03,1.68-1.92,1.38l-2.13-.71-1.59-.82c-.75-.39-1.37-.81-1.97-1.42l-1.17-.45-1.7-.9c-1.23-.65-2.38-2.03-2.78-3.39-.29-.97-.67-1.53-1.34-2.26l-2.33-2.5c-.27-.29-.55-1.01-.81-1.53l1.65.24c.12-.1,0-.91-.22-1.12-1.34-1.29-2.23-2.8-2.79-4.52-.51-1.6-1.57-2.44-2.81-3.48l-3.29-2.76c-.88-.73-.97-3.35-2.43-5.26-1.91-2.5-5.01-4.45-5.9-5.73-.65-.93-1.12-1.95-1.82-2.81l-3.48-4.31c.54-.01.82.07,1.25.28,0,0,.36-.24.52-.35,1.07.2,1.59.99,2.2,1.82l2.91,3.98c.82,1.12,2.25,1.83,3.4,2.6l3.67,2.45c1.2.8,1.26,3.82,2.32,5.36.72,1.06,1.81,1.91,2.94,2.43l2.32,1.07c1.28,2.76,3.26,5.01,5.97,6.52.54-.07,1.46-.32,1.8-.6l.66-1.51c1.45,1.01,2.16,2.27,3.3,3.47l2.95,3.1,1.44,1.21,1.38,3.06c.22.49.4,1.06.42,1.65.03.64.36,1.1.6,1.71l.87,2.2-1.05.42c.02.75-.28,1.25-1.03,1.48ZM42.71,33.71c-.07-.37-.3-.86-.58-1.08l-2.05-1.54,2.1,2.28c.08.09.32.24.53.33Z"/>
      <path class="cls-1" d="M98.09,69.81l-1.76.02c-.91.57-1.87.61-2.81.43l-2.98.83-.12-1.01-1.36-.31-.63-1.76,1.62-1.73,1.16-1.34c1.32-1.53,3.12-3.03,4.99-3.78l3.57-1.45c1.39-.56,1.81-1.94,3.44-2.52l2.4.13,1.3.66c3.37-.1,6.06-1.96,8.84-3.54l3.43-1.17c1.48-.51,3.02-.89,4.33-1.73l2.15-2,2.06-1.86c.26-.23,1.15-.28,1.35-.54.32-.43.71-.74,1.2-.95,2.36-.97,4.4-2.35,6.63-3.54,1.64-.88,3-1.89,4.2-3.37l1.19-1.47,6.23-4.44,3.19-2.14.19.22-6.98,5.63c-1.83,1.47-3.06,3.29-4.61,5-1.17,1.29-2.99,2.05-4.39,3.1l-2.63,1.99-2.19,1.75-3.24,3.22,2.01-.67.15.2-3.24,1.53-.54.9c-1.64.66-3.09,1.51-4.39,2.7l-1.5,1.36c-.32-.05-.98-.08-1.21.08-1.53,1.05-3.3-.13-3.52.35l-.31.7c-.15.34-.93.62-1.41.69l.35-.88c-2.11.7-4.18,1.25-4.53,3.3-.2,1.15-1.23.55-1.76.83s-1.49,1.14-1.67,1.71l-.17,1.55-2.81,1.62-1.79.92c-1,.51-2.2.8-3.44.81Z"/>
      <path class="cls-1" d="M83.69,54.78l1.1-1.86,2.12-2.95,1.5-2.02,2.12-2.09c.32-.32.79-.46,1.19-.67l4.49-2.34-.66,2.4-.5,1.4c-.08.22.02.74.15.94s.76.52.89.36l1.08-1.24.08,1.7c.05,1.08-.92,1.73-1.7,2.66l1.34-.29,1.97-.27c.6-.08,1.07.08,1.73.39l1.75-1.32,1.88-1.52,1.26-.23c.29-.05.75-.62.96-.85l1.78-2,7.53-4.95c.79-.58,1.44-1.15,2.5-1.49l-3.74,3.16-5.43,4.18c-1.57,1.21-1.7,2.87-2.9,3.53-1.35.75-2.39,1.72-3.48,2.78-.77.75-1.18,1.49-1.18,2.61-1.27,1.29-1.34,2.49-2,3.16s-1.35,1.04-2.17,1.46l-2.73,1.4-.44-.69c-.28-.45-.76,1.36-2.29,2.32l-3.59,2.27-1.33.8-1.28-1.76c.31-.14.89-.88.64-1.09-.63-.55-1.55-.04-1.97.6-.78-1.74-2.31-1.05-2.42-1.43-.03-.1-.08-.43-.05-.57l.56-2.58c.11-.52.25-1.01.29-1.54.06-.92.44-1.54.95-2.39Z"/>
      <path class="cls-1" d="M64.39,67.95c.58.75-.69.95-.43,1.61.28.71-.04,1.2-.65,1.49l-1.43.67c-.28.13-1.04.42-1.37.32l-2.84-.9c-1.81-.58-2.28-1.78-3.77-2.1-1.82-.39-3.42-1.14-4.95-2.17-.91-.11-1.79-.31-2.57-.81l-.52-1.36c-.32-.83-1.35-1.57-2.07-1.98-1.19.31-2.59-.09-3.7-.77l-1.47-.38-2.93-2.13c-.7-.51-1.42-.87-2.3-1-1.52-.22-1.81-1.09-2.87-.91-1.47-1.1-2.83-2.45-4.53-3.17l-2.21-.93c-1.36-.57-2.84-.66-4.31-.67-1.3-1.09-2.54-2.33-4.1-3l-5.71-2.44-7.38-3.04c-.82-.34-1.58-.62-2.28-1.15,3.8,1.08,7.26,2.48,10.96,3.68l5.35,1.75c.57.19,1.12.39,1.61.68l2.38,1.41c.81.48,2.09.55,3.08.62l1.91.15c1.46.69,2.97,1.37,4.3,2.26s2.49,2.04,4.24,2.09c.42.01,1.34-.15,1.73.04l2.55,1.23c1.1.53,3.57-.55,4.26-.05.79.56,1.84,1.61,2.54,2.4l1.54.35c.77.17,1.26.41,1.95-.11.29-.22.69-.66.77-.96s-.16-.99-.41-1.21l-2.03-1.79-1.23-1.45c-.12-.14-.27-.5-.26-.67s.54-.44.67-.32l1.18,1.11c.68.64,1.57,1.1,2.4,1.55l1.87,1.03c1.64.91,2.96,2.19,3.2,4.15l2.57,1.53c1.54.6,2.6,1.46,3.86,2.45,1.18.93,2.44,1.6,3.43,2.89Z"/>
      <path class="cls-1" d="M118.02,73.75c-1.46-.51-2.61.51-5.69.68-.81.04-1.49.46-1.92,1.11l-.98,1.47c-.43-.24-1.16-.53-1.45-.35l-2.61,1.6-1.64-.38,1.73,2.09c.16-.46.28-.82.48-.87s.67.07.84.17c.76.51,1.2.67,2.26,1.05l-2.85.3-3.98-.13c-1.52-.05-3-.18-4.43-.7-1.96-.72-3.47-.15-4.81-.99l-1.69-1.05-2.01-1.59c-.19-.15-.3-.61-.25-.83l.43-1.78,1.76-.93,2.65-.9,3.85-.89,3.71-.07,1.78-.24,1.92-.56,1.94-.17c.34.47,1,.87,1.62,1.19,1.75.89,2.85,1.39,5.18.47l2.97.28.94-.04c1.66.55,3.01-.36,4.13,0,1.27.41,2.5,1.02,3.79.97,1.61-.07,2.97-1.33,4.52-1.45l4.31-.33,5.08-.73,2.65-.32,2.33-.07-2.79.53-6.15,1.35-1.91.41c-1.2.26-2.4.24-3.52.62l-1.62.55-3.27,1.65c-1.44-.37-3-.87-4.51-.87-1.01,0-1.83.11-2.8-.23Z"/>
      <path class="cls-1" d="M21.19,82.69l-3.9.73-2.62.52-7,1.74-3.56.95-.12-.15,3.36-1.15,8.09-2.55,4.81-1.24,5.25-.81c.84-.13,1.65-.7,2.34-1.16l2.42-1.59c.47-.31,1.7-.42,2.29-.44l2.4-.08c1.13-.04,2.09-.72,2.89-1.5,1.67.56,3.64.83,4.63-.3.36-.42.85-.74,1.34-.79l3.86-.39,2.17-.52,1.52.17,1.96-.22,5.14-.57c.62-.07,1.44.13,2.07.19,1.2.12,2.19.25,3.29.81l.1,2.45-2.67,1.79-2.52,1.23-5.15,1.37-2.06.76c-1.13-.06-2.02-.04-3.04.32l-2.07.72-.62-1.09.89-1.28c-.11-.63-1.37-.06-2.85-.89-.9-.5-1.87-.69-2.84-.32l-2.33.89c-.79-.64-1.72-.97-2.75-.95-4.13.09-6.05,1.07-9.36,3.4l-2.11-.15-3.25.12Z"/>
      <path class="cls-1" d="M62.78,92.47c-2.09.59-3,2.35-4.27,2.02-.79-.21-1.56-.08-2.2.43-2.3,1.82-4.33,3.81-6.29,6-.9,1.05-1.81,2.04-3.15,2.63l3.98-4.9,1.64-2.16c.41-.54.98-1.41,1.48-1.76l1.54-1.09c.33-.23.56-.94.59-1.42.02-.55-.45-1.25-1.02-1.32l-2.11,2.33c-.6.67-1.4,1.17-2.35,1.51l1.84-2.03,2.36-2.42c.07-.27.21-.92.34-1.14l1.25-2.1,1.31-1.36,1.7-1.87,1.25-1.46c.65-.76,1.43-1.36,2.43-1.6l1.69-.41,1.38-.34c.74-.01,1.24,1.08,1.72,1.32.51.26.99.5,1.36.83.64.57.56,1.27.2,1.87-.16.26-.13.91-.12,1.29,0,.69-.17,1.36-.28,1.98-.16.94-.1,1.8-.9,2.58-.4.39-.89,1.03-1.06,1.57l-.6,1.86c-.27.84-.48,2.72-1.37,3.1-.2.09-.65-.05-1-.14-.43.2-1.03.83-1.35,1.31l-1.41,2.15c-.32.85-.77,1.55-1.26,2.29-.95,1.41-1.54,2.94-2.77,4.22l2.29-5.26.96-2.19,1.03-2.47c.37-.87.3-1.94.92-2.71.29-.36.45-.76.23-1.15Z"/>
      <path class="cls-1" d="M105.98,102.17c-.83-.72-1.63-1.05-2.32-1.81-.58-.64-1.33-1.63-2.04-2.03l-2.49-1.38-.34-1.73c-.19-.96-.7-1.88-1.56-2.33l-1.41-.74c-1.6-.84-2.65.69-3.19-.11l-.72-1.08.28.92.14.45c.04.13-.41,0-.5-.11l-1.56-1.8-1.15-1.14-.99-2.2-1.34-1.48-.91-1.51c-.38-.63-.87-1.69-.87-2.32l1.36-1.54,1.83-1.15,2.38.8,1.8.2,1.71.81c1.34.63,2.84.93,3.66,2.28l.56.92,1.47,1.16,2.74,3.44-1.29,1.47.39.76-1.72.85c-.23.11-.58.56-.58.8s.18.75.3.96l1.51,2.56,1.86,1.81,2.15,2.27,1.83,1.53,1.56,1.93,3.11,2.65-.17.18-3-2.13-2.5-2.15Z"/>
      <path class="cls-1" d="M74.3,107.86c-.15-.94-1.27-2.75-2.12-3.79l.4-1.18c-.3-.03-1.11-.25-1.15-.54-.05-.4.1-1.05.2-1.44l-.27-.97c-.27-.97-.27-1.87-.87-2.73-.69.28-1.03.72-1.34,1.33l-.88,1.79.08-2.91c-.62.02-.91.19-1.44.69-.03-.7.08-1.48.27-2.09l.08-.83.99-2.43c.29-.72.15-1.59.56-2.22l1.39-2.16c.48-.75.67-1.76,1.32-2.45l1.44-1.52,1.72.33,1.04.27.79-.03.64,3.76.78,1.49c.69,1.32-.29,2.07.12,2.98s.47,1.77.7,2.74l.51,2.12c.21.88.52,1.35.54,2.39l-1.04-.86c-.16-.14-.84-.39-.95-.21-.78,1.33.06,2.81-.8,3.29-.5.28-1.18.89-1.23,1.37l-.33,3-.7,3.86-.47-3.05Z"/>
      <path class="cls-1" d="M86.82,102.46c.17-.7.24-1.8-.2-2.31l-2.37-2.7c-.11-.13-.34-.31-.47-.36-.17-.06-.6.18-.59.35l.02.88c-.33-.57-1.36-.8-1.7-.4-.55.65.87,1.69.19,2.99l-.59-1.59-.65-2.47c.2-.91.28-1.6-.03-2.41l-1.11-2.92c-.3-.78-.27-1.54,0-2.38.44-1.39-.41-2.28.37-3.22l.15-1.25c.36-.68,1.33-.84,2.04-.71l1.01-.52c1.07.73,1.85,1.61,2.45,2.75,2.91,1.86,3.04,4.32,3.65,5.07l1.71,2.07-1.08,2.14c-.25.49-.53.81-.32,1.35.29.77.27,1.43-.21,2.09-.73,1.01.15,2.8,1.25,3.97.76.81.37,1.49.86,2.45.69,1.36,1.32,2.53,1.69,4.02l-2.33-3.61c-.38-.59-.88-1.63-1.46-1.97l-2.27-1.31Z"/>
      <path class="cls-1" d="M22.34,103.17l-3.31,1.53c1.28-1.14,2.75-2.01,4.29-2.97l4.39-3.14c2.15-.76,4.12-1.85,6-3.16l2.47-1.73,2.24-1.71c.42-.32,1.05-.87,1.52-.96l2.38-.49c.79-.16,1.77-1.33,2.07-2.05.15-.37.32-.86.51-1.02l1.6-1.37c.57-.49.64-1.26,1-2,.31-.64,1.83-1.11,2.55-1.1.8,0,1.41-.04,2.06-.24l2.41-.75,4.83-.95-.89,1.37-1.26,1.64-2.15,2.26-1.62,2.14-1.72,1.8c-.71.74-1.51,1.22-2.59.78l.57-.72-2.57,1.25-2.93.53-3.19,1.85-1.86,1.04-3.21,2.25c-.45.31-1.04.53-1.59.7-2.45.73-4.77,1.59-7.03,2.74l-4.93,2.5Z"/>
      <path class="cls-1" d="M55.88,71.2c1.12.75,2.18.17,2.95,1.22l-3.55.3c-.82.07-1.58.68-3.27.78l-2.08.12-2.56.13-3.96.14c-.54-1.06-1.33-1.62-2.4-2.01-2.25-.81-3.06.89-3.93-.49l-2.75-.69-4.84-1.07-2.34-.98c-1.35-.57-2.73-.72-4.19-.85l-3.16-.26-3.82-.6-5.3-.82-1.9-.24-2.32-.28c1.02-.15,2.05,0,3.15.05l3.38.16,4.48.56c2.47.31,4.91.32,7.33-.08l2.69.97,2.84,1.06,1.99.46,5.32,1c.78.15,1.48-.13,2.29-.28l1.44-.27c.53-.1,1.04-.14,1.52.09,1.39.66,2.81-.18,3.33-1.83l2.61,1.04,2.34.83,2.72.85c.73.23,1.35.52,2,.96Z"/>
      <path class="cls-1" d="M132.2,101.25l-3.74-2.09-3.06-1.73-4.4-2.1-1.98-.29c-.22-.03-.52-.39-.73-.66-.5-.63-1.55-.91-2.33-1.29l-1.97-.96c-1.16-.57-2.31-1.13-3.62-1.2l-2.25-.11-2.88-2.02c-.83-.58-1.65-.16-2.36-1.21-1.11-1.65-2.16-1.79-2.52-3.13l-1.71-1.78-1.4-1.58,2.29.55,2.09.29c.85.12,1.46.27,2.36.07.41-.09,1.22.11,1.68.3.61,3.08,2.31,3.75,5.03,5l1.37-.15,1.39,2.01c1.25,1.8,3.48,2.65,5.51,3.19l1.5,1.21,2.59.97,2.18.74c1.05,1.12,2.14,2.02,3.38,2.89l7.03,4.9-3.46-1.81Z"/>
      <path class="cls-1" d="M93.55,43.35l-2.3,1.39c-.08.05-.37.12-.35.03l.14-.52.93-2.15,1.87-4.85.91-2.44,1.76-1.48,3.71-2.81,1.39-.87,2.84-3,4.27-4.91,2.04-2.35,3.21-4.7,2.13-2.87c.82-1.11,1.54-2.15,2.68-3.07l-2.64,4.15-2.56,4.52c-.38.67-.65,1.63-1.13,2.19l-3.82,4.56-1.27,1.87-3.02,5.14c-.36.18-1.02.23-1.5.22l-.07-1.15-1.1,1.32-3.09,3c-.58.56-1.06,1.46-1.18,2.23l-.65,3.99c-.12.74-.72,1.71-1.44,1.9-.66.17-1.19.33-1.76.67Z"/>
      <path class="cls-1" d="M89.24,45.23l-1.18,1.5c-1.2,1.74-2.32,3.31-3.99,4.74-.2-1.52-.11-2.69.04-4.04l.21-1.94c.28-.26.4-.24.27.11-.03.26.17.82.41.85.67.09,1.69-.09,2.34-.38l1.89-.84Z"/>
      <path class="cls-1" d="M42.22,45.1l.13,2.05c.03.55,1.09,1.13,1.48,1.68-.71-.19-1.41-.8-2.11-.98l-3.34-.84,1.5.08,1.87.23.17-2.57-.97-1.24,2.44,1.36,2.76,1.45,1.36,1.07,2.29,1.92-.36.23-2.32-1.71-3.7-2.39c-.2-.13-.7-.23-1.23-.32Z"/>
      <path class="cls-1" d="M29.93,21.03c-.09.5-.94.63-1.33.29l-3.13-2.74-3.41-3.6c1.77,1.09,3.08,2.39,4.65,3.6l3.21,2.46Z"/>
      <path class="cls-1" d="M115.8,64.39l1.36-.67c.15.18.67.56.93.56l2.54-.04c.47,0,1.24-.49,1.68-.77.56-.36,1.16-.43,1.82-.47l1.92-.13c2.45-.17,4.54-1.78,6.67-1.7l-2.37.76c-1.77.57-3.47,1.22-5.37,1.28-1.06.03-1.96.36-2.86.94-.42.27-.98.33-1.5.37l-1.54.12c-.58.05-1.14,0-1.7-.33l-1.56.09Z"/>
      <path class="cls-1" d="M88.69,36.63c-.17.17-.38.38-.24.24l.5-2.41.45-2.71.8-2.54.17.14-.61,2.14-.46,2.99c-.06.36.37,1.16.57,1.29-.43.24-.78.48-1.18.85Z"/>
      <path class="cls-1" d="M123.38,84.55l-2.1-.53c-.79-.2-1.52-.5-2.12-.97l3.02.92,1.34.41-.13.17Z"/>
      <path class="cls-1" d="M105.3,68.5c-.71.76-1.55,1.06-2.54,1.02.69-.69,1.46-1.26,2.54-1.02Z"/>
      <path class="cls-1" d="M112.58,65.39l-2.21.5,2.89-1c.22-.08.81.04,1.08.1l-1.77.4Z"/>
      <path class="cls-1" d="M106.61,67.63c.32-.48.69-.65,1.23-.93l1.5-.32-2.73,1.25Z"/>
    </g>
  </g>
</svg>