<?xml version="1.0" encoding="UTF-8"?>
<svg id="Calque_2" data-name="Calque 2" xmlns="http://www.w3.org/2000/svg" viewBox="0 0 525.22 381.98">
  <g id="Calque_1-2" data-name="Calque 1">
    <g>
      <g>
        <path d="M152.48,347.39c-.59.46,1.92,2.27,1.67,3.57l-1.45,7.64-5.02,4.08-20.29.24,2.61-13.13,3.26-16.18,19.49-.13,3.77,4.3-1.55,7.31c-.13.59-1.42,1.47-1.87,1.81l-.63.48ZM147.49,344.72l.9-3.83c.07-.29-.51-1.1-.85-1.1l-8.01.16-.98,4.84,8.94-.07ZM146.87,351.24c-.4-.13-1.35-.39-1.68-.39l-7.92.03-1.11,5.66,9.48-.04,1.24-5.26Z"/>
        <path d="M325.85,340.51l-4.41,21.9-7.44-.02-7.45-16.56-3.49,16.48-7.37.11,5.86-29.12,7.29-.08,7,15.79.19.8c.03.15.46.17.49.02l.15-.78,2.98-15.79h7.55s-1.35,7.25-1.35,7.25Z"/>
        <path d="M362.97,351.21l-4.74-.12,1.09-5.68h8.72s3.28.6,3.28.6l-2.31,12.56-5.28,3.91-15.72.02-4.06-4.36,3.9-20.53,5.45-4.34,15.72-.04,3.81,4.47-1.07,5.43-7.18.06.34-3.48-9.31-.04c-.38.38-.77,1.36-.88,1.96l-2.72,14.48,10.13-.02.86-4.9Z"/>
        <path d="M193.17,362.5l-15.67.11-4.21-4.39,4.1-20.63,5.52-4.3h15.66s3.86,4.24,3.86,4.24l-3.98,20.83-5.29,4.14ZM182.69,356.37l8.72-.31,3.2-16.36-10.01.04-3.07,15.38v.83c0,.21.94.42,1.16.41Z"/>
        <path d="M89.8,352.9l-29.93-2.65c-2.15-.13-4.03-.33-6.23-.94l32.71-5.27,29.01-4.42-2.14,15.27-23.42-1.99Z"/>
        <polygon points="241.91 354.26 245.64 362.38 237.44 362.5 233.3 353.37 225.51 362.47 216.87 362.37 223.05 355.09 229.71 347.5 223.21 333.35 231.57 333.27 235.5 341.82 243 333.22 251.85 333.29 244.02 342.36 239.07 348.09 241.91 354.26"/>
        <polygon points="442.89 349.54 408.88 352.84 386.39 354.88 388.9 339.54 423.44 345.81 442.89 349.54"/>
        <polygon points="273.53 362.39 265.98 362.36 271.76 333.32 279.28 333.29 273.53 362.39"/>
      </g>
      <g>
        <path d="M256.71,124.44l-.36-2.85-2.31-4.01-2.85-6.04-1.99-5.06-.98,1.9c-1.87-1.77-4.18-3.74-5.14-6.14l-1.69-4.24-.38,1.7c-.08.35-1.28.13-1.52-.15l-4-4.59-3.72-6.54c-1.14-2,1.36-4.87.07-7.93l-2.84-6.76-7.53-17.76c2.57,2.29,3.74,5.16,5.06,8.03l2.63,5.72,7.4,15.79c.6,1.28,2.01,2.36,3,2.76-1.86,1.87-.98,3.53.66,6.14,1.91,3.02,3.7,4.89,6.04,3.29,1.47-1.01,3.48-.26,3.57-.95.24-1.88-.84-6.29-1.89-9.12-.82-2.2-.13-3.2-1.14-4.53l1.35-1.33c.35-.35.02-1.53-.1-2.08l-2.24-10.1c1.14,2.18,1.44,4.34,2.08,6.84.35,1.37,1,3.63.94,4.87-.89,2.15-.86,3.46-.04,5.61l1.69,4.43,2.03,4.79,3.06,6.69.26-8.59,2.54-7.16c.71-2,.63-4.15-.23-6.16-.77-1.81-2.3-1.83-3.02-7l-.54-3.83,2.84,8.17c1.77-5.18,3.51-10.19,3.94-15.64.32-4-3.03-7.69-3.95-11.31l1.33-11.85c.33-2.93-.15-5.79-.41-8.69l-1.04-11.33c-.61-6.6-1.25-13-.87-19.43l.67,4.9,3.48,20.27c.2,1.18,1.23,2.79,1.75,3.85-.17,4.31.32,8.24,1.2,12.43l1.81,8.63c.24,1.16.58,2.28,1.08,3.32l3.44,7.13c.68,1.4,1.45,2.6.88,4.29l-3.67,10.87-1.28,3.03,1.39-.16c.65,2.28,1.94,4.2,3.85,5.67l.17,3.42-.06,4.48c-.01.86.57,2.38.96,2.81l1.47-.76c.29-.15.94.6,1.19.81l1.09.91,2.75-1.79c.38-.25,1.31-1.11,1.43-1.54l1.07-3.76.93-5.16c.37-2.06,1.53-4.12,2.14-6.18l1.1-3.72c.73-2.45.31-5.17.15-7.73l-.56-8.62-.09-12.46.33-.23.29,5.14,1.25,11.09v7.13c0,1.57-.68,2.92-.27,4.48.48,1.86-.04,3.64-.7,5.36l-2.73,7.08c-.5,1.31.19,3.86-.11,5.14l-1.24,5.14-.48,4.44c-.14,1.32-.61,2.37-.5,3.64.3,3.62-1.64,4.9-1.19,7.67.27,1.67.27,3.05-.35,4.54l-2.18,5.31-3.07,5.8c-.27.51-1.03,1.41-1.55,1.43-.62.02-1.69-.84-1.97-1.41-.73-1.47-3.05,1.53-7.42,1.12l-2.79,1.55c-1.12-1.41-2.65-3.39-3.36-4.91Z"/>
        <path d="M250.51,134.52c-1.89.57-2.16,3.52-4.02,2.9l-4.46-1.48-3.34-1.72c-1.57-.81-2.87-1.7-4.13-2.98l-2.46-.94-3.56-1.89c-2.58-1.37-5-4.27-5.83-7.11-.6-2.04-1.4-3.22-2.82-4.74l-4.9-5.26c-.57-.61-1.16-2.12-1.71-3.22l3.45.51c.25-.22-.01-1.92-.47-2.36-2.81-2.7-4.69-5.88-5.85-9.49-1.08-3.37-3.3-5.12-5.9-7.31l-6.91-5.8c-1.84-1.54-2.03-7.03-5.1-11.04-4.02-5.24-10.51-9.35-12.39-12.03-1.37-1.96-2.36-4.1-3.81-5.9l-7.3-9.05c1.13-.03,1.71.16,2.61.59,0,0,.75-.51,1.09-.74,2.25.43,3.34,2.08,4.61,3.82l6.11,8.36c1.72,2.35,4.71,3.84,7.14,5.46l7.71,5.14c2.53,1.69,2.66,8.01,4.87,11.25,1.51,2.22,3.79,4.01,6.18,5.11l4.86,2.24c2.68,5.8,6.85,10.51,12.53,13.69,1.14-.14,3.07-.68,3.78-1.26l1.38-3.16c3.04,2.12,4.53,4.77,6.93,7.29l6.2,6.51,3.02,2.54,2.89,6.41c.46,1.02.83,2.23.89,3.46.06,1.35.75,2.32,1.26,3.59l1.83,4.61-2.2.88c.05,1.58-.6,2.63-2.17,3.11ZM197.46,70.78c-.16-.78-.63-1.81-1.22-2.26l-4.31-3.24,4.41,4.8c.17.19.68.49,1.12.7Z"/>
        <path d="M313.74,146.56l-3.69.04c-1.9,1.2-3.93,1.28-5.9.91l-6.25,1.74-.24-2.13-2.86-.65-1.33-3.7,3.41-3.64,2.45-2.82c2.78-3.21,6.56-6.36,10.47-7.94l7.5-3.04c2.91-1.18,3.8-4.08,7.22-5.28l5.04.26,2.72,1.38c7.08-.21,12.72-4.1,18.55-7.43l7.2-2.45c3.11-1.06,6.35-1.86,9.1-3.64l4.52-4.19,4.32-3.9c.55-.49,2.42-.6,2.82-1.14.68-.91,1.49-1.56,2.52-1.98,4.96-2.04,9.25-4.93,13.92-7.44,3.44-1.85,6.29-3.97,8.81-7.07l2.5-3.09,13.07-9.32,6.7-4.49.4.46-14.66,11.82c-3.84,3.09-6.42,6.9-9.67,10.5-2.45,2.72-6.28,4.29-9.21,6.51l-5.52,4.18-4.6,3.67-6.8,6.75,4.22-1.42.33.42-6.81,3.21-1.12,1.89c-3.44,1.39-6.49,3.18-9.22,5.66l-3.15,2.86c-.68-.11-2.05-.17-2.54.16-3.21,2.21-6.93-.28-7.39.74l-.66,1.48c-.31.7-1.95,1.3-2.95,1.46l.74-1.86c-4.43,1.48-8.77,2.62-9.51,6.92-.41,2.41-2.57,1.16-3.7,1.73s-3.12,2.4-3.5,3.58l-.36,3.26-5.9,3.39-3.76,1.93c-2.1,1.08-4.62,1.68-7.22,1.71Z"/>
        <path d="M283.5,115.01l2.32-3.91,4.44-6.2,3.16-4.23,4.45-4.38c.68-.67,1.67-.97,2.51-1.41l9.43-4.91-1.38,5.04-1.06,2.95c-.17.47.04,1.56.31,1.97s1.59,1.08,1.88.75l2.26-2.6.16,3.56c.1,2.26-1.94,3.63-3.57,5.59l2.81-.6,4.13-.57c1.26-.17,2.24.17,3.63.83l3.68-2.77,3.94-3.18,2.65-.48c.61-.11,1.58-1.29,2.02-1.79l3.74-4.19,15.8-10.4c1.67-1.22,3.03-2.42,5.25-3.13l-7.85,6.64-11.41,8.78c-3.29,2.54-3.56,6.02-6.09,7.42-2.84,1.57-5.02,3.61-7.3,5.83-1.62,1.58-2.47,3.13-2.48,5.47-2.67,2.71-2.82,5.23-4.21,6.64s-2.84,2.18-4.55,3.06l-5.72,2.94-.91-1.45c-.59-.93-1.59,2.85-4.8,4.88l-7.54,4.77-2.79,1.69-2.69-3.69c.65-.29,1.86-1.84,1.34-2.29-1.33-1.15-3.26-.08-4.13,1.26-1.65-3.65-4.86-2.21-5.08-3.01-.06-.21-.17-.91-.11-1.2l1.17-5.42c.24-1.09.53-2.11.61-3.22.14-1.94.93-3.24,1.98-5.02Z"/>
        <path d="M242.99,142.65c1.21,1.58-1.44,2-.9,3.39.58,1.48-.08,2.52-1.36,3.13l-3.01,1.41c-.6.28-2.19.89-2.87.67l-5.97-1.9c-3.81-1.21-4.79-3.73-7.92-4.4-3.83-.82-7.18-2.39-10.4-4.55-1.92-.23-3.76-.66-5.4-1.71l-1.09-2.86c-.67-1.74-2.84-3.3-4.34-4.16-2.5.65-5.43-.2-7.78-1.63l-3.08-.8-6.15-4.46c-1.47-1.07-2.99-1.83-4.84-2.09-3.18-.46-3.81-2.3-6.02-1.91-3.08-2.3-5.93-5.14-9.51-6.65l-4.65-1.96c-2.85-1.2-5.96-1.38-9.06-1.41-2.73-2.3-5.34-4.9-8.61-6.29l-11.98-5.12-15.5-6.38c-1.72-.71-3.31-1.3-4.79-2.4,7.99,2.28,15.25,5.2,23,7.73l11.23,3.67c1.2.39,2.35.81,3.39,1.43l4.99,2.96c1.69,1,4.39,1.14,6.46,1.31l4.01.31c3.06,1.45,6.23,2.88,9.02,4.74s5.24,4.27,8.91,4.39c.87.03,2.82-.32,3.64.08l5.35,2.58c2.31,1.11,7.49-1.15,8.95-.12,1.66,1.17,3.87,3.38,5.33,5.03l3.24.73c1.62.36,2.64.86,4.1-.24.62-.46,1.44-1.39,1.61-2.01s-.35-2.07-.87-2.54l-4.26-3.75-2.58-3.04c-.25-.29-.56-1.06-.54-1.41s1.13-.92,1.4-.66l2.47,2.33c1.42,1.34,3.3,2.3,5.03,3.26l3.92,2.17c3.44,1.9,6.22,4.59,6.71,8.72l5.39,3.2c3.23,1.26,5.47,3.06,8.1,5.14,2.48,1.96,5.12,3.36,7.19,6.06Z"/>
        <path d="M355.56,154.84c-3.07-1.07-5.47,1.07-11.94,1.43-1.71.09-3.13.97-4.04,2.33l-2.06,3.08c-.89-.51-2.44-1.11-3.05-.73l-5.47,3.37-3.44-.79,3.63,4.39c.34-.97.59-1.73,1.02-1.83s1.41.15,1.77.35c1.6,1.08,2.53,1.4,4.75,2.2l-5.98.64-8.36-.27c-3.2-.1-6.3-.38-9.29-1.48-4.1-1.51-7.28-.33-10.1-2.09l-3.54-2.21-4.23-3.34c-.4-.32-.63-1.28-.52-1.74l.9-3.73,3.69-1.94,5.56-1.9,8.08-1.86,7.79-.14,3.74-.51,4.03-1.18,4.07-.36c.72.98,2.1,1.82,3.41,2.49,3.67,1.88,5.99,2.92,10.87.98l6.24.59,1.98-.09c3.48,1.15,6.33-.75,8.67,0,2.68.86,5.26,2.15,7.97,2.03,3.38-.15,6.23-2.79,9.5-3.05l9.05-.7,10.67-1.54,5.57-.66,4.88-.14-5.87,1.12-12.92,2.83-4.02.87c-2.51.54-5.05.49-7.38,1.29l-3.4,1.16-6.87,3.46c-3.02-.77-6.3-1.83-9.48-1.83-2.13,0-3.83.23-5.88-.48Z"/>
        <path d="M152.29,173.62l-8.18,1.54-5.51,1.09-14.7,3.65-7.47,2-.26-.32,7.06-2.42,16.99-5.35,10.09-2.59,11.02-1.7c1.76-.27,3.45-1.47,4.92-2.43l5.07-3.34c.99-.65,3.57-.88,4.8-.92l5.04-.17c2.37-.08,4.38-1.5,6.06-3.16,3.5,1.18,7.65,1.75,9.72-.62.76-.87,1.78-1.56,2.81-1.67l8.11-.82,4.56-1.1,3.19.37,4.11-.45,10.79-1.19c1.3-.14,3.03.28,4.34.41,2.52.24,4.59.53,6.91,1.7l.21,5.15-5.61,3.75-5.28,2.57-10.81,2.88-4.32,1.59c-2.37-.12-4.24-.07-6.37.67l-4.34,1.5-1.3-2.29,1.86-2.68c-.24-1.33-2.88-.12-5.99-1.87-1.88-1.06-3.92-1.46-5.97-.67l-4.88,1.87c-1.66-1.34-3.62-2.03-5.78-1.99-8.68.19-12.7,2.24-19.65,7.13l-4.43-.32-6.82.25Z"/>
        <path d="M239.6,194.13c-4.39,1.24-6.29,4.93-8.96,4.23-1.65-.43-3.27-.16-4.61.9-4.83,3.81-9.09,8.01-13.2,12.59-1.9,2.21-3.8,4.27-6.62,5.53l8.35-10.28,3.45-4.52c.87-1.14,2.06-2.96,3.11-3.7l3.22-2.28c.69-.49,1.18-1.96,1.23-2.98.05-1.14-.95-2.62-2.13-2.77l-4.42,4.9c-1.27,1.4-2.93,2.47-4.94,3.18l3.86-4.25,4.96-5.08c.15-.57.45-1.93.72-2.4l2.63-4.41,2.74-2.85,3.57-3.92,2.62-3.06c1.37-1.6,2.99-2.85,5.1-3.36l3.56-.87,2.9-.71c1.55-.03,2.61,2.26,3.62,2.78,1.08.55,2.08,1.05,2.86,1.75,1.33,1.21,1.18,2.67.42,3.92-.33.55-.26,1.92-.26,2.71.01,1.44-.37,2.86-.59,4.16-.34,1.97-.2,3.78-1.88,5.41-.84.82-1.87,2.15-2.23,3.29l-1.25,3.9c-.57,1.77-1,5.7-2.87,6.52-.41.18-1.37-.11-2.11-.3-.89.42-2.16,1.74-2.82,2.75l-2.95,4.51c-.66,1.79-1.61,3.25-2.65,4.8-1.99,2.97-3.23,6.18-5.82,8.85l4.81-11.05,2.02-4.59,2.17-5.18c.77-1.83.63-4.08,1.94-5.68.62-.75.94-1.59.47-2.42Z"/>
        <path d="M330.29,214.5c-1.74-1.5-3.42-2.21-4.88-3.81-1.22-1.34-2.79-3.42-4.29-4.25l-5.23-2.9-.71-3.64c-.39-2.01-1.47-3.94-3.28-4.9l-2.97-1.56c-3.36-1.77-5.56,1.46-6.7-.23l-1.52-2.26.58,1.94.29.95c.08.26-.86-.02-1.04-.23l-3.27-3.78-2.41-2.39-2.08-4.61-2.81-3.1-1.91-3.17c-.8-1.32-1.82-3.55-1.82-4.88l2.85-3.23,3.84-2.41,5.01,1.68,3.78.42,3.6,1.7c2.81,1.32,5.96,1.96,7.68,4.78l1.18,1.93,3.08,2.44,5.75,7.22-2.7,3.08.82,1.6-3.61,1.78c-.48.24-1.22,1.18-1.22,1.68s.37,1.57.64,2.01l3.17,5.37,3.9,3.8,4.52,4.76,3.84,3.22,3.28,4.05,6.53,5.56-.35.37-6.29-4.46-5.24-4.52Z"/>
        <path d="M263.78,226.45c-.31-1.97-2.67-5.78-4.44-7.96l.84-2.48c-.64-.06-2.34-.52-2.41-1.13-.1-.85.21-2.2.42-3.01l-.57-2.04c-.57-2.03-.56-3.92-1.83-5.73-1.45.59-2.17,1.5-2.8,2.79l-1.85,3.75.17-6.11c-1.31.03-1.91.41-3.02,1.45-.06-1.47.16-3.1.57-4.38l.18-1.74,2.07-5.1c.61-1.51.32-3.33,1.18-4.67l2.92-4.53c1.02-1.58,1.4-3.7,2.78-5.14l3.03-3.18,3.62.69,2.18.57,1.65-.07,1.34,7.89,1.64,3.12c1.45,2.76-.62,4.35.26,6.27s.98,3.72,1.47,5.75l1.07,4.45c.44,1.85,1.09,2.84,1.14,5.02l-2.18-1.81c-.34-.29-1.76-.82-1.99-.44-1.64,2.79.12,5.89-1.69,6.9-1.06.59-2.47,1.88-2.58,2.88l-.7,6.29-1.47,8.11-.99-6.41Z"/>
        <path d="M290.08,215.12c.37-1.47.51-3.78-.43-4.86l-4.98-5.68c-.23-.27-.71-.66-.99-.76-.35-.13-1.26.37-1.25.74l.05,1.85c-.7-1.19-2.85-1.68-3.56-.84-1.16,1.37,1.83,3.55.39,6.27l-1.23-3.35-1.36-5.18c.43-1.9.6-3.35-.06-5.06l-2.34-6.12c-.63-1.64-.57-3.24,0-5,.93-2.91-.86-4.79.77-6.75l.32-2.63c.76-1.43,2.8-1.76,4.28-1.49l2.12-1.09c2.25,1.54,3.88,3.38,5.14,5.78,6.12,3.91,6.38,9.07,7.67,10.64l3.6,4.34-2.26,4.48c-.52,1.03-1.1,1.69-.68,2.84.6,1.62.56,3.01-.44,4.4-1.53,2.12.31,5.89,2.62,8.33,1.6,1.7.78,3.13,1.8,5.14,1.44,2.86,2.78,5.32,3.54,8.45l-4.89-7.57c-.8-1.24-1.84-3.43-3.07-4.14l-4.76-2.74Z"/>
        <path d="M154.69,216.61l-6.94,3.21c2.68-2.39,5.78-4.22,9-6.23l9.21-6.6c4.51-1.6,8.65-3.87,12.59-6.63l5.19-3.64,4.69-3.59c.88-.68,2.2-1.82,3.18-2.02l5-1.03c1.65-.34,3.73-2.79,4.34-4.31.32-.78.68-1.81,1.06-2.14l3.35-2.87c1.2-1.03,1.35-2.64,2.1-4.21.64-1.33,3.84-2.32,5.34-2.31,1.67.02,2.96-.08,4.33-.51l5.05-1.58,10.13-2-1.87,2.88-2.65,3.43-4.51,4.74-3.4,4.49-3.6,3.78c-1.48,1.56-3.17,2.56-5.45,1.65l1.19-1.52-5.4,2.63-6.16,1.1-6.7,3.89-3.9,2.19-6.75,4.73c-.94.66-2.18,1.12-3.35,1.47-5.14,1.53-10.02,3.35-14.75,5.75l-10.34,5.25Z"/>
        <path d="M225.11,149.47c2.35,1.58,4.57.36,6.19,2.56l-7.45.64c-1.72.15-3.31,1.43-6.87,1.64l-4.36.25-5.37.26-8.3.29c-1.12-2.23-2.78-3.41-5.03-4.21-4.72-1.69-6.42,1.87-8.25-1.02l-5.78-1.45-10.17-2.24-4.91-2.05c-2.84-1.19-5.74-1.52-8.8-1.77l-6.63-.55-8.02-1.27-11.14-1.72-3.98-.5-4.87-.59c2.15-.32,4.31,0,6.61.11l7.09.34,9.4,1.17c5.2.65,10.31.67,15.38-.16l5.65,2.04,5.96,2.22,4.18.98,11.16,2.11c1.64.31,3.1-.27,4.81-.58l3.02-.56c1.12-.21,2.18-.28,3.18.19,2.92,1.39,5.91-.37,7-3.84l5.48,2.18,4.91,1.75,5.72,1.79c1.54.48,2.84,1.09,4.19,2.01Z"/>
        <path d="M385.34,212.57l-7.85-4.4-6.42-3.63-9.23-4.4-4.17-.6c-.47-.07-1.09-.83-1.53-1.39-1.04-1.32-3.25-1.9-4.89-2.7l-4.14-2.03c-2.43-1.19-4.84-2.37-7.6-2.51l-4.73-.23-6.05-4.25c-1.75-1.23-3.47-.35-4.95-2.54-2.34-3.47-4.54-3.75-5.3-6.57l-3.59-3.74-2.94-3.33,4.81,1.15,4.4.61c1.78.25,3.06.57,4.95.15.87-.2,2.56.23,3.53.62,1.28,6.46,4.84,7.87,10.55,10.5l2.88-.32,2.92,4.22c2.62,3.78,7.3,5.57,11.57,6.7l3.15,2.54,5.43,2.03,4.58,1.55c2.2,2.35,4.49,4.23,7.11,6.06l14.77,10.29-7.26-3.8Z"/>
        <path d="M304.19,91.02l-4.84,2.93c-.17.1-.78.26-.73.07l.3-1.1,1.96-4.52,3.94-10.19,1.91-5.12,3.71-3.1,7.8-5.91,2.91-1.83,5.96-6.3,8.97-10.3,4.28-4.94,6.75-9.87,4.47-6.03c1.73-2.33,3.24-4.52,5.63-6.44l-5.53,8.72-5.38,9.49c-.79,1.4-1.37,3.41-2.36,4.6l-8.01,9.57-2.66,3.92-6.34,10.79c-.75.38-2.14.48-3.15.46l-.15-2.41-2.32,2.76-6.49,6.3c-1.21,1.18-2.22,3.07-2.49,4.68l-1.37,8.38c-.26,1.56-1.52,3.59-3.03,3.98-1.38.36-2.51.69-3.7,1.42Z"/>
        <path d="M295.15,94.97l-2.49,3.15c-2.53,3.66-4.87,6.95-8.37,9.94-.41-3.19-.23-5.65.08-8.48l.45-4.08c.6-.54.85-.51.57.23-.06.56.35,1.72.87,1.79,1.41.19,3.55-.19,4.92-.79l3.98-1.76Z"/>
        <path d="M196.44,94.68l.27,4.3c.07,1.16,2.29,2.37,3.12,3.53-1.48-.41-2.96-1.69-4.43-2.05l-7-1.76,3.14.16,3.93.48.36-5.4-2.03-2.61,5.13,2.86,5.8,3.05,2.87,2.24,4.82,4.03-.75.47-4.87-3.6-7.76-5.02c-.42-.27-1.47-.48-2.58-.67Z"/>
        <path d="M170.63,44.16c-.19,1.04-1.97,1.32-2.79.6l-6.56-5.75-7.15-7.56c3.72,2.28,6.46,5.02,9.77,7.55l6.73,5.16Z"/>
        <path d="M350.91,135.19l2.85-1.4c.32.38,1.4,1.18,1.94,1.17l5.33-.09c.98-.02,2.6-1.03,3.53-1.62,1.17-.75,2.44-.89,3.82-.99l4.03-.28c5.14-.36,9.52-3.74,14-3.57l-4.97,1.59c-3.72,1.19-7.28,2.57-11.27,2.69-2.22.06-4.11.75-6.01,1.97-.87.56-2.07.69-3.15.77l-3.23.25c-1.22.1-2.4.01-3.58-.7l-3.29.19Z"/>
        <path d="M293.99,76.91c-.36.36-.8.79-.51.5l1.06-5.06.95-5.68,1.68-5.33.37.29-1.28,4.5-.97,6.29c-.12.76.78,2.44,1.19,2.72-.9.5-1.64,1.01-2.49,1.79Z"/>
        <path d="M366.83,177.51l-4.41-1.12c-1.66-.42-3.2-1.05-4.45-2.04l6.33,1.94,2.81.86-.27.36Z"/>
        <path d="M328.87,143.81c-1.5,1.59-3.26,2.22-5.34,2.13,1.44-1.44,3.07-2.65,5.34-2.13Z"/>
        <path d="M344.16,137.28l-4.63,1.05,6.07-2.1c.46-.16,1.7.08,2.27.2l-3.71.84Z"/>
        <path d="M331.63,142c.67-1,1.45-1.37,2.58-1.96l3.15-.66-5.73,2.62Z"/>
      </g>
      <g>
        <path d="M187.8,232.86l4.81,6.73-20.45,70.37-4.54,5.42,27.51.11,7.97-27.89-5.12-1.22-1.34-.17.23-.52,1.17.22,22-1,15.04-.61,14.2-11,9.29-31.09-7.78-9.3-63-.06ZM231.38,251.16l-5.26,17.68-10.29.31c-2.89.66-5.4,1.83-8.33,3.34l6.32-21.33-6.91-2.01,28.94.28-4.47,1.73Z"/>
        <path d="M277.09,232.97l4.25,5.45-24.69,42.22-6.89,2.02-1.05.36v.56s1.27.04,1.27.04l13.48-.31-10.47,4.13-17.33,28.03h26.25s8.73-15.72,8.73-15.72l-6.04-1.5c-.78-.1-.79-.25.11-.34l32.27-.02-.14,9.87-.27,7.71h28.65c-1.49-3.23-4.15-5.7-7.38-7.24l-.89-.72.57.03.77.16,3.29,1.15.16-76.02-44.65.13ZM297.55,251.5l-.34,30.75-12.05.07-5.9,1.56,17.55-31.85-7.27-2.41,15.14.21-7.13,1.67Z"/>
        <path d="M155.6,313.01c-.95,2.53-1.57,2.55-3.01,2.48l-24.7.44,3.83-3.89,10.99-38.14-31.39,37.05-8.45-38.63-11.71,39.12-5.22-.27c3.61,1.58,5.96,3.77,7.6,7.08l-35.51,7.99,7.57-10.02,22.94-76.17,3.73.34-4.01-1.36-4.28-6.74,33.49.05,6.89,35.99,23.25-28.32,3.99-.08c-1.28-.6-2.34-1.2-3.22-2.12l-5.02-5.05,35.28.03-4.11,13.88-5.73.68,5.16,1.2-9.67,32.82-8.08,28.1c-1.74.96-3.82,1.34-5.53,1.37l2.64,2.8.53-1.58,1.75.94Z"/>
        <path d="M379.64,288.13l13.13-1.42c5.25-2.04,9.67-4.63,14.8-7.8l-8.48,31.42,4.03,5.94-63.62-.76-10.82-11.93,15.45-61.49,8.92-7.29,2.15.89,1.29-1.18-1.43-.27-.58-.55,1.13-1.22,59.04-3.2-5.25,20.67c-7.82,6.45-15.83,11.93-25.03,16.9l4.52-18.19-29.64,1.36,7.3,1.34-11.5,45.69-3.84,1.56h25.77s2.66-10.48,2.66-10.48Z"/>
        <path d="M48.35,326.22c-16.62,6.36-32.16,13.74-48.35,21.84l15.01-20.12,28.65-100.04-16.72-9.21,48.83-7.32-9.13,31.74-20.73,71.82-5.72-.55c3.78,2.53,6.67,4.99,9.42,8.35l-1.26,3.49Z"/>
        <path d="M478.79,341.43l-17.82-8.64c-12.62-6.02-25.13-10.84-38.89-14.95l4.68-3.99,6-23.62,10.76-43.08-16.16,1.86-15.45,11.61c1.31-3.18,3.78-5.32,6.15-7.78l6.35-24.18c34.1-3.28,67.86-8.83,100.81-17.27l-10.62,8.31c-9.75,7.61-18.66,15.78-26.93,24.91l-.7-3.47-26.32,3.73,10.11.9-13.96,55.96-4.23,15.59c1.32-.78,1.5-1.94,2.2-4.09l24.49,27.82.33.37-.49.42-.32-.4Z"/>
        <rect x="175.87" y="381.56" width=".35" height=".35" transform="translate(-218.36 236.29) rotate(-45)"/>
      </g>
    </g>
  </g>
</svg>