<?xml version="1.0" encoding="UTF-8"?>
<svg id="Calque_2" data-name="Calque 2" xmlns="http://www.w3.org/2000/svg" viewBox="0 0 1338 1094.11">
  <defs>
    <style>
      .cls-1 {
        fill: #fff;
      }

      .cls-2 {
        fill: #e10600;
      }
    </style>
  </defs>
  <g id="Calque_1-2" data-name="Calque 1">
    <g>
      <rect width="1338" height="1094.11"/>
      <g>
        <g>
          <path class="cls-2" d="M278.01,938.39l-66.32-5.86c-4.77-.28-8.92-.72-13.8-2.09l72.48-11.68,64.28-9.79-4.74,33.84-51.9-4.41Z"/>
          <polygon class="cls-2" points="1060.29 930.94 984.95 938.26 935.12 942.78 940.68 908.79 1017.2 922.69 1060.29 930.94"/>
          <g>
            <path class="cls-1" d="M416.87,926.19c-1.32,1.01,4.25,5.02,3.7,7.9l-3.21,16.93-11.13,9.04-44.94.53,5.78-29.08,7.22-35.84,43.19-.29,8.35,9.52-3.44,16.2c-.28,1.31-3.16,3.25-4.13,4l-1.39,1.07ZM405.81,920.26l2-8.5c.15-.64-1.14-2.44-1.89-2.43l-17.74.35-2.17,10.73,19.8-.16ZM404.44,934.71c-.9-.28-2.99-.86-3.72-.86l-17.55.06-2.47,12.54,20.99-.1,2.75-11.65Z"/>
            <path class="cls-1" d="M801,910.94l-9.76,48.52-16.49-.04-16.52-36.68-7.73,36.51-16.33.23,12.98-64.53,16.16-.18,15.51,34.97.41,1.78c.08.33,1.02.37,1.08.04l.32-1.73,6.61-34.97,16.74.02-2.99,16.05Z"/>
            <path class="cls-1" d="M883.22,934.65l-10.51-.26,2.4-12.58h19.31s7.26,1.33,7.26,1.33l-5.13,27.83-11.7,8.66-34.83.04-9-9.65,8.63-45.48,12.07-9.62,34.84-.08,8.44,9.91-2.37,12.02-15.92.14.75-7.7-20.62-.09c-.83.84-1.7,3.02-1.95,4.34l-6.02,32.08,22.43-.04,1.9-10.85Z"/>
            <path class="cls-1" d="M507.02,959.66l-34.72.24-9.32-9.73,9.09-45.7,12.24-9.54,34.69-.02,8.56,9.42-8.82,46.16-11.72,9.17ZM483.8,946.08l19.32-.7,7.09-36.24-22.18.09-6.81,34.08v1.84c0,.46,2.07.93,2.57.92Z"/>
            <polygon class="cls-1" points="615.01 941.4 623.28 959.39 605.11 959.67 595.93 939.44 578.67 959.61 559.53 959.37 573.22 943.25 587.98 926.42 573.57 895.07 592.11 894.91 600.81 913.85 617.42 894.8 637.03 894.95 619.69 915.05 608.72 927.73 615.01 941.4"/>
            <polygon class="cls-1" points="685.08 959.42 668.35 959.34 681.15 895.02 697.81 894.94 685.08 959.42"/>
          </g>
        </g>
        <g>
          <path class="cls-2" d="M648.37,417.45l-.82-6.49-5.28-9.15-6.51-13.77-4.54-11.54-2.24,4.34c-4.26-4.03-9.54-8.53-11.72-14.01l-3.86-9.68-.87,3.88c-.18.8-2.91.31-3.47-.34l-9.13-10.47-8.49-14.93c-2.6-4.56,3.1-11.1.17-18.08l-6.49-15.43-17.18-40.52c5.86,5.21,8.54,11.78,11.54,18.32l5.99,13.05,16.89,36.02c1.37,2.92,4.57,5.38,6.85,6.3-4.24,4.26-2.23,8.07,1.51,14,4.35,6.9,8.44,11.16,13.79,7.5,3.35-2.29,7.93-.59,8.14-2.18.55-4.29-1.92-14.36-4.31-20.8-1.87-5.03-.29-7.31-2.6-10.33l3.08-3.04c.81-.8.05-3.5-.23-4.75l-5.12-23.05c2.59,4.98,3.28,9.91,4.75,15.6.8,3.12,2.29,8.28,2.14,11.12-2.04,4.9-1.96,7.9-.09,12.79l3.86,10.11,4.64,10.92,6.99,15.27.6-19.59,5.79-16.33c1.61-4.55,1.43-9.47-.53-14.05-1.77-4.13-5.25-4.19-6.9-15.98l-1.22-8.74,6.48,18.63c4.04-11.82,8-23.25,8.98-35.68.72-9.12-6.91-17.54-9.01-25.8l3.04-27.04c.75-6.69-.33-13.21-.94-19.83l-2.38-25.85c-1.39-15.07-2.85-29.66-1.98-44.32l1.54,11.17,7.95,46.25c.46,2.7,2.8,6.37,4,8.78-.39,9.84.73,18.8,2.73,28.35l4.12,19.7c.55,2.65,1.33,5.2,2.47,7.56l7.84,16.26c1.54,3.2,3.31,5.93,2,9.8l-8.38,24.81-2.92,6.9,3.18-.36c1.48,5.21,4.42,9.59,8.79,12.93l.38,7.79-.14,10.22c-.03,1.95,1.29,5.43,2.18,6.4l3.36-1.73c.66-.34,2.15,1.37,2.72,1.85l2.48,2.08,6.28-4.09c.88-.57,2.99-2.54,3.27-3.52l2.44-8.59,2.12-11.77c.85-4.69,3.48-9.41,4.87-14.1l2.52-8.48c1.66-5.59.72-11.81.34-17.63l-1.28-19.67-.21-28.44.75-.53.66,11.74,2.86,25.29v16.27c0,3.57-1.55,6.65-.62,10.22,1.1,4.24-.09,8.31-1.61,12.23l-6.24,16.15c-1.15,2.98.44,8.81-.26,11.72l-2.82,11.73-1.08,10.13c-.32,3.01-1.38,5.41-1.15,8.31.67,8.26-3.74,11.18-2.72,17.51.62,3.82.61,6.96-.79,10.37l-4.97,12.13-7,13.24c-.61,1.16-2.34,3.22-3.53,3.25-1.41.04-3.85-1.92-4.5-3.21-1.67-3.35-6.95,3.49-16.93,2.57l-6.37,3.53c-2.56-3.22-6.04-7.73-7.67-11.21Z"/>
          <path class="cls-2" d="M634.22,440.43c-4.3,1.31-4.94,8.03-9.17,6.62l-10.18-3.38-7.61-3.93c-3.58-1.85-6.55-3.89-9.43-6.81l-5.61-2.14-8.13-4.32c-5.88-3.12-11.4-9.73-13.31-16.22-1.37-4.66-3.19-7.34-6.42-10.81l-11.18-12c-1.31-1.4-2.66-4.85-3.9-7.34l7.88,1.17c.58-.5-.03-4.38-1.07-5.38-6.4-6.17-10.7-13.41-13.34-21.66-2.46-7.68-7.53-11.69-13.47-16.67l-15.78-13.23c-4.19-3.52-4.63-16.04-11.64-25.18-9.17-11.96-23.98-21.32-28.28-27.46-3.13-4.46-5.38-9.34-8.7-13.47l-16.65-20.66c2.57-.06,3.91.36,5.96,1.36,0,0,1.71-1.15,2.48-1.69,5.13.98,7.62,4.75,10.52,8.71l13.94,19.09c3.92,5.37,10.75,8.76,16.3,12.46l17.59,11.74c5.77,3.85,6.06,18.28,11.11,25.68,3.45,5.06,8.65,9.14,14.09,11.65l11.09,5.12c6.12,13.24,15.62,23.99,28.59,31.25,2.6-.33,7.01-1.54,8.62-2.88l3.14-7.21c6.93,4.83,10.33,10.89,15.8,16.63l14.16,14.85,6.89,5.79,6.61,14.63c1.05,2.33,1.9,5.08,2.02,7.89.14,3.07,1.72,5.29,2.87,8.19l4.18,10.53-5.03,2.01c.11,3.6-1.36,6-4.95,7.09ZM513.16,295.01c-.36-1.78-1.43-4.13-2.79-5.15l-9.82-7.39,10.07,10.94c.4.43,1.54,1.13,2.55,1.6Z"/>
          <path class="cls-2" d="M778.48,467.91l-8.41.09c-4.34,2.74-8.97,2.93-13.45,2.07l-14.26,3.96-.56-4.86-6.52-1.48-3.04-8.44,7.77-8.31,5.58-6.44c6.34-7.32,14.97-14.5,23.89-18.12l17.11-6.93c6.64-2.69,8.67-9.31,16.48-12.05l11.5.6,6.21,3.15c16.15-.47,29.02-9.37,42.33-16.96l16.42-5.6c7.1-2.42,14.49-4.25,20.75-8.3l10.32-9.56,9.87-8.89c1.25-1.12,5.53-1.37,6.45-2.6,1.56-2.08,3.41-3.57,5.74-4.53,11.31-4.66,21.1-11.26,31.75-16.97,7.85-4.21,14.35-9.05,20.1-16.13l5.71-7.04,29.83-21.26,15.29-10.25.91,1.05-33.45,26.96c-8.76,7.06-14.66,15.74-22.06,23.95-5.6,6.2-14.34,9.8-21.01,14.85l-12.59,9.54-10.49,8.37-15.51,15.41,9.62-3.23.74.95-15.54,7.31-2.56,4.31c-7.85,3.17-14.82,7.25-21.05,12.91l-7.18,6.52c-1.55-.25-4.69-.4-5.8.37-7.33,5.04-15.82-.63-16.85,1.68l-1.51,3.37c-.72,1.61-4.45,2.98-6.73,3.32l1.68-4.24c-10.12,3.37-20.02,5.97-21.69,15.79-.94,5.5-5.87,2.65-8.45,3.95s-7.12,5.47-7.98,8.18l-.83,7.43-13.47,7.74-8.58,4.39c-4.8,2.46-10.53,3.83-16.47,3.9Z"/>
          <path class="cls-2" d="M709.48,395.93l5.28-8.93,10.13-14.15,7.21-9.66,10.15-10c1.55-1.53,3.81-2.22,5.72-3.22l21.52-11.21-3.15,11.51-2.41,6.72c-.39,1.08.09,3.55.7,4.49s3.62,2.47,4.29,1.71l5.15-5.93.37,8.13c.24,5.16-4.42,8.27-8.14,12.75l6.4-1.37,9.42-1.3c2.87-.4,5.12.39,8.28,1.89l8.4-6.32,8.99-7.26,6.04-1.1c1.39-.25,3.6-2.95,4.62-4.08l8.53-9.56,36.06-23.73c3.81-2.79,6.9-5.53,11.98-7.14l-17.9,15.14-26.03,20.03c-7.52,5.79-8.12,13.73-13.9,16.92-6.48,3.57-11.46,8.24-16.65,13.31-3.69,3.61-5.64,7.14-5.66,12.48-6.09,6.19-6.44,11.92-9.6,15.15-3.15,3.21-6.48,4.97-10.38,6.98l-13.06,6.71-2.09-3.32c-1.34-2.13-3.63,6.49-10.95,11.12l-17.21,10.89-6.36,3.85-6.13-8.41c1.48-.67,4.25-4.2,3.05-5.23-3.03-2.62-7.44-.19-9.43,2.87-3.76-8.32-11.08-5.05-11.58-6.87-.13-.47-.4-2.08-.25-2.74l2.67-12.36c.54-2.48,1.21-4.82,1.39-7.35.31-4.42,2.12-7.39,4.53-11.46Z"/>
          <path class="cls-2" d="M617.05,459c2.77,3.61-3.29,4.56-2.05,7.73,1.33,3.38-.17,5.75-3.11,7.13l-6.87,3.23c-1.36.64-5.01,2.02-6.54,1.53l-13.61-4.33c-8.69-2.77-10.93-8.5-18.07-10.04-8.73-1.88-16.39-5.45-23.72-10.37-4.38-.52-8.58-1.5-12.31-3.89l-2.49-6.53c-1.52-3.98-6.48-7.52-9.89-9.48-5.71,1.49-12.39-.45-17.74-3.71l-7.02-1.82-14.03-10.18c-3.35-2.43-6.82-4.17-11.04-4.78-7.26-1.04-8.69-5.24-13.73-4.36-7.04-5.26-13.53-11.73-21.69-15.17l-10.6-4.48c-6.5-2.75-13.59-3.14-20.67-3.22-6.24-5.24-12.19-11.17-19.64-14.36l-27.33-11.68-35.38-14.55c-3.94-1.62-7.55-2.98-10.94-5.49,18.22,5.19,34.79,11.86,52.48,17.64l25.62,8.37c2.74.89,5.37,1.86,7.74,3.26l11.39,6.75c3.86,2.29,10.01,2.61,14.75,2.98l9.15.71c6.97,3.32,14.22,6.57,20.58,10.82s11.95,9.75,20.32,10.02c1.99.06,6.43-.73,8.31.18l12.21,5.89c5.26,2.54,17.08-2.62,20.42-.26,3.79,2.67,8.82,7.72,12.16,11.49l7.4,1.66c3.69.83,6.02,1.97,9.36-.54,1.41-1.06,3.29-3.18,3.67-4.59s-.79-4.73-1.99-5.79l-9.71-8.56-5.88-6.95c-.57-.67-1.28-2.41-1.24-3.21s2.57-2.1,3.19-1.52l5.64,5.31c3.24,3.05,7.53,5.25,11.48,7.43l8.95,4.95c7.84,4.34,14.18,10.48,15.31,19.89l12.29,7.31c7.36,2.87,12.47,6.98,18.48,11.73,5.65,4.47,11.67,7.66,16.41,13.84Z"/>
          <path class="cls-2" d="M873.91,486.81c-7-2.44-12.48,2.45-27.24,3.25-3.9.21-7.13,2.21-9.22,5.32l-4.7,7.02c-2.04-1.17-5.56-2.53-6.96-1.67l-12.49,7.68-7.85-1.8,8.28,10.01c.79-2.2,1.34-3.94,2.32-4.18s3.22.35,4.04.81c3.64,2.46,5.77,3.2,10.83,5.01l-13.65,1.45-19.08-.61c-7.29-.23-14.39-.86-21.21-3.37-9.37-3.45-16.61-.74-23.05-4.77l-8.08-5.05-9.65-7.62c-.92-.72-1.43-2.92-1.18-3.97l2.06-8.51,8.43-4.44,12.68-4.33,18.44-4.25,17.77-.32,8.54-1.17,9.2-2.7,9.3-.83c1.64,2.24,4.8,4.16,7.77,5.68,8.37,4.28,13.67,6.66,24.81,2.23l14.24,1.36,4.52-.19c7.95,2.61,14.43-1.71,19.78,0,6.1,1.97,11.99,4.91,18.17,4.63,7.72-.34,14.21-6.37,21.67-6.95l20.66-1.6,24.35-3.51,12.71-1.51,11.15-.32-13.39,2.56-29.48,6.45-9.16,1.98c-5.74,1.24-11.52,1.13-16.84,2.95l-7.75,2.65-15.67,7.89c-6.89-1.77-14.37-4.18-21.62-4.18-4.86,0-8.74.52-13.42-1.1Z"/>
          <path class="cls-2" d="M410.1,529.65l-18.67,3.5-12.56,2.48-33.54,8.32-17.05,4.56-.6-.74,16.12-5.52,38.76-12.22,23.02-5.92,25.14-3.87c4.02-.62,7.88-3.34,11.23-5.55l11.57-7.63c2.27-1.49,8.15-2.02,10.95-2.11l11.5-.38c5.41-.18,9.99-3.43,13.83-7.21,7.99,2.7,17.46,4,22.19-1.41,1.74-1.99,4.07-3.57,6.4-3.8l18.49-1.87,10.41-2.51,7.28.84,9.39-1.03,24.61-2.72c2.97-.33,6.92.64,9.9.93,5.75.56,10.48,1.21,15.76,3.87l.49,11.74-12.8,8.55-12.06,5.87-24.66,6.57-9.85,3.63c-5.41-.28-9.67-.17-14.54,1.52l-9.9,3.43-2.96-5.22,4.25-6.13c-.54-3.03-6.57-.27-13.66-4.26-4.3-2.42-8.95-3.32-13.61-1.54l-11.15,4.26c-3.79-3.05-8.26-4.64-13.2-4.53-19.8.43-28.98,5.11-44.82,16.27l-10.12-.74-15.55.56Z"/>
          <path class="cls-2" d="M609.31,576.46c-10.01,2.82-14.35,11.25-20.44,9.66-3.77-.99-7.47-.37-10.53,2.05-11.02,8.7-20.75,18.27-30.12,28.73-4.32,5.05-8.67,9.75-15.1,12.61l19.06-23.46,7.86-10.32c1.98-2.6,4.69-6.76,7.09-8.45l7.36-5.21c1.57-1.11,2.7-4.48,2.8-6.8.12-2.61-2.18-5.97-4.86-6.32l-10.09,11.17c-2.89,3.2-6.69,5.62-11.27,7.26l8.81-9.71,11.31-11.59c.34-1.3,1.02-4.41,1.65-5.48l6-10.06,6.26-6.49,8.16-8.95,5.99-6.99c3.13-3.66,6.83-6.5,11.63-7.67l8.12-1.98,6.61-1.61c3.54-.06,5.95,5.16,8.25,6.34,2.46,1.26,4.75,2.39,6.52,3.99,3.04,2.75,2.69,6.1.97,8.95-.76,1.26-.6,4.37-.59,6.19.03,3.29-.83,6.52-1.35,9.49-.78,4.49-.46,8.62-4.3,12.35-1.92,1.86-4.26,4.91-5.09,7.5l-2.86,8.91c-1.3,4.05-2.28,13.01-6.54,14.87-.94.41-3.13-.26-4.81-.69-2.04.95-4.93,3.96-6.44,6.27l-6.74,10.29c-1.51,4.08-3.68,7.42-6.05,10.96-4.54,6.78-7.37,14.1-13.29,20.19l10.96-25.21,4.62-10.47,4.94-11.81c1.75-4.18,1.43-9.31,4.42-12.96,1.41-1.72,2.14-3.62,1.08-5.51Z"/>
          <path class="cls-2" d="M816.25,622.94c-3.98-3.43-7.81-5.04-11.12-8.68-2.78-3.06-6.36-7.81-9.79-9.71l-11.94-6.62-1.63-8.29c-.9-4.58-3.35-9-7.48-11.17l-6.77-3.56c-7.66-4.03-12.69,3.32-15.29-.53l-3.47-5.15,1.33,4.42.65,2.17c.18.6-1.97-.05-2.38-.53l-7.45-8.62-5.5-5.46-4.76-10.52-6.41-7.07-4.36-7.23c-1.82-3.02-4.16-8.11-4.15-11.14l6.5-7.38,8.77-5.49,11.42,3.84,8.63.95,8.2,3.87c6.4,3.02,13.59,4.48,17.52,10.9l2.69,4.4,7.03,5.57,13.12,16.48-6.16,7.03,1.88,3.65-8.23,4.05c-1.09.54-2.79,2.68-2.78,3.84s.85,3.57,1.46,4.59l7.24,12.26,8.89,8.66,10.31,10.87,8.76,7.34,7.49,9.24,14.89,12.68-.79.84-14.35-10.18-11.96-10.31Z"/>
          <path class="cls-2" d="M664.49,650.2c-.7-4.5-6.08-13.19-10.14-18.17l1.91-5.67c-1.45-.14-5.34-1.19-5.5-2.58-.23-1.94.48-5.03.95-6.87l-1.3-4.64c-1.29-4.63-1.27-8.95-4.18-13.07-3.31,1.34-4.95,3.43-6.4,6.36l-4.23,8.56.4-13.95c-2.99.08-4.35.93-6.89,3.3-.13-3.36.37-7.07,1.29-10l.4-3.97,4.73-11.64c1.4-3.44.72-7.6,2.69-10.65l6.66-10.33c2.32-3.59,3.2-8.44,6.35-11.74l6.92-7.26,8.25,1.57,4.98,1.3,3.77-.15,3.06,18.01,3.74,7.12c3.31,6.31-1.41,9.92.6,14.3,1.98,4.32,2.24,8.49,3.36,13.13l2.44,10.16c1.02,4.23,2.48,6.47,2.59,11.45l-4.96-4.12c-.78-.65-4.03-1.87-4.54-1.01-3.74,6.37.27,13.44-3.85,15.74-2.41,1.35-5.64,4.28-5.89,6.57l-1.6,14.36-3.35,18.5-2.26-14.61Z"/>
          <path class="cls-2" d="M724.49,624.34c.84-3.36,1.17-8.63-.98-11.08l-11.36-12.96c-.54-.61-1.63-1.5-2.26-1.73-.79-.29-2.87.84-2.85,1.68l.11,4.21c-1.6-2.71-6.51-3.82-8.13-1.91-2.64,3.13,4.17,8.1.9,14.3l-2.81-7.64-3.1-11.82c.97-4.34,1.36-7.64-.13-11.54l-5.33-13.97c-1.43-3.74-1.3-7.39-.02-11.4,2.12-6.64-1.96-10.93,1.75-15.41l.73-6c1.75-3.26,6.39-4.01,9.77-3.4l4.83-2.48c5.12,3.5,8.85,7.72,11.73,13.19,13.95,8.92,14.55,20.7,17.51,24.27l8.21,9.91-5.16,10.23c-1.19,2.35-2.52,3.86-1.55,6.48,1.37,3.69,1.28,6.86-1.01,10.03-3.5,4.85.71,13.43,5.98,19,3.66,3.87,1.79,7.13,4.11,11.72,3.29,6.52,6.34,12.14,8.08,19.27l-11.15-17.27c-1.82-2.82-4.19-7.83-7-9.44l-10.86-6.26Z"/>
          <path class="cls-2" d="M415.57,627.75l-15.85,7.33c6.12-5.45,13.19-9.64,20.54-14.21l21.01-15.05c10.29-3.66,19.73-8.84,28.72-15.14l11.85-8.31,10.71-8.19c2.02-1.54,5.02-4.15,7.26-4.61l11.41-2.35c3.77-.78,8.5-6.36,9.91-9.83.72-1.79,1.54-4.14,2.42-4.89l7.64-6.54c2.74-2.35,3.08-6.02,4.8-9.6,1.46-3.05,8.77-5.3,12.2-5.27,3.82.04,6.76-.19,9.87-1.17l11.53-3.61,23.12-4.57-4.27,6.57-6.05,7.84-10.28,10.82-7.76,10.25-8.22,8.62c-3.39,3.55-7.24,5.85-12.43,3.76l2.71-3.47-12.33,5.99-14.05,2.52-15.29,8.87-8.9,5-15.4,10.79c-2.14,1.5-4.96,2.56-7.63,3.35-11.74,3.49-22.86,7.64-33.66,13.12l-23.6,11.99Z"/>
          <path class="cls-2" d="M576.25,474.57c5.36,3.61,10.42.81,14.11,5.83l-16.99,1.46c-3.93.34-7.56,3.27-15.68,3.74l-9.95.58-12.25.6-18.95.66c-2.56-5.09-6.35-7.78-11.47-9.62-10.77-3.86-14.64,4.27-18.81-2.33l-13.19-3.32-23.2-5.1-11.2-4.68c-6.49-2.71-13.09-3.47-20.08-4.05l-15.14-1.26-18.31-2.89-25.41-3.93-9.09-1.14-11.12-1.35c4.91-.74,9.83,0,15.08.25l16.18.77,21.45,2.67c11.86,1.48,23.53,1.53,35.09-.37l12.89,4.66,13.6,5.08,9.53,2.23,25.47,4.81c3.75.71,7.07-.61,10.98-1.33l6.9-1.27c2.55-.47,4.98-.65,7.26.44,6.66,3.17,13.47-.84,15.97-8.75l12.5,4.97,11.2,3.99,13.05,4.08c3.5,1.09,6.47,2.5,9.57,4.58Z"/>
          <path class="cls-2" d="M941.84,618.52l-17.91-10.03-14.65-8.28-21.06-10.04-9.5-1.37c-1.07-.15-2.48-1.89-3.49-3.17-2.38-3.01-7.41-4.34-11.15-6.17l-9.45-4.62c-5.55-2.71-11.05-5.42-17.33-5.73l-10.8-.54-13.8-9.69c-3.99-2.8-7.92-.79-11.3-5.8-5.34-7.92-10.35-8.56-12.09-14.98l-8.2-8.53-6.71-7.59,10.98,2.63,10.03,1.4c4.06.57,6.99,1.31,11.3.34,1.98-.45,5.84.53,8.05,1.42,2.91,14.73,11.04,17.95,24.08,23.96l6.57-.73,6.66,9.63c5.97,8.62,16.65,12.71,26.4,15.3l7.19,5.8,12.38,4.63,10.44,3.54c5.02,5.35,10.24,9.66,16.22,13.82l33.69,23.49-16.56-8.68Z"/>
          <path class="cls-2" d="M756.7,341.2l-11.04,6.68c-.39.24-1.79.58-1.67.15l.68-2.5,4.47-10.32,8.98-23.25,4.35-11.67,8.45-7.08,17.79-13.48,6.64-4.18,13.6-14.37,20.46-23.5,9.76-11.28,15.4-22.51,10.19-13.77c3.94-5.33,7.39-10.31,12.86-14.69l-12.63,19.89-12.27,21.66c-1.81,3.19-3.13,7.79-5.39,10.49l-18.28,21.83-6.08,8.94-14.47,24.61c-1.7.87-4.89,1.1-7.19,1.04l-.34-5.49-5.29,6.3-14.82,14.37c-2.76,2.68-5.07,7-5.67,10.67l-3.13,19.12c-.58,3.56-3.46,8.19-6.91,9.08-3.14.81-5.72,1.58-8.45,3.23Z"/>
          <path class="cls-2" d="M736.07,350.19l-5.67,7.19c-5.77,8.36-11.11,15.86-19.09,22.69-.93-7.27-.52-12.9.18-19.34l1.02-9.32c1.36-1.24,1.93-1.16,1.29.54-.14,1.27.8,3.92,1.98,4.07,3.23.42,8.11-.43,11.22-1.81l9.07-4.02Z"/>
          <path class="cls-2" d="M510.84,349.55l.61,9.81c.16,2.65,5.22,5.42,7.11,8.05-3.38-.93-6.76-3.85-10.1-4.69l-15.98-4.02,7.17.37,8.98,1.09.81-12.33-4.62-5.96,11.7,6.53,13.23,6.95,6.54,5.11,10.99,9.19-1.72,1.08-11.12-8.21-17.7-11.45c-.95-.62-3.36-1.11-5.89-1.53Z"/>
          <path class="cls-2" d="M451.97,234.27c-.44,2.38-4.49,3.01-6.36,1.37l-14.97-13.13-16.32-17.25c8.48,5.21,14.74,11.46,22.28,17.24l15.37,11.77Z"/>
          <path class="cls-2" d="M863.29,441.97l6.51-3.19c.72.87,3.2,2.69,4.43,2.67l12.16-.2c2.23-.04,5.92-2.35,8.04-3.7,2.68-1.7,5.56-2.04,8.72-2.25l9.18-.64c11.72-.81,21.73-8.54,31.94-8.15l-11.35,3.64c-8.48,2.72-16.61,5.86-25.72,6.13-5.05.15-9.37,1.72-13.71,4.49-1.99,1.27-4.72,1.57-7.18,1.77l-7.36.58c-2.79.22-5.48.03-8.16-1.6l-7.5.44Z"/>
          <path class="cls-2" d="M733.41,309c-.83.82-1.84,1.8-1.16,1.14l2.42-11.55,2.16-12.97,3.84-12.16.83.65-2.91,10.27-2.22,14.34c-.27,1.73,1.78,5.58,2.71,6.2-2.05,1.13-3.74,2.3-5.67,4.08Z"/>
          <path class="cls-2" d="M899.62,538.53l-10.07-2.56c-3.8-.97-7.3-2.4-10.16-4.65l14.44,4.42,6.41,1.96-.62.83Z"/>
          <path class="cls-2" d="M813,461.64c-3.42,3.63-7.44,5.06-12.18,4.86,3.29-3.29,6.99-6.06,12.18-4.86Z"/>
          <path class="cls-2" d="M847.88,446.74l-10.57,2.4,13.85-4.78c1.05-.36,3.88.19,5.19.46l-8.46,1.92Z"/>
          <path class="cls-2" d="M819.29,457.5c1.53-2.29,3.31-3.12,5.89-4.47l7.18-1.51-13.07,5.99Z"/>
        </g>
        <g>
          <path class="cls-1" d="M491.14,664.82l10.97,15.37-46.66,160.56-10.35,12.38,62.78.25,18.19-63.63-11.68-2.78-3.06-.39.52-1.19,2.68.49,50.2-2.27,34.33-1.38,32.4-25.1,21.2-70.94-17.76-21.23-143.75-.13ZM590.58,706.57l-12,40.34-23.48.72c-6.6,1.51-12.33,4.18-19.01,7.62l14.41-48.68-15.77-4.58,66.04.63-10.19,3.95Z"/>
          <path class="cls-1" d="M694.87,665.08l9.7,12.44-56.34,96.33-15.71,4.61-2.4.82v1.27s2.89.1,2.89.1l30.76-.7-23.89,9.42-39.54,63.94,59.89.02,19.92-35.89-13.78-3.42c-1.78-.23-1.81-.56.26-.78l73.63-.06-.32,22.51-.62,17.6h65.36c-3.39-7.37-9.47-13.01-16.83-16.51l-2.04-1.65,1.31.07,1.76.36,7.5,2.64.36-173.45-101.87.3ZM741.55,707.34l-.78,70.16-27.49.15-13.47,3.55,40.03-72.66-16.59-5.5,34.55.49-16.26,3.82Z"/>
          <path class="cls-1" d="M417.66,847.69c-2.18,5.76-3.59,5.81-6.88,5.66l-56.36,1,8.75-8.88,25.08-87.03-71.63,84.53-19.29-88.14-26.72,89.27-11.91-.61c8.24,3.61,13.61,8.61,17.35,16.16l-81.02,18.23,17.27-22.85,52.34-173.79,8.51.78-9.14-3.11-9.77-15.38,76.42.11,15.71,82.12,53.05-64.62,9.1-.18c-2.92-1.37-5.34-2.73-7.34-4.84l-11.46-11.52,80.5.07-9.38,31.66-13.06,1.55,11.78,2.74-22.07,74.88-18.43,64.11c-3.98,2.2-8.71,3.06-12.62,3.13l6.03,6.4,1.21-3.61,4,2.14Z"/>
          <path class="cls-1" d="M928.85,790.92l29.95-3.24c11.99-4.65,22.06-10.56,33.77-17.8l-19.35,71.69,9.19,13.55-145.15-1.74-24.68-27.21,35.26-140.29,20.36-16.62,4.91,2.02,2.93-2.7-3.27-.63-1.32-1.25,2.57-2.79,134.7-7.3-11.98,47.17c-17.83,14.71-36.12,27.22-57.12,38.56l10.32-41.51-67.62,3.1,16.66,3.07-26.23,104.25-8.77,3.56,58.81.03,6.06-23.94Z"/>
          <path class="cls-1" d="M172.96,877.85c-37.92,14.5-73.37,31.35-110.32,49.84l34.26-45.92,65.37-228.25-38.15-21.02,111.42-16.71-20.84,72.43-47.29,163.86-13.06-1.25c8.62,5.77,15.22,11.4,21.5,19.04l-2.87,7.97Z"/>
          <path class="cls-1" d="M1155.08,912.53l-40.65-19.72c-28.79-13.74-57.33-24.73-88.74-34.11l10.68-9.1,13.68-53.9,24.55-98.3-36.87,4.25-35.26,26.48c2.98-7.26,8.62-12.14,14.03-17.75l14.49-55.17c77.8-7.49,154.84-20.15,230.02-39.39l-24.23,18.97c-22.24,17.36-42.57,36.01-61.45,56.83l-1.59-7.92-60.06,8.51,23.07,2.05-31.85,127.68-9.65,35.58c3.02-1.78,3.41-4.43,5.03-9.34l55.88,63.48.76.85-1.12.95-.72-.92Z"/>
        </g>
      </g>
    </g>
  </g>
</svg>