<?xml version="1.0" encoding="UTF-8"?>
<svg id="Calque_2" data-name="Calque 2" xmlns="http://www.w3.org/2000/svg" viewBox="0 0 405.1 289.73">
  <defs>
    <style>
      .cls-1 {
        fill: #0b2a46;
      }

      .cls-2 {
        fill: #c69127;
      }
    </style>
  </defs>
  <g id="Calque_1-2" data-name="Calque 1">
    <g>
      <g>
        <path class="cls-1" d="M287.63,100.91c-1.39,1.82-3.49,2.17-4.83,1.75-2.02-.92-2.41-3.39-1.49-5.57.17-1.16.59-2.1,1.28-2.87l2.77,1.95c3.74-3.52,5.97-8.02,8.97-12.37-.33-4.43.34-8.35-1.24-13.27-3.78,6.46-6.26,11.84-12.39,14.9-1.75,7.39-5.34,13.47-10.6,18.4-2.29,2.01-5.1,2.66-7.97,1.66-1.99-1.08-3.34-3.66-4.26-6.88.26-11.29,5.69-22.14,13.58-30.18,3.23-2.18,6.77-1.92,9.06,1.19,2.36,2.75,1.71,6.45,1.5,10.52,4.71-3.26,5.89-8.23,8.7-12.63,1.41-3.13,4.73-4.75,7.6-2.83,2.02,2.74,1.53,5.79,2.11,9.62l8.22-11.87c1.11-1.05,2.66-1.48,3.77-1.25,1.26.56,2.02,1.94,1.74,3.7.05,1.44-.32,2.47-1.09,3.52-.78.55-2.29.52-3.89-.38l-8.36,12.83c.14,4.55-.46,9.06,2.08,13.16,4.82-2.72,6.53-7.19,9.26-11.18l7.68-20.27c.71-2.04,2.77-2.6,4.3-2.02,1.7.71,2.4,2.78,1.2,4.61l-7.2,20.87c-.8,2.22-.37,4.38,1.82,5.04,5.84-5.59,9.53-12.2,11.7-19.75l4.45-12.84c1.82-.48,3.21-.68,4.51-.52l.88,4.45c2.55-3.93,6.19-7.4,11.11-5.96,3.01,4.36,1.37,9.63-.76,14.26-1.96,5.65-5.87,10.78-4.12,17.39,6.01-3.72,8.02-9.85,9.91-15.77,2.7-7.2,6.19-13.95,12.17-18.64,1.85-1.21,3.65-1.93,5.71-1.76,1.6.22,2.96,1.54,4.22,3.22.84-1.97,1.36-2.94,2.37-3.71,1.32-.23,2.83.06,4.81,1.62l-17.11,46.48-10.95,25.1c-3.85,6.99-8.76,13.34-15.59,17.19-5.54,2.67-11.91,2.36-14.84-3.29-1.66-6.86,2.17-14.08,8.48-16.8l2.53.45c.25.08.92.52.53,1.63-3.56,3.23-5.98,7.87-4.46,12.63,3.61,1.52,6.57-.64,9.08-3.13,5.55-6.25,9.53-13.46,12.73-21.54l-147.43,23.75-73.59,14.42-46.7,12.33,2.64-11.05c36.23-9.1,71.99-15.4,108.7-21.6,5.37,4.73,11.76,4.41,16.41-.53,1.83-2.2,3.88-3.65,7.15-3.92l136.09-20.57,6.28-15.07c-3.02,2.06-4.7,3.63-7.03,3.06-2.54-.94-3.56-3.49-3.98-7.17-2.73,2.82-3.92,5.99-7.18,8.04-1.41,1.12-3.12,1.52-4.76,1.15-1.51-.44-2.89-1.98-3.33-4.14-.55-4.71.84-9.14,2.63-13.51,1.75-4.41,4.04-8.13,4.44-13.67-4.39,1.02-5.9,4.3-7.82,7.39-4.49,7.58-7.25,15.58-9.86,24.06-1.67,1.4-3.58,1.69-5.75,1.21.59-1.64,1.29-2.58.5-4.54-1.92,2.39-3.81,4.84-6.75,6.33-2.16.56-4.02-.06-4.99-1.23-1.17-1.53-.95-3.39-1.55-6.08-3.18,4.15-5.52,8.36-10.81,10.14-4.34-.78-5.65-4.99-5.38-10.28l-7.64,10.64ZM366.55,83.65c5.34-6.86,8.63-14.6,10.5-22.66-.26-1.6-.6-2.76-1.43-3.57-1.29-.15-2.38.58-3.52,1.59-5.45,6.44-8.86,14.36-10.15,22.82.04,1.62.6,2.78,1.67,3.4.77-.19,1.62-.7,2.93-1.58ZM276.17,81.06c1.83-3.5,2.37-6.29.94-9.45-2.79.32-3.84,2.69-3.95,4.85-.15,1.95.58,3.85,3.01,4.61ZM269.39,98.16c2.94-3.87,5.05-8.04,5.81-12.72-3.2-1.27-4.27-3.47-5.6-5.94-3.81,5.61-5.16,11.21-5.58,17.25.52,1.6,1.44,2.59,2.59,3.04.93-.18,1.87-.72,2.78-1.63Z"/>
        <path class="cls-1" d="M57.58,102.38l-.37,5.94c2.4-3.8,4.46-6.85,8.38-8.91,1.77-.6,3.53-.22,4.65.87,1.17,1.06,1.22,2.53,2.12,5.22,1.84-3.22,3.38-5.83,6.44-7.87,1.75-.85,3.57-1,5.25-.19,1.04.81,1.83,2.54,2.05,4.61.14,6.18-2.41,11.64-4.45,17.42-1.23,3.82-3.27,7.6-1.52,12.03,5.14-2.52,6.9-7.63,9.62-12.11l9.04-24.64c1.44-.88,2.7-1.16,4.1-1.47,1.3-.15,2.16,1.33,2.73,2.78,2.48-3.45,5.38-5.33,9.17-4.83,3.05,1.23,4.43,4.37,3.98,7.68.49,8.84-3.34,16-6.96,24.37,6.69-4.55,9.71-11.49,12.15-18.6,2.6-6.15,5.49-12.01,10.6-16.22,1.88-1.16,3.83-2.07,5.66-2.04,1.85.68,2.98,2.04,4.67,3.68.12-2.39.98-3.91,2.67-3.77,1.82-.11,3.85.97,3.27,3.28l-6.26,18.87c-.87,3.42-2.44,6.67-.57,10.64,5.25-3.82,7.72-9.17,9.65-14.78,1.79-8.14,5.56-15.63,11.69-21.09,2.98-2.49,6.82-2.93,9.69-.13,1.56,4.53.86,9.7-2.26,13.41-.75.77-1.59.9-1.94.9-1.24.04-2-1.09-1.85-2.54.92-2.76,2.82-4.85,3.15-8.4-3.75-.02-5.61,3.2-7.47,6.03-2.85,5.78-4.79,11.83-5,18.38.21,2.13.95,3.76,2.38,4.66,1.68.65,3.71.12,5.76-1,5.69-4.6,9.34-11.27,11.69-18.29l5.39-16.9-6.51.59c-.09-2.24.68-3.71,1.6-4.76,1.73-.75,3.74-1.02,6.24-1.15l5.79-14c1.72-2.06,4.22-3.2,6.22-1.17l-5,13.41,8.67-1.22c.76,3.22-1.11,5.85-4.39,6.17-2.27.28-4.39.5-6.37,1.78l-7.09,23.83c-.7,3.37-1.57,7.37.8,9.97,6.34-1.67,6.89-8,11.53-12.25-.06,8.18-6.07,15.13-12.64,18.92-4.74-.38-6.62-3.91-6.68-9.33-4.03,4.32-6.88,8.82-12.03,11.51-2.72,1.16-5.64,1.39-8.14.03-2.15-1.27-3.09-3.52-3.99-7.37-2.29,4.46-4.73,7.8-8.7,10.64-1.71.83-3.55.93-4.97.3-1.65-.99-2.12-3.01-2.54-5.72-3.03,3.53-4.95,7.74-9.87,9.28-4.43-.04-6.14-4.48-5.89-9.52-6.09,6.92-12.18,12.81-21.02,15.12-2.06-.3-3.51-1.56-5.44-4.01l-9,31.44c-2.17-.91-3.56-2.1-4.92-3.29l7.01-27.05-6.64,6.09c-1.74,1.24-3.81,1.5-5.67.7-1.6-.87-3.02-2.88-2.89-5.45-.27-5.52,1.59-10.39,3.37-15.52,1.4-4.13,4.31-7.91,3.1-13.01-8.48,10.25-12.83,22.47-16.5,34.85-.19,1.61-1.34,2.52-2.49,2.91-1.35.75-3.06,1.07-4.36-.82l4.53-16.61c1.81-5.61,4.36-10.68,4.23-17.54-5.31,3.26-7.23,8.76-10.17,13.74l-7.82,25c-2.23,1.59-4.24,3.11-7.56,3l12.6-44.74c1.63-1.27,3.46-1.91,6.31-1.75ZM131.69,118.89c5.62-7.22,8.96-15.22,10.34-23.82-.27-1.41-.63-2.49-1.45-3.12-1.03.11-1.97.61-3.12,1.39-6.1,7.45-9.92,16.63-9.94,26.76,1.45.98,2.92.18,4.17-1.21ZM102.77,124.91c4.89-7.5,8.62-15.26,9.47-23.91-.08-1.52-.67-2.59-1.72-2.9-.88-.02-1.86.49-2.84,1.43-5.88,6.81-9.8,15.22-11.09,24.05.75,1.97,1.58,3.21,2.99,3.43.95-.2,2.01-.8,3.19-2.1Z"/>
        <path class="cls-1" d="M234.7,65.98c2.84-6.02,5.9-12.01,12.7-13.31-4.02,7.26-7.36,13.2-9.02,20.53-1.88,3.2-3.38,6.51-3.8,10.26l-8.24,21.42c3.8,3.15,7.54,3.67,11.6,1.95,6.73-3.94,11.61-10.87,12.01-18.68-.22-2.45-1.19-4.5-2.22-5.49-2.08-1.52-4.14-1.56-6.69-.98-1.58.54-3.14.7-4.48-.73-.29-.58.39-2.17,1-4.51,10.42-1.45,18.11-9.47,17.94-20.59-1.62-4.39-5.63-6.63-10.51-6.32-11.87.65-22.69,8.31-27.17,19.18-.26,2.22-.22,3.79.6,5.33.95.91,2.67,1.45,5.31.66.36,3-2.46,5.1-5.17,5.26-3,.25-5.78-1.43-6.91-4.46-1.4-5.6.07-10.96,3.6-15.54,7.97-9.91,19.96-15.89,32.66-16.01,9.14.6,15.08,7.54,13.4,16.38-1.31,6.92-5.38,12.54-12.04,16.83,5.13,3.02,7.42,7.81,6.83,13.9-.89,8.8-6.51,16.17-13.81,21.01-5.81,4.42-13.25,3.41-17.9-2.35-3.35,5.29-6.49,9.84-11.21,13.2-3.15,1.49-6.28,2.13-9.68,1.2-2.26-1.08-4.75-3.43-5.9-6.68-1.23-7.61,3.23-15.04,10.64-17.16,1.54-.13,2.73-.1,3.81.25.9.97,1.35,2.48.89,4.14-4.14-.17-6.76,1.89-7.88,4.83-1.72,3.51-1.77,7.78,1.99,10.06,6.07-2.19,9.23-7.76,12-12.72l-2.41-.92c-.76-.37-.85-1.53.03-1.88l3.18,1.13,14.83-39.17Z"/>
        <path class="cls-1" d="M8.03,166.49c3.94,1.94,7.34-.41,9.13-3.6,3.71-6.76,5.52-13.84,7.71-21.37l20.69-66.45c-7.35,1.52-13.67,3.82-18.52,8.63-2.69,3.05-3.96,6.52-1.59,10.3-2,2.07-4.16,1.63-6.27-.4-2.51-3.72-1.65-8.78,1.33-12.33,3.97-4.46,8.98-7.47,14.78-9.06l14.59-4.4c-1.08-2.01-2.33-3.93-1.48-5.88.73-1.23,2.12-2.83,4.4-2.61.91,1.67,1.1,3.33,1.4,5.58,1.74-.92,3.23-1.11,4.53-.18,1.15,1.04,1.3,3.03-.25,4.57l-5.73,4.4-18.31,61.49-8.84,25.2c-2.74,5.53-6.68,10.44-12.6,12.12-6.23,1.95-11.65-1.36-12.89-7.74-.69-7.49,2.21-15.22,8.52-19.16,1.46-.37,2.58-.41,3.48-.2.77.77,1.26,1.83.7,3.23-5.72,3.74-8.55,11.36-4.76,17.85ZM34.61,75.89c.87-.59,1.35-1.18,1.43-1.95-3.57-.16-7.35.99-8.06,4.99,2.23-1.34,3.77-2.39,6.63-3.04Z"/>
        <path class="cls-1" d="M51.52,182.26c-4.68-1.72-8.55-2.33-12.69-.77l-16.79,6.68c2.05-6.41,6.83-10.09,11.57-13.85,13.29-8.9,27.8-14.62,43.39-18.83-.26,4.18,1.07,6.66,4.35,9.17-11.12,3.91-21.48,8.09-29.83,17.61Z"/>
        <path class="cls-1" d="M369.98,103.44l20.04-3.56c5.88-1.79,10.48-6.46,10.11-12.71-1.59-3.44-5.4-4.29-8.92-3.28-4.72,1.91-7.43,5.82-9.99,10.57-3.68-2.95-3.28-7.86-.03-10.49,5.19-4.79,12.27-6.29,18.89-3.98,4.64,2.44,5.93,7.5,4.44,12.58-2.26,6.51-7.94,10.76-14.42,13.36l-22.76,4.64,2.64-7.14Z"/>
      </g>
      <path class="cls-2" d="M277.95,287.47c-2.64,2.77-7.17,3.02-9.76.28-.9-3.99-.79-7.71.02-11.67,2.79-2.26,6.83-2.17,9.37.4.81,3.48.56,6.66.36,10.99ZM274.8,277.59h-4.02s.02,9.04.02,9.04h4.02s-.02-9.04-.02-9.04Z"/>
      <path class="cls-2" d="M242.7,281.45c.85,3.02.46,5.62-1.45,7.01-1.86.79-4.66,1.51-6.68.5-2.15-1.47-2.67-4.14-1.94-7.06-.52-2.38-.29-4.72.87-6.11,1.97-1.45,4.37-1.67,6.89-.82,1.72.72,3.37,3.02,2.3,6.5ZM240.02,277.46l-4.56.03.06,9.22,4.56-.03-.06-9.22Z"/>
      <g>
        <path class="cls-1" d="M71.56,238.81l-16.54-.06-.31,13.62-16.69-.02.09-13.6,16.47-.38.29-13.13,16.68-.29.2,12.92.95.79,16.5-.17v-13.54s16.82.01,16.82.01l.13,13.3,17.25.39.22-13.48,16.88-.13.53,13.19,17.01.63.06-13.9h16.74s.18,13.35.18,13.35c-.09.48.51.66.67.25l16.57-.35.19-13.28h16.73s-.06,13.41-.06,13.41l.56.38,17.01-.31.12-13.38,16.89.03.27,13.29,17.19.44v-13.86s16.73.02,16.73.02l.15,13.39c.2.07.38.16.58.39l16.47-.5.09-13.24,16.82-.02.16,13.41c.16.04.3.08.46.33l16.59.22.09-13.96,16.85.23.05,12.99,17.36.25v-13.38s17-.1,17-.1l.05,13.5-17.32.28-.16,13.36-16.56.29-.26-13.8-17.2.23v13.6s-16.61.05-16.61.05l-.24-13.01-.72-.65-16.4-.06v13.56s-16.63.09-16.63.09l-.35-12.93-.59-.69-16.49.14-.39,13.2-16.51.21-.06-13.61h-17.16s-.37,13.72-.37,13.72h-16.97s-.04-12.84-.04-12.84l-1.08-1-16.18.17-.26,13.4-16.78.1-.11-12.83-.63-.69-16.54.07-.38,13.54-16.75-.02-.11-13.21-17.5-.34-.18,13.58-16.64.03-.19-13.66-17.33.14-.49,13.53-16.39-.06.05-12.89-.53-.65Z"/>
        <path class="cls-1" d="M304.35,210.61c.76-2.87,1.42-5.51.28-7.99l-3.4,6.28c-2.31-1.21-2.46-3.56-3.51-6.5-1.87,2.03-1.3,4.93.11,7.41-1.48,1.61-4.12,1.55-5.6.61,1.48-5.59,1.24-10.37.21-15.94.84-.76,2.76-.78,4.32-.19l4.3,8.36,3.76-8.04c1.48-.86,3.36-.87,4.52-.07-1.27,5.91-1.23,10.84-.17,16.23-1.6.26-2.51.41-4.83-.14Z"/>
        <path class="cls-1" d="M189.98,210.7c-1.52.4-3.02.36-4.38-.14l-4.23-8.31c-1.32,3.52-.37,5.58.52,8.57l-5.5-.02c1.65-5.82,1.58-11.08-.04-16.57,1.99-.64,4.09-.5,5.45.87l4.02,8.18c1.19-3.58.39-6.06-.42-9.03,1.95-.35,3.46-.36,5.36-.02-1.75,5.53-1.17,10.78-.78,16.47Z"/>
        <path class="cls-1" d="M340.82,210.49c-.51-2.5-.68-4.64-2.78-6.42-1.72,2.36-.99,4.18-.04,6.71l-5.54-.03c2-5.17,1.69-10.27.45-16.43,3.27-.52,6.92-.65,10.64.2,2.42,2.8,2.26,6.89-.25,9.82,0,2.24,1.14,3.97,2.68,6.09-1.36.73-2.9.88-5.16.07ZM341.65,199.05c0-1.37-1.11-2.48-2.48-2.48s-2.48,1.11-2.48,2.48,1.11,2.48,2.48,2.48,2.48-1.11,2.48-2.48Z"/>
        <path class="cls-1" d="M270.57,207.5l-.54-2.05c-.45-.94-1.64-1.48-2.86-.46-.26,2.12.21,3.72.97,5.79l-5.69-.03c1.72-5.66,1.88-10.82-.06-16.29,3.96-.77,7.41-.69,11.14.09,2.69,2.93,2.25,7.18-.28,10.07.64,2.44,1.53,3.99,2.7,6-1.56.48-2.72.44-4.19.21-.58-.56-1.14-1.79-1.19-3.31ZM271.85,199.12c0-1.4-1.13-2.53-2.53-2.53s-2.53,1.13-2.53,2.53,1.13,2.53,2.53,2.53,2.53-1.13,2.53-2.53Z"/>
        <path class="cls-1" d="M251.34,194.62c2.19-.88,3.54-.8,5.53-.31-1.8,4.66-1.1,9.2-1.03,14.47-2.83,3.16-8.77,3.21-11.78.29.04-5.49.59-10.13-1.06-14.68,2.12-.48,3.23-.5,5.19-.23-.74,4.64-.98,8.89-.3,13.58,1.74.42,2.75.27,3.71.24.75-.54,1.09-1.79.55-3.05.3-3.63.64-6.62-.82-10.32Z"/>
        <path class="cls-1" d="M101.7,210.9l-.55-3.35c-.52-.87-1.59-.98-2.55-.76-1.11-.08-2.32,1.31-1.51,3.32-1.36,1.37-3.8,1.13-5.05.22l4.71-15.31c.83-1.33,3.2-1.49,5.01-.59l5.02,16.32-5.08.15ZM99.16,204.31c1.8-1.86,1.29-3.72-.03-4.85-1.65,1.37-1.58,3.64.03,4.85Z"/>
        <path class="cls-1" d="M205.13,204.24c-2.5-.99-3.42-.17-4.04.15l-.05,3.02c.85.9,2.44.95,3.85.32l2.7-.76c.49.73.65,1.7.42,3.59l-11.68.25c1.73-5.78,1.68-11.05.09-16.67l11.17-.14c.44,1.35.48,2.08.43,3.33-.44.73-2.06.77-3.14-.29l-3.24-.23c-.57.66-.8,1.86-.56,3.55.48.58,1.96.89,3.5-.22,1.42.62,1.56,2.71.55,4.08Z"/>
        <path class="cls-1" d="M235.45,210.27c-2.84.96-5.83.99-8.59,0-.82-.75-1.2-1.38-1.38-2.03-.32-1.06.28-2,1.34-2,.93-.37,2.05.14,2.65,1.28,1.28.59,2.28.54,3.13.45.97-.54,1.19-1.65.86-2.57-.49-.82-1.46-1.29-2.7-1.24-2.12-.52-3.75-1.51-4.71-2.72-.92-1.76-.96-3.71,0-5.68,2.76-2.38,6.71-2.45,9.82-.72.67.95.93,1.69,1.09,2.38-.07.88-.77,1.36-1.41,1.37-.86,0-1.61-.3-2.34-1-.82-.71-1.65-.93-2.52-.82-.54.16-1.28.6-1.58,1.49-.13,1,.55,2.12,2.09,2.41,2.53.16,4.67,1.25,5.41,3.05.78,2.22.63,4.56-1.18,6.38Z"/>
        <path class="cls-1" d="M133.51,210.24c-2.95,1.02-5.91,1.14-8.72.1-.78-.8-1.18-1.45-1.41-2.09-.47-1.06.35-2.06,1.42-2.04.91-.31,2.02.18,2.66,1.29,1.19.55,2.06.56,3.12.43.66-.46.96-1.37.67-2.49-.26-.54-1.01-1.26-2.23-1.43-2.23-.25-3.97-1.23-4.97-2.56-1.24-1.93-1.25-4.34.35-6.34,2.76-1.53,6-1.51,8.92-.44.88.6,1.23,1.25,1.29,1.96.41,1.02-.08,1.96-1.18,1.96-.93.07-1.91-.37-2.69-1.27-1.16-.49-2.11-.51-3.05-.38-.85.31-1.38,1.37-.71,2.42.35.5,1.08,1.13,2.28,1.55,2.43.2,4.75,1.18,5.4,2.84.51,2.37.55,4.72-1.14,6.5Z"/>
        <path class="cls-1" d="M323.59,203.99c-1.96-.65-2.92.03-3.5.41l-.02,3.04c.84.85,2.41.88,3.81.27,1.04-.36,1.83-.57,2.61-.47.38.59.59,1.51.43,3.32l-11.54.32c1.82-5.89,1.7-11.13-.07-16.84l11.32-.02.2,3.23c-.43.48-1.71.51-2.91-.16-1.43-.42-2.86-.51-3.78.3-.5,1.48-.46,3.61,1.72,3.6,1.16-.95,2.36-.66,2.73-.11.09,1.2.38,2.19-1,3.11Z"/>
        <path class="cls-1" d="M148.89,204.1c-1.86-.31-2.57.15-3.06.28-.46,1.11-.39,2.16.02,3.04.65.66,1.84.95,3.11.36l2.65-.75c.66.62.9,1.68.57,3.52l-11.24.29c1.34-5.8,1.29-11.06-.04-16.74l10.99-.1c.37,1.35.33,2.19.29,3.41-.62.52-2.03.39-3.2-.39-1.29-.41-2.26-.33-3.11.36-.27.6-.74,1.48-.07,3.02.36.31,1.82.83,3.51-.19,1.23.73,1.35,3.16-.44,3.9Z"/>
        <path class="cls-1" d="M171.04,194.67c-2.16,4.17-4.85,7.61-5.19,12.11l1.1,3.65c-1.25.98-2.79.51-3.44.57-2.02-.08-1.89-2.68-.64-3.99-.46-4.92-2.95-7.93-5.4-12.27,1.64-1.07,3.53-.94,5.14-.42.33,2.35.81,4.3,2.15,5.89l1.17-5.02c.73-1.61,3.25-1.88,5.11-.52Z"/>
        <path class="cls-1" d="M86.26,206.53c.95,1.2,1.06,2.57.57,4.34l-11.41.02c1.79-5.86,1.75-11.12.08-16.68,1.82-.32,3.37-.31,5.25.04-1.06,4.61-.84,8.77-.61,13.65,2.06.22,3.26.27,6.13-1.38Z"/>
      </g>
      <path class="cls-2" d="M171.19,288.39c-3.58,1.85-7.29,1.88-9.52-1.45.18-1.06,1.02-1.61,1.93-1.78l1.89,1.24c.96.39,1.75.42,2.67.04.45-.14,1.05-.94.54-1.64-.53-.55-1.28-.94-2.22-1.3-1.96-.45-3.6-1.48-4.24-2.41-.89-2.04-.61-3.78.58-5.54,3.31-1.95,7.47-1.3,9.27,2.03-1.13,1.47-2.62,1.13-3.71.13-1-.43-1.78-.47-2.36-.36-.9.34-1.35,1.12-.96,2,.42.57,1.15,1.05,2.23,1.26,2.06.15,3.61,1.13,4.26,2.34.74,1.71.92,3.57-.38,5.42Z"/>
      <path class="cls-2" d="M261.08,287.69c-3.4,3.23-7.43,1.76-10.96,1.37-.45-4.47,2.32-6.73,5.66-8.51.65-.38,1.09-.79,1.37-1.2.16-.75-.12-1.5-.93-1.98-.51-.06-1.38-.04-2.26.47-.76.62-1.49.96-2.29,1.09-.59-.24-1.31-.88-1.32-1.81,2.2-3.21,6.72-3.42,9.52-.94,1.57,4.81-1.85,7.08-6.68,9.52l7.9,1.98Z"/>
      <path class="cls-2" d="M224.97,289.4l-9.88-.32c-.81-4.18,1.65-6.67,5.1-8.12.85-.48,1.5-1.02,1.82-1.64.1-.7-.17-1.42-.81-1.97-.58-.38-1.42-.37-2.32.35-1.15,1.23-2.75,1.63-4.05.36,1.2-2.82,3.49-3.62,5.78-3.43,2.3-.05,4.45,1.38,4.67,4.34-.73,3.43-3.81,4.76-6.99,6.66,1.5,1.49,3.28,1.15,4.91.7,1.69-.19,2.86,1.06,1.78,3.07Z"/>
      <path class="cls-2" d="M151.66,283.22c-1.43-.17-2.22.08-2.63.18-.42,1.12-.37,2.07-.03,3,.79.32,1.82.39,3.13.16.94-.13,1.61-.11,2.49.26.22.27.78,1.45-.37,2.48l-9.14-.23c.98-5.08.89-9.23.16-14.22,3.31-.38,6.44-.4,9.53.08.63,1.41.19,2.38-.31,2.68l-3.13-.14c-.89-.05-1.57-.29-1.79-.38-1.1.72-.96,1.83-.82,2.35.12.94,1.27,1.66,2.87.98,2.49-.32,2.38,3.15.05,2.8Z"/>
      <path class="cls-2" d="M186.04,288.81c-1.29.75-2.55.8-3.94.08l.05-11.77-2.65.53c-1.25.18-2-1.24-1.14-2.79l10.86-.21c.53,1.29.33,1.97.08,2.77l-3.59.16c-.71,3.66-.44,7.3.31,11.23Z"/>
      <path class="cls-2" d="M113.6,20.23l-32.17-.16,31.39-2.26c.92.79,1.35,1.38.78,2.42Z"/>
      <path class="cls-2" d="M344.89,19.65c-3.39,2.42-6.9,1.36-10.22.52l-22.56-.51v-1.54s19.92-.27,19.92-.27l12.86,1.8Z"/>
      <path class="cls-1" d="M330.26,50.39c-.1,3.73-2.66,6.09-5.97,5.25-2.34-2.82-1.56-6.96,1.26-9.31,1.35-.63,2.53-.33,3.36.29.74.7,1.54,1.79,1.35,3.77Z"/>
      <rect class="cls-2" x="357.33" y="201.05" width="17.76" height="2.71" transform="translate(-.27 .48) rotate(-.08)"/>
      <path class="cls-2" d="M61.04,203.76l-15-.19-.33-1.78,16.19-.78c.7.56.99,1.03,1.21,1.39-.36.74-.98,1.31-2.07,1.36Z"/>
      <rect class="cls-2" x="115.12" y="280.9" width="16" height="2"/>
      <rect class="cls-2" x="292.12" y="280.9" width="16" height="2"/>
      <circle class="cls-2" cx="196.23" cy="287.8" r="1.82"/>
      <g>
        <path class="cls-1" d="M140.58,25.59l-8.52,1.32c.29-6.09-.28-11.45-3.25-17.35l8.49-1.45c1.38-.23,2.52-.15,3.63.43.83.63,1.65,1.89,1.72,3.59.03,2.44.51,4.54,1.55,6.72,1.22,2.81-.16,6.08-3.62,6.73ZM139.43,14.32c.35-2.03-.95-3.29-2.77-2.85-.34-.36-2.56-.17-2.16,1.37-.16,1.14.24,2.54,1.13,2.96l3.8-1.47ZM137.81,22.59c1.49.07,3.02-.61,2.83-2.18.28-1.1-.46-2.75-2.2-2.11-1.59-.07-2.75.95-2.69,2.13-.46,1.31.4,3.05,2.07,2.16Z"/>
        <path class="cls-1" d="M261.84,3.1c-2.39,5.85-2.77,11.7-1.76,17.23-2.53.27-4.47.27-6.32-1.32,2.3-1.91,2.91-4.53,1.81-6.13-2.38-.43-3.93-.48-5,1.28-.18,1.04-.25,2.75,1.28,5.05-2.46.4-3.99.36-6.68-.08,2.38-5.39,3.12-11.08,2.12-17.41,1.88-.65,3.6.09,5.56.52l-1.58,6.46c1.84,1.01,4.38,1.61,5.55-1.02.04-.79-.05-2.73-1.05-5.36l6.08.78Z"/>
        <path class="cls-1" d="M165.16,19.35c-3,3.82-7.8,4.31-12.05,2.2-1.16-4.65-1.89-9.27-1.91-14.44,3.04-2.68,7.74-3.48,11.44-1.71l2.51,13.94ZM159.95,7.54l-5.39.63,1.32,11.38,5.39-.63-1.32-11.38Z"/>
        <path class="cls-1" d="M276.56,22.78l.54-3.36c-.98-1.07-2.37-1.16-3.6-1.35-1.08.46-1.73,1.87-1.65,3.73-1.67.27-2.84.25-5.16-.4l7.68-16.25c1.84-.44,3.39-.29,5.2.47-.27,6.13.85,11.89,2.34,17.84-1.82.14-3.04,0-5.35-.68Z"/>
        <path class="cls-1" d="M201.03,10.72c-1.27,0-2.25.3-2.97.68l.05,3.02c.86.77,2.38.79,3.83.28,1.23-.46,2.32-.91,3.63-.76l-.04,3.89-12.15.74c1.43-6.06,1.62-11.74-1.12-17.52l12.26-1.06.28,3.33c-.37,1.05-2.4.96-3.51.25-1.76-.19-2.65.12-3.42.82-.59,1.23-.44,2.93,1.03,3.66.97-.68,1.57-.75,1.96-.87,1.12-.64,1.91.52,1.51,1.26.49,1.14.06,2.27-1.34,2.28Z"/>
        <path class="cls-1" d="M172.24,19.71c2.04-2.74,3.27-5.5,4.29-8.87l-5.47-7.65c2.16-.56,3.47-.82,5.47-.78-.09,1.79.21,3.32,1.67,4.33,1.5-1.96,1.14-3.02,1.68-4.59,1.31-.32,2.82-1.01,4.81-.57l-3.96,8.45c1.28,3.05,3.13,5.37,5.86,7.96-.91,1.64-2.44,1.6-4.01,1.64-1.49.26-2.39-2.05-1.92-3.93-1.05-1.12-1.89-.63-2.43.42-.08,1.62-.3,3.18-1.46,4.03-1.25.26-3.08.85-4.53-.42Z"/>
        <path class="cls-1" d="M234.26,17.92c-1.98.35-3.26.28-5.31-.13,1.54-5.01,1.64-9.71,1.27-14.87l-3.73,1.3c-1.41-.37-1.46-2.43-.7-4.16l10.46.76c1.08-.24,2.14-.13,2.81.57.06.81.41,2.15-.42,3.45l-4.16-1.43c-.74,4.77-.98,9.36-.23,14.5Z"/>
        <path class="cls-1" d="M293.96,25.65c-1.7.39-3.38.14-5.65-.64,2.82-5.27,3.97-10.85,3.9-16.95,1.79-.24,3.37-.02,4.99,1.01-1.77,5.31-3.14,9.99-3.24,16.58Z"/>
        <rect class="cls-1" x="291.92" y="3.21" width="2.92" height="2.86" transform="translate(273.89 297.4) rotate(-87.1)"/>
      </g>
      <circle class="cls-1" cx="298.25" cy="5.5" r="1.63"/>
    </g>
  </g>
</svg>