<?xml version="1.0" encoding="UTF-8"?>
<svg id="Calque_2" data-name="Calque 2" xmlns="http://www.w3.org/2000/svg" viewBox="0 0 390.03 431.03">
  <defs>
    <style>
      .cls-1 {
        fill: #0b2a46;
      }

      .cls-2 {
        fill: #c69127;
      }
    </style>
  </defs>
  <g id="Calque_1-2" data-name="Calque 1">
    <g>
      <path class="cls-1" d="M301.35,396.44c-61.17,44.35-141.92,46.02-205.01,5.16-32.23-20.71-57.52-50.56-74.14-85.48C-3.02,261.83-7.15,199.45,11.86,142.66c12.72-40.29,36.21-75.58,68.94-101.99C131.21-.09,199.88-11.3,260.37,11.99c31.3,12.6,57.74,32.8,79.2,58.85,37.44,46.65,54.9,106.22,49.49,165.88-3.5,37.63-15.07,72.96-35.48,104.6-14.17,21.43-31.05,40.09-52.23,55.12ZM310.1,382.16c26.92-22.71,46.33-51.68,59.05-84.29,11.31-29.65,16.05-60.44,15.04-92.34-2.41-48.88-19.6-95.14-50.6-132.74-21.5-25.91-48.41-45.66-80.09-57.07-37.03-13.22-76.1-13.41-113.43-.84-35.92,11.69-66.32,34.85-89.19,64.65C-.15,148.03-8.79,239.8,28.87,316.51c15.98,32.15,39.2,59.94,69.21,79.36,65.83,43.58,152.06,38.24,212.01-13.72Z"/>
      <path class="cls-2" d="M290.51,391.6c-59.5,39.74-135.82,38.69-194.07-2.05-25.05-16.98-44.85-40.34-59.68-66.9C.36,255.1,1.24,174.05,38.23,106.81c12.65-23.04,29.59-43.19,50.33-59.36C132.21,13.33,188.3,2.13,241.88,16.59c36.71,10.87,68.11,33,91.68,63.21,21.56,27.07,35.67,58.61,42.28,92.78,9.99,52.15,1.89,105.83-23.84,152.14-15.24,26.75-35.58,49.75-61.49,66.89ZM319.83,363.08c23.44-24.22,39.02-53.04,48.54-84.9,5.56-18.98,7.96-37.78,9.29-57.6l-2.36-33.65c-4.69-35.41-17.25-68.74-38.18-97.67-21.95-30.81-51.51-54.05-87.07-66.94-49.47-17.23-103.12-9.95-147.05,18.61-26.9,17.31-47.78,41.44-63.52,69.43-16.98,30.91-25.54,64.79-27.21,100.15-.14,20.56,1.93,39.82,6.88,59.69,10.59,42.54,33.76,80.48,67.38,108.48,31.41,25.67,69.51,39.44,110.31,39.16,46.93-.14,90.51-20.48,122.99-54.77Z"/>
      <path class="cls-1" d="M189.34,255.55l-11.78,14.7c-1.95,1.8-4.5,2.27-6.22,1.17-2.56-1.32-2.92-4.29-1.51-6.86.52-1.16,1.21-1.99,1.94-2.65,1.15-.27,2.52.14,4.17,1.05,5.07-4.35,8.84-9.61,12.47-15.29l-1.71-13.6-8.33,11.09c-2.54,2.59-5.33,4.66-8.89,6.39-3.29,10.01-9.33,18.51-17.86,24.79-3,1.81-6.17,2.09-8.86.62-3.11-1.41-4.32-4.84-4.63-8.71.82-14.19,8.37-27.05,19.58-35.59,2.88-.96,5.03-1.85,8.09-.81,1.69.71,4.17,2.69,5,5.53,1.01,2.92.35,5.62.39,8.58,4.61-2.81,6.44-6.51,8.76-10.32,1.73-3.19,3.71-6.06,6.57-8.3,1.76-.92,3.37-1.25,5.46-.73,1.22.47,2.85,1.86,3.41,4.15.27,2.47-.1,5.03,1.04,7.2l11.37-14.34c1.87-1.77,4.33-2.8,6.84-1.62,1.61,1.33,2.47,4.33.8,6.64-1.15,2.51-3.63,3.24-6.79,1.14l-12.24,15.87,1.43,11.68c1.7,1.65,3.82,1.35,5.79.05,5.32-4.84,9.71-10.62,12.67-17.26l6.97-16.16c.52-2.1,1.81-3.73,3.32-4.01,2.08-.64,4.2-.52,5.55,1.65l-11.83,28.82c-.35,1.66-.08,3.13.93,4.16.98.41,2.32.03,3.72-.91,4.89-4.56,9.09-9.77,12.32-15.7l8.91-20.98c2.58-1.41,5.13-2.08,8.18-.71-.81,2.03-2,3.36-1.34,5.54,2.9-3.78,5.75-7.1,10.32-8.64,2.28-.75,4.6-.69,6.32.84,1.34,1.46,2,3.98,1.33,6.63l-9.32,20.76c-1.38,2.36-1.83,5.24,1.14,6.6,7.09-5.27,11.53-12.64,14.96-20.46,3.78-7.95,8.84-15.06,16.25-19.54,4.38-1.82,8.94-2.27,11.72,2.47,1.28-2.86,2.34-4.11,4.46-4.16,1.75.1,3.72.93,4.33,3.23l-23.1,51.58c-4.45,9.64-8.52,18.78-14.7,27.36-3.31,4.4-7.1,8.2-11.53,11.42-4.63,2.86-10.19,3.79-14.97,1.13-4.33-4.09-4.23-10.28-1.02-15.1,2.41-3.78,5.99-7.8,11.24-5.28-3.77,4.39-7.21,9.01-5.22,14.44,3.98,1.25,7.33-1.39,9.93-4.22,5.52-6.44,9.64-13.5,13.27-21.65l-43.99,7.86c-21.48,4.17-42.15,9.16-62.8,16.1-6.2,2.47-11.65,5.07-16.16,10.07-5.85-2.32-11.71-1.73-17.61.34l-17.08,5.67c2.35-6.68,8.08-9.85,13.48-13.27,13.95-7.14,28.2-11.41,43.58-15.51,34.73-8.22,69.27-14.19,104.53-18.75l6.67-14.52c-2.92,1.5-4.57,3.42-7.54,3.83-2.16.47-4.24-.06-5.56-1.25-1.66-1.45-1.98-3.65-2.47-6.65-3.88,4.19-6.53,8.79-11.61,11.36-2.2,1.43-4.79,1.95-6.48.83-2.57-1.29-3.86-3.75-3.49-6.86.01-4.91,2.66-8.88,4.8-13.11,2.03-4.68,5.49-8.57,5.66-14.58-6,.2-8.06,5.37-11.41,8.99-6.43,8.69-9.97,18.65-14.18,28.63l-7.03,1.77.89-6c-3.44,3.07-5.68,6.56-10.03,8.03-2.26.52-4.45.56-6.36-.6-1.67-1.12-2.24-3.23-2.63-6.54-3.18,3.48-5.39,6.61-9.23,9.1-2.66,2.43-6.6,3.05-9.88,1.64-2.63-2.6-2.6-5.45-3.17-10.28ZM287.46,241.62c7.74-6.71,12.06-15.56,15.07-24.99.05-2.05-.6-3.51-2.27-4.15-.83,0-2.07.42-3.32,1.3-7.71,6.63-12.5,15.88-14.98,25.69.1,1.63.71,2.73,1.35,3.32,1.33.59,2.76.19,4.15-1.16ZM165.6,237.45c-.95-1.59-2.37-1.58-3.34-.63-2.14,1.59-2.9,3.88-2.78,6.2.04,2.1,1.27,4.24,4,4.51,1.43-3.2,2.62-6.42,2.11-10.08ZM152.5,268.77c4.65-4.83,6.98-10.26,9.34-16.22-4.4-1.03-6.11-3.88-7.36-7.36-4.86,6.94-7.61,13.66-8.3,21.3.44,1.73,1.1,2.9,2.42,3.68.87.25,2.43-.13,3.89-1.41ZM145.97,249.37l-2.74,4.56,1.62.97,2.74-4.56-1.62-.97Z"/>
      <path class="cls-1" d="M109.22,158.81c3.02-4.33,6.84-8.2,12.46-9.34,2.21-.05,4.13.18,5.62,1.05,1.51,1.35,1.64,3.53,1.82,6.4,3.56-4.35,6.4-8.99,11.72-11.18,3.48-1.63,7.46-1.02,9.16,2.46,1.15,4.42.13,8.78-1.77,12.91l-7.48,17.56c-.59,1.71-.39,3.34.82,4.52.94.64,2.6.3,4.05-.85,7.81-6.69,13.23-15.39,17.07-24.99l6.99-15.92c2.6-1.27,4.98-1.59,8.5-1.94l-.15,4.4c3.09-2.86,5.73-5.92,9.88-6.93,4.54-1.12,8.9.55,10.31,4.97.97,6.48-.27,12.89-3.53,18.55l-7.2,13.7c6.41-3.63,10.59-8.71,14.77-14.23,3.95-10.9,10.13-20.66,19.47-27.25,5.35-3.25,11.9-3.61,14.62,2.31,1.22-2.57,1.61-3.77,3.41-4.64l5.99,2.56-11.51,26.16c-1.01,2.63-2.5,5.27-.38,8.61,9-4.49,14.62-13.03,17.9-22.12,3.95-8.78,9.81-16.28,18.33-20.49,4.08-1.7,8.4-1.49,11.19,2.07,2.51,5.43.28,11.99-4.85,14.98-1.65.61-3.02.28-3.99-.77-.52-.95-.45-2.39.41-3.77,1.6-2.27,3.5-4.1,4.32-7.06-2.47-1.48-4.35-.15-6.33,1.19-6.85,6.54-11.73,15.24-13.17,24.68.08,2.6.43,4.77,1.68,6.09,1.92,1.6,4.55,1.7,7.14.7,8.78-3.65,14.86-11,20.08-18.97l9.76-22.82-9.16.81c-.15-2.58,1.17-4.74,3.39-5.86l8.45-1.48,7.51-15.52,5.59-3.34c1.33-.35,2.38.17,2.95.72.77.93.85,2.13.32,3.36l-6.8,13.52,12.5-2.21c1.02,3.49-1.45,6.87-5.08,7.25l-10.1,1.29c-4.91,10.68-9.88,21.25-13.17,32.65-.23,2.52-.07,4.9,1.04,6.45,1.8,1.4,4.23,1.12,6.4-.12,3.97-2.33,6.75-5.84,9.29-9.61.6-.43,1.14-.48,1.58-.41.62-.05,1.37.43,1.29,1.35-3.81,7.62-9.9,13.83-17.9,16.83-3.47.91-6.79.07-8.72-2.08-2.26-2.61-1.81-5.58-1.79-9.89-2.63,2.65-4.25,4.77-7.2,6.43-4.41,5.54-10.75,9.32-17.93,10.04-6.3.15-10.08-4.56-10.44-10.46-5.31,5.18-8.76,10.34-14.44,13.5-2.61,1.2-5.52,1.35-7.7-.02-2.18-1.41-2.44-3.88-2.67-7.42-3.55,4.68-6.88,8.48-11.96,11.2-2.84,1.42-5.86,1.38-8.33-.73-2.05-1.68-3.13-4.53-3-8.77-8.03,7.55-16.72,13.76-27.5,16.72-4.26.95-7.77-.3-10.43-4.33l-10.29,28.74c.08,1.94-.21,3.94-1.54,5.31-3.4.66-6.17-1.69-7.32-4.49l9.85-28.78c-5.36,4.61-8.81,9.78-15.46,10.91-2.72-.1-5.2-1.8-6.01-3.79-1.63-2.65-1.44-5.48-.72-8.68l10.18-24.92c-1.98-1.65-3.58-.31-5.17,1.15-9.1,11.54-15.77,24.33-20.68,38.51-2.23,2.31-6.12,3.55-9.55,2.24l12.91-35.23c.64-1.3.55-2.64-.58-3.36-.69-.46-1.83-.02-3.15.79-8.27,7.98-13.97,18.11-17.9,29.03l-5.11,13.69c-3.26,1.43-5.97,3.1-9.98,3.77l18.17-50.45c2.62-2.12,5.77-2.74,9.23-2.7v5.77ZM215.28,169.44c8.02-8.12,14.12-17.47,17.28-28.02-.03-1.97-.62-3.51-1.74-4.49-1.44-.6-2.92.1-4.71,1.05-8.1,7.89-14.23,18.05-16.12,29.38.08,1.93.8,3.19,2.23,3.33l3.05-1.25ZM173.61,176.74c7.77-7.96,13.71-17.37,15.9-28.03.04-2.17-.68-3.74-2.22-4.44-1.04.03-2.24.5-3.69,1.21-8.33,7.25-14.42,16.69-17.68,27.31-.31,2.2.71,3.91,1.71,4.67,1.92,1.07,3.77.73,5.98-.72Z"/>
      <path class="cls-1" d="M121.93,219.79c-6.57,9.69-11.82,18.66-15.6,29.33l-16.43,36.94c5.09,3.73,11.56,4.28,17.74,1.36,8.79-4.66,15.49-12.87,17.53-22.75.38-3.16-.13-5.84-1.93-8.09-1.61-1.6-4.42-2.29-7.45-2.12-2.99.66-5.68,1.4-8.77.78-.77-1.83-.54-3.59.45-5.46.8-.84,2.5-1.72,4.66-1.85,10.95-2.66,19.46-11.83,22.45-22.62.28-5.91-4.09-9.69-9.93-9.79-10.36.17-19.8,3.93-28.56,9.32-7.11,4.32-13.17,9.9-16.67,17.41-.75,2.42-.51,4.79.78,6.37,1.71,1.29,4.13.91,7.09.09-.13,4.81-5.75,7.36-9.94,6.74-4.9-.9-7.67-5.4-7.04-10.54.4-4.16,2.58-7.42,4.87-11.05,12.2-13.82,28.92-23.2,47.37-25.3,6.78-.24,13.08.78,17.39,5.85,3.68,4.97,3.36,11.56.73,17.15-3.51,7.64-9.71,12.39-17.44,17.49,6.87,1.75,10.79,7.24,10.54,14.69-1.59,15.84-13.43,29.18-28.99,32.71-6.8,1.26-12.8-.58-17.82-5.09l-5.99,7.41c-5.37,6.77-14.05,9.75-22.14,6.74-5.98-4.19-6.52-11.77-2.83-17.74,3.48-5.85,9.55-9.45,16.28-7.75,2.83,2.88,6.57,4.08,10.14,4.97l14.72-34.08,11.18-21.73c3.49-4.24,6.57-9.01,13.6-9.37ZM71.53,298.77c4.27-3.06,6.52-7.05,9.44-11.59-3.45-2.58-7.51-3.71-11.98-2.17-3.16.8-6.2,3.67-7.04,7.84-.9,2.77.09,5.44,2.09,6.94,2.02,1.31,4.92.88,7.49-1.03Z"/>
      <path class="cls-1" d="M48.44,223.59c5.69-4.23,8.17-10.28,11.08-16.39l16.58-45.31c4.77-13.28,9.82-25.51,16.12-38.31-9.45,1.74-17.88,3.99-24.7,9.63-3.57,2.7-5.6,6.38-4.07,10.7-3.07,2.24-5.49.47-6.93-.86-2.62-2.37-2.23-5.24-1.21-8.17,3.39-5.69,8.98-9.29,15.41-11.51l-3.05,4.36,10.6-3.36c-1.48-1.76-3.42-1.2-5.66-1.38,7.08-3.82,15.06-4.28,23-6.47,1.11-.27,2-.81,2.73-1.5-.09-1.09-.83-2.3-2.18-3.25-.85-3.35,2.62-5.82,5.78-5.69,1.36,1.74,1.53,3.21,1.84,5.94,2.22-1.01,4.12-1.28,5.53-.53,1.51,1.34,1.82,3.44.72,5.33-1.92,2.01-4.17,3.24-7.38,3.89-7.34,15.26-13.26,30.76-18.7,47l-14.68,39.36c-3.15,6.95-6.8,13.44-12.34,18.52-5.77,5.18-13.08,7.37-20.5,5.15-5.42-2.59-7.75-8.27-6.69-14.23,1.13-7.42,5.35-13.94,12.43-16.41,1.82-.8,3.71-.3,4.2,1.16.57,1.54.03,3.34-2.12,3.72-4.11,3.21-6.66,8.14-6.81,13.47.25,2.83,1.79,4.95,3.24,5.91,2.52,1.15,5.15.74,7.76-.81Z"/>
      <path class="cls-1" d="M183.67,204.28l-20.51,5.55c-1.09.38-2.19.39-2.9-.22-.12-.84,0-1.98.98-2.6,7.73-7.02,16.97-10.71,27.07-13.89,23.47-6.29,46.9-9.64,71.06-12.79l39-5.03c8.56-1.3,16.16-5.1,20.91-12.25,1.93-2.91,2.44-5.95,1.3-10.12,3.28.24,5.09,3.14,4.78,6.69-.15,6.66-4.61,11.82-10.07,15.5-7.68,5.06-16.3,6.96-25.6,8.35-24.64,3.74-48.66,7.29-72.9,12.88-8.1,1.87-15.4,4.24-22.03,9.21-3.69-1.67-7.27-2.19-11.09-1.28Z"/>
      <path class="cls-2" d="M196.5,105.7l-13.91,10.02,4.7-16.46-12.77-10.59,16.38-.15,4.97-15.42,6.15,15.4,15.65.44c-4.04,3.33-7.27,6.68-12.08,9.16l4.39,16.98-13.49-9.38Z"/>
      <path class="cls-1" d="M289.76,268.23l3.71-7.96,27.21-3.58c6.95-1.8,12.56-6.19,14.01-13.24.14-2.08-.68-3.94-1.45-4.97-1.8-1.57-4.01-1.31-6.41-.74.69-3.76,3.75-4.79,6.36-4.77,3.15.14,5.54,2.45,6.43,5.86,1.48,4.49-.32,8.94-2.63,13.07-5.5,7.68-14.06,11.84-23.5,13.26l-23.72,3.07Z"/>
      <path class="cls-1" d="M129.8,338.43c1.36,3.38,1.59,6.95-1.22,8.94l-10.92.17c1.76-5.81,1.81-11.2-.08-16.96,3.98-.48,7.27-.54,11.02.11,2.19,1.76,2.45,4.64,1.2,7.74ZM122.41,333.24l-.15,3.79,4.54.18.15-3.79-4.54-.18ZM122.36,340.26l-.03,4.34,4.83.04.03-4.34-4.83-.04Z"/>
      <path class="cls-1" d="M265.52,73.48c-.19,1.11-2.7.25-3.76-1.66.46-1.68,3.33-2.4,3-5.49-1.63,1.22-2.83,2.55-5.04,2.32.41-2.44.49-4.28-.44-5.64l-2.03,4.56c-.99,1.46-2.72.94-4.15-.53,3.36-3.74,5.42-8.56,7.36-13.16,1.41-.03,2.05.48,2.63.92.59.57.88,1.43.68,2.69-.42,2.14-.83,3.91.06,6.15l5.27-4.72c1.35.11,2.55.63,3.79,1.92-2.66,3.95-5.71,6.93-7.37,12.63Z"/>
      <path class="cls-1" d="M238.9,347.23c-2.47.67-4.65.63-6.42-.34,1.58-2.12,1.86-3.64,2.06-4.96-.57-1.89-2.66-2.34-5.17-1.62-.74,1.82-.43,3.95.95,6.55-1.71,1.01-3.43,1.12-5.9.43,1.74-5.21,2.11-10.32.12-16.11,1.47-1.45,4.89-1.36,5.99.2-1.78,2-1.82,3.99-1.41,5.41,1.56.91,3.61.68,4.91.25.73-1.91.19-3.71-1.21-5.75,1.3-1.39,3.78-1.42,6.06-.51-1.67,5.55-1.64,11,.02,16.46Z"/>
      <path class="cls-1" d="M149.56,345.89c-3.45,2.55-8.02,2.48-11.36.15-.78-4.83-.52-9.29-.14-14.31,3.42-2.13,8-2.22,11.37.08l.13,14.08ZM141.23,333.17l-.04,11.46,4.94.02.04-11.46-4.94-.02Z"/>
      <path class="cls-1" d="M183.37,340.64c-2.79-1.05-3.63,1.03-3.15,2.41.16,1.42,1.69,2.29,3.42,1.41,1.23-.35,2.27-.71,3.32-.52.46.88.52,1.94.25,3.64l-12.06.04c1.71-5.67,1.93-11.45-.08-17.2l12.13.02c.01,1.82.12,2.91-.29,3.69-1.09.24-2.12-.1-3.27-.63-1.16-.51-2.28-.61-3.37.49l.2,3.04c.32.15,1.8.57,3.55-.19.94.78,1.17,2.92-.64,3.8Z"/>
      <path class="cls-1" d="M166.23,56.17c.82-5.35-.66-9.8-2.66-14.74,1.81-1.44,4.23-1.18,5.46.87,1.28,1.71,1.9,3.5,3.96,4.78-.32-3.59-1.91-5.24-1.77-7.5l3.61-.61c.66.53.73,1.73.21,2.76l2.31,12.86c-2.22,1.01-3.46.37-4.53-1.06-1.33-1.95-1.96-3.98-4.1-5.49,0,3.25,1.24,4.73,1.92,7.51-1.25.59-2.15,1.09-4.39.62Z"/>
      <path class="cls-1" d="M254.19,347.42l.57-3.42c-1.48-1.08-2.76-.56-3.56-.56-1.21.09-2.09,1.46-1.37,3.27-1.44,1.42-3.87,1.36-5.29.2,2.75-5.35,3.73-10.14,5.1-15.64,1.15-1.23,3.26-1.36,4.99-.5l5.07,16.6c-1.85.32-2.97.34-5.5.04ZM253.72,340.22l-1.55-3.43c-.97,1.77-1.42,2.49-1.42,3.27.65.6,1.71.89,2.97.16Z"/>
      <path class="cls-1" d="M169.69,346.3c-.6,1.83-2.11,1.62-3.42,1.29-1.03.4-2.43-.23-2.22-2.05-.02-1-.31-1.66-.8-2.14-.75-.25-1.84.15-2.05,1.59.07,1.55-.82,2.63-1.9,2.63-1.21.27-2.76.43-3.37-1l4.69-7.39c-.99-3.17-2.66-5.73-4.76-8.46,2.01-.64,3.59-.71,5.71-.01-.62,2.04-.03,3.99,2.18,3.93.17-1.94.34-3.11.76-4.17,1.34-.33,2.64-.41,4.95.24l-4.61,7.2c.39,3.04,2.17,5.75,4.85,8.34Z"/>
      <path class="cls-1" d="M287.07,91.41c-2,.59-2.67-.6-3.09-1.51-.23-.99.1-2.11,1.15-3.03l1.05-1.82c.01-.5-.19-1.12-.95-1.46-.41-.17-1.27-.15-1.66.77-.44,1.12-.92,1.88-1.8,2.75-.71.1-1.9-.74-2.9-2.17,3.79-3.5,7.46-7.04,10.47-11.56,2.79,2.1,4.68,3.89,6.06,6.6-.01,3.21-2.5,5.68-5.72,6.4-1.64.88-2.47,2.44-2.62,5.02ZM289.7,77.92l-3.02,3.19,2.79,2.65,3.02-3.19-2.79-2.65Z"/>
      <path class="cls-1" d="M242.73,61.76c-2.06.88-2.87-.25-3.46-.34-.61-1.37-.47-2.4-.17-3.85.13-.9.17-1.5-.21-2.51.04,0-.53-.74-1.24-.13-.3.27-.76.76-1.1,1.7-.07,1.19-.03,2.06-.68,3.46-.42.15-1.31.12-2.38-.78-1.01.11-2.16-1.48-.26-2.26l4.21-13.27,7.83,3.29c1.45,3.17.19,6.49-2.55,8.47-1.12,1.84-1.04,3.81.02,6.22ZM239.88,47.49l-1.7,3.91,3.63,1.58,1.7-3.91-3.63-1.58Z"/>
      <path class="cls-1" d="M227.18,41.47c2.3.02,3.17.32,4.69,1.12-2.35,4.12-2.62,8.18-3.65,12.43-1.39,2.01-3.62,2.3-5.24,1.73-2.28-.32-4.03-1.67-4.23-4.15.83-4.19,2.14-7.66,1.97-12.44,1.15-.23,2.4-.25,4.27.74-1.17,3.09-2.27,5.94-2.61,9.44-.53,1-.36,2.08-.21,2.39.79.95,1.6,1.11,2.16,1.18,1.4-.2,1.96-1.73,1.61-3.11,1.13-3.33,1.9-6.2,1.24-9.33Z"/>
      <path class="cls-1" d="M112.46,81.81c-.63,1.48-1.69,2.7-3.72,2.79l-4.88-13.32c-.13-1.72,1.16-3.05,2.64-3.48l12.12,9.15c-.94,1.75-1.87,2.53-3.56,2.46-.56-1.69-2.15-2-2.83-.93-1.37.7-1.68,2.27.24,3.34Z"/>
      <path class="cls-1" d="M213.03,53.84c-2.79,1.06-6.06.85-8.18-1.23-.76-.95-.75-1.8-.61-2.12.72-1.22,1.92-1.35,2.91-.4.65.88,1.48,1.27,2.06,1.35.93-.28,1.57-.79,1.97-1.42-.19-1.24-1.11-2.04-2.3-2.68-3.12-.57-4.49-2.92-3.91-5.28.36-3.25,3.58-4.51,6.73-3.34,1.44-.13,2.38.72,2.74,1.56.84,1.19.26,2.83-1.43,3.01l-1.91-1.88c-1.55-.84-3.25.34-2.84,2.48,2.3.82,4.42,1.57,5.55,3.1.87,2.11.74,4.67-.77,6.83Z"/>
      <path class="cls-1" d="M188.03,46.98c-1.67-.2-2.67.14-2.44.08l-.31,3.03c1.01,1.19,2.15,1.04,3.18.41.87-.48,1.59-.74,2.48-.58.26.45.35,1.25.37,2.84-2.7,1.33-5.78,1.04-9.61,1.24.8-4.96.7-9.95-.89-15.61l9.28-.41.23,2.7c-.57.56-1.63.58-2.66.09-1.11-.2-1.89-.01-2.48.57-.3.44-.79,1.2-.04,2.37.21.27,1.36.85,2.86-.03.79.83.85,2.2.04,3.3Z"/>
      <path class="cls-2" d="M57.34,261.78c-2.7,2.37-6.45,2.39-9.25.3-1.17-4.07-.98-8.14-.27-12.41,2.3-2.9,6.62-3.01,9.36-.52l.16,12.62ZM54.58,260.19l.09-6.68c.24-1.61-.64-2.64-1.48-2.98-1-.3-2.07-.12-2.66.87l.2,8.99c1.5.37,2.73.27,3.85-.2Z"/>
      <path class="cls-2" d="M359.45,208.83c-3.23,1.81-6.76,1.46-9.52-.47l-.15-12.71c2.8-2.28,7.02-2.16,9.72.02l-.06,13.16ZM356.7,204.13l-.08-7.14c-1.57-.5-2.75-.28-3.7.69l-.17,6.92c-.39,1.78,1.08,2.91,2.04,2.51,1.28-.16,2.25-1.09,1.9-2.98Z"/>
      <path class="cls-1" d="M131.43,69.53c-1.24,1.29-2.62.77-3.19.09-.95-.49-1.28-1.32-.96-2.46.87-.62,2.19-.62,3.35-.57,1.25-.17,1.95-.63,2.47-1.53-.17-.66-.52-1.28-1.29-2.05-.34-.23-1.3-.25-2.26.25-2.81.92-5.34-.16-6.35-2.57-1.11-2.48.25-5.41,3.56-6.02,1.02-.72,2.17-.82,2.98-.54.83.49,1.73,1.04,1.96,2.44-.73.92-1.74,1.08-2.88.8l-2.15.56c-.5.16-1.06,1.05-.44,1.68.54.74,1.24,1.18,2.42,1.03,2.97-1.83,5.49-.26,6.52,2.07,1.71,2.99.49,6.32-3.72,6.82Z"/>
      <path class="cls-1" d="M214.43,347.42l-5.49.02c1.61-5.01,1.79-9.74.51-14.27-1.96.88-2.91,1.14-4.1,1.28l-.02-3.98,11.5-.24c1.08.55,1.4,1.23,1.42,2.37.17.27.21,1.09-.31,1.59-1.16.08-2.09-.16-3.95-1.12-1.35,4.4-.99,9.25.45,14.35Z"/>
      <path class="cls-1" d="M276.32,74.37c-1.58-1.37-2.45.44-2.45.79-1.17,1.56.12,2.76,1.42,2.85,1.05.4,1.64.76,1.98,1.27.06,1-.1,1.81-1.72,2.97l-7.32-5.56c4.07-4.06,7.04-7.6,9.41-12.55l6.75,5.2c.09,1.05-.15,1.49-.48,1.82-.49.99-1.92.89-2.26-.38l-1.45-1.43c-1-.77-1.89.04-2.14.83-1.17.59-.81,2.06.46,2.39l.75,1.71-.08,1.19c-1.06.57-2.26.28-2.86-1.11Z"/>
      <path class="cls-1" d="M145.77,59.62c.86-.7,1.48-1.08,2.44-1.15.47.43.61.95,1.05,2.06.41.46-.14,1.8-1.62,1.68l-7.18,2.77c-.4-5.29-2.51-9.91-5.49-14.23l7.84-3.35c1.1.3,1.67,1.13,1.83,1.77.19,1.19-1.12,1.92-2.44,1.5-1.28.27-1.93.58-2.44,1.39-.05.59.1,1.34.93,2.05.4.19,1.34.2,2.27-.55.92-.49,1.51.14,1.51.66.6.81.55,1.93-.64,2.38-.97.44-1.62.96-2.04,1.43.84.75,1.04,1.53,1,2.07.85.89,2.22.48,3-.49Z"/>
      <path class="cls-2" d="M42.24,262.87c-3.15.64-6,.56-9.3.4-1.18-4.01.47-7.52,4.59-8.92l1.33-1.35c.57-.89.3-1.92-.63-2.43-.71-.29-1.8-.16-2.47.96-.62,1.04-1.64,1.19-2.41.79-.87-.58-.99-2.14.12-3.21,2-2.14,5.82-2.26,7.97-.41,1.98,4.76-1.12,8.41-5.57,9.9-.33,1.09.09,1.67.44,1.96l3.09-.42c.87-.42,1.66-.56,2.5-.22.16.31.88.87.34,2.95Z"/>
      <path class="cls-2" d="M343.78,209.42l-9.87.16c-.97-4.58,1.7-7.55,5.57-9.24.8-.69,1.19-1.49,1.23-2.3.26-.89-.57-1.54-1.45-1.24-.71.01-1.47.32-2.23,1.11-.69.97-1.75,1.3-2.74.72-.35-.48-.65-1.42.01-2.78,2.05-2.35,5.97-2.39,8.87-.73,2.05,4.01-.18,8.19-4.52,9.24-.96.46-1.19,1.29-1.21,1.7.4.75,1.33,1.09,2.28.47l2.55-.15c.63-.08,2.42.41,1.51,3.03Z"/>
      <path class="cls-1" d="M155.66,55.82c-1.56-4.05-4.22-6.99-7.71-9.59.57-1.4,2.06-1.76,3.39-1.88,1.17.2,2.1,1.76,2.12,3.6,1.03,1.35,2.63.16,1.93-1.34-.46-1.45-.55-3.27.03-3.64,1.42-.55,2.85-.68,3.54.32-1.1,4.53-1.76,8.26-.44,12.23.95.83,1.36,1.98.8,3.01-.93.25-1.95.56-3.6.56-.52-.45-.58-1.89-.05-3.26Z"/>
      <path class="cls-1" d="M237.54,209.32c-.66,3.29-3.17,5.71-6.47,5.75-2.06-.75-2.99-2.48-3.07-4.14-.15-2.1.73-4.15,2.62-5.53,1.51-1.48,3.51-1.65,4.79-.91,1.85.87,2.64,2.67,2.12,4.82Z"/>
      <path class="cls-1" d="M105.98,87.8l-6.15,5.1c-2.95-4.3-5.44-8.16-9.71-10.76.46-1.37,1.77-2.75,3.31-2.58,2.64,3.52,4.89,7.53,8.8,8.42l1.58-2.85c.32-.77,1.4-.84,1.81,0,.74.51,1.04,1.64.36,2.68Z"/>
      <path class="cls-1" d="M271.11,347.61l-5.66-.22c2.04-5.56,2.19-11.1.18-16.79l5.49-.04c-1.65,5.79-1.54,11.13-.01,17.05Z"/>
      <rect class="cls-2" x="96.24" y="330.2" width="2.63" height="17.5" transform="translate(-241.53 436.05) rotate(-89.92)"/>
      <rect class="cls-2" x="282.97" y="337.66" width="17.59" height="2.6"/>
      <circle class="cls-1" cx="266.21" cy="326.85" r="1.49"/>
      <polygon class="cls-1" points="107.66 375.04 97.36 375.05 97.3 365.1 108.03 365.12 108.14 374.71 108.72 375.12 119.54 375.05 119.82 365.02 130.44 365.09 130.74 374.83 141.67 375.04 141.79 365.05 152.7 365.1 152.74 374.74 153.16 375.14 164.66 375.13 164.65 365.11 175.31 365.1 175.59 374.67 176.41 374.98 187.05 374.98 187.26 365.2 198.13 365.13 198.66 374.66 199.56 374.99 210.22 375.07 210.33 365.24 221.25 365.14 221.61 374.77 233.4 375.03 233.48 365.11 244.93 365.14 245.08 374.71 245.77 375.07 257.22 375.16 257.23 365.14 268.52 365.13 269.06 374.67 269.93 374.99 281.28 375.12 281.33 365.1 292.49 365.1 292.63 375.08 281.06 375.32 280.63 384.64 268.93 384.75 269.09 375.82 268.86 375.16 257.12 375.18 256.95 384.46 245.51 384.54 245.59 375.84 244.69 375 233.34 375.13 233.23 384.54 222.1 384.5 221.58 375.08 210.12 375.13 209.98 384.52 198.93 384.53 198.74 375.82 198.47 375.1 187.09 375.15 186.9 384.58 175.85 384.59 175.64 375.79 175.31 375.18 164.58 375.28 164.22 384.67 153.17 384.61 153.17 375.94 152.08 374.98 141.73 375.2 141.55 384.6 130.78 384.56 130.48 375.03 119.38 375.18 119.25 384.54 108.32 384.55 108.4 375.79 107.66 375.04"/>
    </g>
  </g>
</svg>