<?xml version="1.0" encoding="UTF-8"?>
<svg id="Calque_2" data-name="Calque 2" xmlns="http://www.w3.org/2000/svg" viewBox="0 0 734.54 773.1">
  <defs>
    <style>
      .cls-1 {
        fill: #0b2a46;
      }

      .cls-2 {
        fill: #c69127;
      }
    </style>
  </defs>
  <g id="Calque_1-2" data-name="Calque 1">
    <g>
      <g>
        <path class="cls-1" d="M342.44,499.8c-6.85,5.81-15.56,7.66-21.51,1.18-3.73-8.46,2.1-17.96,9.87-21.08,1.8,3.11,3.37,4.16,4.97,5.01,1.66-.69,3.25-2.07,4.94-3.57,9.87-9.37,16.74-20.29,25.46-31.01-.05-11.73.3-22.53-2.93-35.09-8.28,7.14-11.65,15.47-17.49,23.15-6.14,8.83-14.84,14.38-24.14,19.96-9.13,24.05-22.89,45.49-44.55,58.96-6.97,3.22-14.05,4.62-20.23,1.09-5.75-2.83-9.3-9.41-9.69-17.06-.88-13.74,3.01-26.45,8.97-38.68,9.4-18.94,22.13-36.4,39.19-48.07,11.36-5.33,23.7-4.09,29.23,7.05,2.59,7.45,1.03,15.21,1.34,23.01,14.26-10.15,20.15-24.19,29.4-36.57,5.87-8.4,15.75-13.33,24.76-7.83,5.22,6.63,3.77,14.69,5.65,24.63,10.9-11.73,16.75-25.58,29.89-34.41,4.95-3.88,12.05-4.97,16.85-.42,3.72,7.67-1.63,16.33-8.93,19.29-5.03-4.08-10.14-3.05-13.43,1.45l-23.41,31.36,1.88,25.02c.66,3.04,2.13,5.19,3.6,6.32,2.49,1.01,4.87.58,7.82-.87,13.36-10.87,24.43-24.41,32.13-39.85l20.25-46.23c4.76-6.04,14.9-7.59,20.33-.52l-29.56,67.86c-1.03,3.61-.51,6.96,1.09,9.15,2.46,2.06,5.96.95,9.11-1.1,10.62-8.94,18.96-19.63,27.17-30.98l24.69-55.2c5.7-3.17,11.82-3.95,18.74-3.2.42,4.91-2.77,8.07-2.71,13.55,8.09-8.24,14.47-17.16,25.9-19.75,5.48-.84,11.1-.97,14.79,2.74,2.99,3.05,4.52,8.14,3.83,13.65-2.05,9.51-6.62,17.85-11.11,26.59-4.97,10.08-10.71,19.38-13.56,30.28-.25,2.91.03,5.41,1.37,7.11,2.17,1.48,5.19.27,8.36-1.31,10.01-8.81,18.14-19.6,24.86-31.37,5.71-16.51,13.92-31.31,25.57-44.06,8.57-9.29,18.97-16.38,31.63-17.84,6.91-.42,11.24,2.51,16.36,9.06,1.85-6.74,4.66-10.39,10.4-9.95,4.34-.07,9.43,2.36,10.41,7.43l-19.66,42.65c-17.12,39.88-34.14,78.56-54.73,116.75-9.05,15.85-18.09,30.51-31.29,42.84-9.87,10.33-22.46,17.21-36.6,17.3-11.91-.64-20.75-8.83-20.76-20.89.16-14.82,8.44-28.19,21.94-33.71,4.05-.53,7.98.26,9.72,3.94-6.26,6.62-11.45,13.27-13.51,22.14-.68,4.04.21,7.71,2.44,9.92,3.12,2.45,7.5,2.42,11.65.21,11.11-6.8,19.32-16.77,26.17-27.85l19.61-33.76c-58.15,8.71-113.5,19.77-170.2,32.63-33,7.99-64,16.52-95.25,29.03-13.26,4.85-24.4,11.75-34.9,20.97-11.34-4.34-22.78-3.12-34.44-.3-14.26,3.66-27.03,9.87-40.58,15.47-2.15.41-4.22.35-4.78.27-.82-2.61-.49-4.31.64-6.17,11.36-14.41,26.34-23.3,42.9-31.19,34.12-16.32,68.79-26.67,105.85-36.37,79.42-18.62,158.5-31.83,239.21-41.81l16.13-33.65c-5.82,1.77-8.5,5.59-12.9,8.05-6.29,3.02-12.62,3.09-18.68-1.54-4.04-2.82-6.38-8.18-6.45-15.89-8.32,9.31-14.13,16.88-22.83,23.58-7.15,5.16-16.46,7.22-24.26,2.36-6.92-7.57-6.51-18.06-2.58-27.42l22.22-45.75c.77-2.1.88-3.96-.03-5.41-1.12-1.53-3.65-2.11-6.04-.28-12.86,7.86-20.66,20.27-29.56,32.53-10.01,18.07-17.74,36.64-25.8,55.59l-18.68,3.77,3.98-14.5c-8.4,7.93-14.95,16.14-26.03,19.97-5.33,1.77-11.36,1.55-15-1.82-3.61-3.68-4.04-8.76-4.49-15.77-8.69,9.75-15.78,18.9-26.58,25.62-6.75,3.58-14.9,4.02-20.5-1.31-5.47-6.51-5.27-14.13-5.81-23.03-10.35,11.83-16.7,23.37-27.09,33.95ZM604.13,435.59c11.93-9.62,20.31-21.31,26.26-34.66,4.64-8.14,8.72-16.24,10.54-25.54.17-3.99-.95-7.29-3.83-9.18-2.57-.65-5.85.47-9.73,2.02-18.29,15.29-29.83,37.58-36.27,60.78.53,4.64,1.84,7.55,4.7,9.02,2.28.28,5.1-.32,8.33-2.44ZM314.7,429.25c-.56-3.42-3.4-7.37-5.59-7.02-6.21,4.02-10.17,7.69-10.47,12.5-1.19,6.66,1.19,11.96,8.52,14.1,4.37-6.07,5.38-12.87,7.53-19.58ZM281.44,498.81c10.58-11.61,17.22-24.8,22.52-38.59-10.46-1.64-14.29-6.52-17.68-16.14-10.99,14.8-18.32,31-20.69,49.2.51,4.7,2.58,8.27,6.43,9.51,2.53.18,5.83-1.31,9.42-3.98ZM271.59,456.86c-4.65-3.63-7.55-1.02-8.76,1.64-1.19,2.35-2.93,5.01-1.42,9.41,3.64-3.38,7.07-5.76,10.19-11.05Z"/>
        <path class="cls-1" d="M185.82,401.38c7.59-7.43,15.56-15.25,26.92-14.73-11.74,15.87-21.86,29.26-28.65,46.01l-20.7,45.33c-9.87,22.66-19.94,44.09-33.49,65.84,11.46,7.66,24.7,8.77,37.84,4.32,24.48-10.06,42.71-30.91,49.36-56.66,1.07-7.25.58-13.91-4.16-19.03-4.17-3.47-10.56-6.01-17.55-4.69-6.59,1.65-12.93,3.89-19.82,3.02-4.41-6.41-.91-13.8,6.21-16.73,27.32-5.07,49.38-25.22,58.36-51.51,1.72-6.35,1.7-11.91-2.01-17.2-2.6-4.57-8.59-7.35-15.55-8.41-21.81-.11-42.18,6.33-61.21,16.85-20.18,10.76-38.15,24.31-50.62,43.34-4.27,6.88-6.62,15.22-1.05,21.34,5.79,2.38,10.78-.58,17.25-2.67-1.12,11.72-12.46,18.14-24.11,17.81-11.71.47-19.57-8.68-18.44-20.38,1.65-15.07,10.14-27.05,21.02-37.49,24.56-23.5,54.23-40.13,86.67-50.7,14.07-3.5,27.91-5.83,41.89-2.8,9.16,1.88,17.22,6.46,21.39,12.15,6.31,8.65,5.95,18.26,4.38,28.5-7.74,23.46-25.74,40.71-47.87,52.14,12.67,2.26,21.02,8.44,23.61,19.58,2.92,11.63,1.56,23.32-3.02,34.53-11.36,27.56-33.82,48.34-62.38,57.12-16.77,4.73-33.72,1.7-48.13-9.15-10.5,14.68-22.48,27.79-38.5,36.6-9.58,4.34-19.3,7.69-29.59,6.27-14.55-2.07-23.25-13.98-21.14-28.9,3.52-19.24,18.39-35.27,37.13-40.31,9.69-1.85,19.36.44,23.28,11.07-19.23-2.79-36.8,7.01-40.13,25.72-.67,4.7.44,8.79,2.83,11.76,2.91,3.15,7.49,4.59,12.76,3.84,8.23-2.28,15.23-6.88,21.18-12.86,11.42-12.13,20.23-25.15,28.12-39.96l45.01-92.8c6.29-13.06,13.1-24.6,22.94-36.17ZM84.84,586.27c3.18-.91,2.85-4.39.97-5-.95,0-2.43.24-3.82,1.32-2.77.5-4.82,2.39-5.44,3.95-.76,2.68,1.76,3.92,3.3,3.32,1.73-.01,3.67-.6,4.98-3.59Z"/>
        <path class="cls-1" d="M612.93,495.16c1.49-6.33,4.78-11.72,8.14-17.37,23.23-1.86,45.36-2.61,67.45-8.18,15.53-4.59,29.45-14.12,32.42-30.04.42-5.32-.6-10.01-4.03-13.22-3.29-3.25-8.25-2.89-14.05-.62,1.12-7.87,7.52-10.92,13.19-11.58,6.35-.65,11.93,2.66,15.37,8.71,5.03,9.55,3.63,20.3-1.51,29.91-8.94,17.49-25.63,27.39-44.59,33.09-23.05,6.31-45.98,7.79-72.38,9.29Z"/>
        <path class="cls-1" d="M239.84,76.32c-6.52,1.72-11.9,5.87-18.35,5.97.39-8.42-1.36-14.84-4.85-20.81-1.2-7.41-3.72-12.84-10.29-18.26l21.27-8.95c3.72-1.01,7.15-.68,10.18,1.16,2.19,1.59,4.03,4.58,4.53,8.54-.54,5.25,1.15,9.46,4.79,12.96,1.95,4.16,3.37,8.28,1.97,11.84-1.66,3.56-4.65,6.46-9.26,7.57ZM231.75,41.07l-11.44,4.59,3.8,9.46,11.44-4.59-3.8-9.46ZM234.47,69.18c3.61.05,6.35-2.5,5.81-4.01-.87-3.31-1.38-5.07-2.5-6.92-2.84.22-5.02,1.45-7.73,2.44-4.02.9-3.05,4.55-.82,7.24-.11,2.44,2.88,4.69,5.24,1.25Z"/>
        <path class="cls-1" d="M501.27,53.14c-6.22-.54-10.23-1.05-15.93-3.19,3.94-5.82,6.36-8.67,6.62-15.25-3.24-2.63-7.92-3.4-12.13-2.46-2.13,5.64-.8,10.28.51,16.23-5.69,1.28-10.2.4-15.36-1.49,6.56-13.72,8.29-28.21,6.45-42.83,5.12.41,9.33.73,14.73,2.62-3.65,6.28-5.51,10.36-4.97,16.45l10.82,2.02c2.43-4.37,2.58-9.7-.05-16.93,5.14-1.16,9.59-.48,15.77,1.43-6.72,13.83-9.27,28.46-6.45,43.41Z"/>
        <path class="cls-1" d="M281.13,62.4c-6.51,4.06-13.13,3.07-17.67-1.77l-8.23-28.88c1.32-6.58,5.8-10.77,12.5-11.12,6.08-3.61,13-3.19,17.48,2.32l6.22,23.8c1.39,3.61,1.25,6.94-.31,9.99-1.34,2.82-4.74,5.55-9.99,5.67ZM283.05,52.43l-6.49-25c-4.58-.81-8.7.7-11.6,4.13l7.12,24.65c4.49-.78,7.04-1.47,10.97-3.78Z"/>
        <path class="cls-1" d="M534.2,60.97c2.13-4.22,3.11-5.39,4.19-7.04.32-2.86-3.5-4.06-6.27-3.37-2.61-2.14-4.92-1.5-6.5.61-.08,1.17.27,3.44.61,6.9-4.36,1.15-8.76-.84-14.05-3.16,9.26-12.37,15.91-24.49,22.1-38.55,4.25.1,8.73,1.28,12.82,2.84-.6,15.8-1.56,29.97,1.3,45.32-5.47.14-9.26-1.07-14.22-3.56ZM538.01,42.97c.07-5.67,1.12-8.33,0-11.55-3.06,2.35-3.95,4.74-5.04,7.39-.58,2.42,2.81,3.56,5.04,4.16Z"/>
        <path class="cls-1" d="M365.32,27.04c-6.28,2.33-3.98,9.09-1.51,12.29l15.77-4.5.42,10.28-29.63,2.42c3.8-15.01,1.67-28.98-3.37-43.8l28.3-2.23c2.36,2.62,2.92,6.57,2.09,10.3-6.61-1.57-10.7-2.19-16.79-1.2-.81,3.94-.41,5.99-.4,8,1.6,2.41,5.56,2.49,8.56.59,3.99.1,3.92,3.19,3.55,5.29.46,2.42-2.42,5.31-6.99,2.55Z"/>
        <path class="cls-1" d="M305.48,55.29l8.44-22.3c-2.96-7.31-8.5-12.71-15.34-18.56,3.19-4.23,8.73-4.14,13.46-4.3.37,4.53.82,7.59,5.14,10.62,2.72-3.51,2.83-6.86,1.68-11.79,4.14-1.45,8.05-2.38,13.5-2.57l-8.42,22.77,15.53,19.99c-5.26,2.05-9.41,2.52-14.35,2.42.04-5.01-.47-8.34-4.43-11.33-3.29,4.06-3.3,7.78-2.14,12.7-4.19,1.38-7.45,2.21-13.06,2.36Z"/>
        <path class="cls-1" d="M444.28,44.18c-5.83,1.96-9.69,1.58-15.31.69,4.94-11.82,4.85-22.9,4.49-35.92l-11.31,2.53c-.9-4.12-.47-7.43.8-11.47l32.74,2.79c.27,4.59.08,8.39-1.92,10.36-3.23-.51-5.39-1.68-9.44-4.37-2.54,12.2-4.82,24.01-.05,35.4Z"/>
        <path class="cls-1" d="M578.24,51.95c-3.76,6.87-5.54,13.1-4.3,21-5.72-.36-9.53-2.07-15.36-4.34,9.49-12.35,13.51-26.31,15.54-41.29l13.27,5.08c-4.4,5.86-7.99,11.32-9.15,19.55Z"/>
        <path class="cls-1" d="M484.02,359.77c-3,7.56-10.2,12.19-17.31,9.9-6.97-5.36-5.9-14.59-.32-20.65,3.33-4.23,8.65-5.52,11.94-3.92,6.03,2.48,8.44,7.86,5.69,14.68Z"/>
        <rect class="cls-2" x="153.92" y="78.94" width="39.87" height="6.42" transform="translate(-18.12 93) rotate(-28.53)"/>
        <rect class="cls-2" x="621.09" y="51.73" width="6.67" height="37.9" transform="translate(302.69 610.48) rotate(-65.66)"/>
        <path class="cls-1" d="M575.75,15.97c1.88-.8,4.38-.15,6.11,1.26.92,1.6.37,4.04-1.05,5.27-1.42,1.24-3.71,1.72-6.03.05-1.58-1.13-1.63-3.7.97-6.58Z"/>
        <circle class="cls-1" cx="588.85" cy="23.4" r="3.81"/>
        <path class="cls-1" d="M107.63,543.82c-3.3,2.91-8.68,1.72-11.53-3.38,3.42-1.32,7.1-.56,11.53,3.38Z"/>
        <g>
          <path class="cls-1" d="M171.27,234.17c6.79-3.89,13.52-5.35,21.16-4.34-.48,4.3-2.72,7.48-1.16,12.28,8.16-8.55,15.24-17.84,26.57-21.42,5.95-2.19,12.16-.57,15.93,2.82,5.34,4.62,2.58,10.92,1.62,18.39,8.31-12.38,15.41-24.62,29.56-30.08,5.46-2.16,11.47-2.18,15.56.86,4.2,3.83,5.93,9.82,5.27,16.41-3.02,14.15-9.31,26.9-15.14,40.21-4.03,7.47-7.21,14.87-9.06,23.18-.69,2.98,0,5.59,1.83,7.39,2.1,1.66,5.45.69,8.43-1.47,13.97-10.39,22.86-25.11,32.24-39.9,9.12-18.84,17.05-37.26,25.1-56.94,6.29-3.16,13.32-4.11,20.49-3.24l-.3,7.83c8.14-8.38,17.31-14.77,29.16-15.86,11.85.88,18.71,11.27,17.48,23.37-.74,23.45-14.1,41.5-26.51,62.83,15.92-7.02,26.02-20.34,35.3-33.34,7.87-20.4,18.19-38.75,33.95-53.6,7.6-6.88,15.88-12.47,26.17-13.6,8.15-.77,14.41,2.25,18.19,11.49,2.6-4.87,2.75-8.15,6.33-11.9l15.45,6.16-15.98,35.91c-4.97,11.49-10.57,22.21-13.58,34.4-.64,3.08-.11,5.82,1.9,8.02,2.03,1.41,5.32.41,8.75-1.5,11.62-9.85,20.65-22.26,28.38-35.67,7.55-24.1,21.88-45.66,43.4-58.01,10.71-6,22.64-6.38,30.22,3.48,4.83,13.28-1.36,27.83-13.32,35.12-3.41.82-5.66-.33-7-1.99-1.09-2.2-1.2-4.6-.47-7.75l10.27-16.95c-3.64-5.12-9.06-1.79-14.02,1.58-16.4,14.55-27.12,35-30.6,56.84-.04,7.25.68,13.92,7.02,17.49,9.5,1.83,18.59-2.25,26.07-8.13,13.8-10.53,24.29-23.71,33.88-38.31l20.92-51.64-21.38,2c.77-5.19,2.98-9.01,6.14-12.78l22.69-4.55,16.85-35.39,15.06-7.66c4.49,1.58,6.94,5.51,5.12,9.67-6.3,10.14-11.57,19.91-15.58,31.18l29.93-4.88c.93,6.63-2.16,11.91-7.05,15l-29.21,4.6-15.76,36.68c-6.11,14.06-11.86,27.89-14.83,42.95-.03,4.29.86,7.92,2.8,10.25,3.25,2.64,7.89,2.53,12.15.62,10.18-3.86,16.48-12.53,23.07-20.98.94-3.1,3.71-3.54,5.62-2.64,1.44,2.07,2.25,4.31.31,6.63-8.67,15.48-20.42,29.22-37.78,33.88-7.57,2.83-15.53,1.86-20.26-2.8-6.24-5.8-5.95-13.75-5.47-23.67l-12.39,12.58-5.27-1.68c-1.12,1.28-1.85,3.1-.8,5.81-9.32,10.85-21.51,19.62-36.08,21.14-14.97,2.19-26.5-7.82-27.68-24-10.76,12.72-20.55,24.81-34.72,31.89-6.14,2.12-11.63,2.61-16.64-.68-4.74-3.12-5.87-8.6-6.17-16.01-8.65,11.62-16.98,20.04-28.79,25.32-6.8,2.61-14.12,1.7-18.43-2.18-5.46-5.8-5.37-12.85-5.22-22.08-5.57,5-8.72,9.66-16.02,10.92-5.62,10.54-15.63,16.35-26.36,21.33-8.75,4.69-17.51,9.68-27.7,9.99-8.43,1.18-14.52-1.93-19.02-10.58l-21.8,56.24c-3.04,7.63-5.79,15-6.72,23.37-3.93,2.14-7.61,2-11.69-.47-2.67-1.54-6.13-4.97-6.25-9.89l25.73-68.86c-10.18,9.51-16.93,20.11-29.68,24.91-5.71,2.69-12.16,2.82-17.16-.78-3.87-3.05-6.25-9.14-5.79-15.7.56-14.93,7.65-27.48,13.47-40.92,3.91-9.78,10.7-17.82,10.66-30.39-11.59,3.56-16.57,14.82-23.41,24-14.73,24.17-28.54,48.03-36.16,74.85-7.15,3.37-13.86,6.39-20.66,2.57,8.18-29.51,20.67-55.67,31.08-83.48,1.04-2.99.44-5.75-.59-7.66-2.28-1.65-5.3-.44-7.68,1.69-15.48,14.03-25.86,31.9-35.4,50.6-7.16,17.45-13.53,34.19-19.55,51.92-7.87,2.75-13.92,7.2-23.47,7.82l44.42-120.13ZM434.31,265.66c18.97-16.94,31.84-38.26,39.31-61.95.81-6.01-.07-11.23-5.06-14.06-8.22,2.23-14.6,7.24-19.53,14.05-13.28,17.11-23.49,35.94-26.74,57.53.26,3.44,1.82,5.76,3.56,6.96,2.5.56,5.26-.05,8.46-2.52ZM338.32,283.58c15.71-16.31,27.2-35.34,34.31-56.32,1.56-6.46,2.41-12.92-2.04-18.11-8.64.47-14.56,6.07-20.44,11.75-14.24,15.56-24.18,34.05-30.78,54.23.09,5.89,2.43,10.27,6.79,12.37,3.58,1.12,7.73-.46,12.17-3.92ZM420.42,237.47c.48-2.12-1.51-3.35-3.22-1.92-3.28,3.67-6.21,6.75-6.5,12.26,4.13-3.01,6.57-5.53,9.72-10.34ZM313.16,261.64c3.97-2.88,6.37-6.81,5.26-12.45-3.97,2.88-6.36,6.8-5.26,12.45Z"/>
          <path class="cls-1" d="M19.96,384.17c-.49,7.35,2.34,12.16,6.24,14.91,4.76,3.13,10.82,2.87,16.71.3,9.85-4.25,16.11-13.09,21.88-22.15,10.03-19.35,17.11-38.78,24.82-59.48,14.51-42.39,29.61-83.33,46.83-124.65l15.54-32.59c-25.33,4.09-48.02,12-65.53,28.2-6.47,6.82-9.33,14.87-2.84,23.44-5.7,4.81-13.46,3.95-18.75.18-6.43-4.26-7.63-12.38-4.85-20.23,4.97-12.9,16.25-20.46,28.52-27.01,22.59-11.33,46.8-16.31,71.61-21.79,2.44-.83,4.5-1.75,6.05-3.54,1.29-1.58-.98-4.82-3.8-5.95-3.01-4.9-.37-8.79,2.69-11.18,3.38-3.19,7.82-4.09,12.23-1.73.92,3.75.54,6.44,1.61,12.04,4.2-2.42,7.42-3.33,11.75-2.46,2.71.85,5.51,3.76,5.53,7.89-.02,3.09-2,6.7-5.66,8.85l-13.73,6.47c-12.44,23.78-20.86,48.09-30.64,73.3l-40.85,111.03c-7.39,19.42-15.12,37.73-28.14,53.57-12.16,14.15-27.59,24.13-46.38,25.16-9.27.52-17.61-2.79-23.74-8.5-5.32-6.66-8.31-15.75-6.57-25.26,2.38-17.68,12.82-33.7,29.37-40.09,3.32-.69,5.88-1.09,8.67-.21,2.02,1.36,4,4.17,3.26,7.92-13,5.85-20.83,18.16-21.83,33.56ZM118.92,160.28c-12.22-2.72-21.77,1.97-27.92,10.98,9.53-3.93,20.08-5.13,27.92-10.98ZM43.75,407.42c2.8.26,3.66-1.46,4.12-2.04,1.78-.94.09-2.18-.13-1.98l-4.96-.31c-1.87.85-2.9,2.1-3.92,3.37.99.91,2.33,1.45,4.9.97Z"/>
          <path class="cls-1" d="M314.26,359.49c-4.36,1.93-8.38,2.59-11.28-.74,9.36-11.06,21.35-18.4,34.66-24.4,19.79-9.76,40.08-14.73,61.76-20.3,56.21-12.46,111.76-20.54,169.21-26.66,22.74-2.8,44.01-4.61,65.81-10.02,15.43-3.86,28.97-11.19,38.65-23.64,5.7-7.69,7.5-16.64,5.19-26.22,9.49,2.04,10.6,10.23,10.44,18.18-1.58,15.17-11.99,26.87-24.98,34.74-18.52,11.58-38.97,15.19-60.9,19.1-56.89,7.88-112.57,15.34-168.22,29.33-18.16,4.63-34.68,9.73-49.68,20.81-8.06-3.4-15.79-4.31-24.22-3.09-16.09,2.21-30.6,7.11-46.44,12.9Z"/>
        </g>
      </g>
      <path class="cls-2" d="M468.92,766.42c-2.18,5.37-6.86,6.76-11.12,6.42-4.14.31-8.21-1.47-10.57-6.03v-21.2c4.76-6.68,14.82-7.16,21.04-1.63l.65,22.43ZM453.46,746.03l-.1,20.6,9.26.04.1-20.6-9.26-.04Z"/>
      <path class="cls-2" d="M542.88,768.37c-6.19,6.39-15.61,6.3-20.95-.26-1.4-7.84-1.36-15.63-.12-23.66,5.74-5.23,14.53-5.44,20.43-.48,1.53,7.98,1.19,15.2.64,24.4ZM536.47,754.31c.97-3.8-.05-6.47-1.53-7.97-1.98-.26-4.16-.55-7.31.27l.13,19.56c3.54,1.25,6.68.51,8.28-.68,1.07-3.51,1.28-6.43.44-11.18Z"/>
      <path class="cls-2" d="M430.38,772.53l-20.1-.13c-1.93-9.9,3.23-15.55,11-18.46,1.53-1.27,2.83-2.45,3.56-3.64.27-1.58-.4-2.97-1.87-4.01-1.57-.56-3.87-.33-5.69,1.63-1.43,1.01-2.66,1.56-3.5,1.83-1.35-.02-2.42-.65-3.11-1.49-.8-1.76-.52-3.77,1.67-5.58,5.89-3.66,14.5-3.43,19,2.28,2.54,7.97-3.29,13.94-10.67,16.1l-3.02,2.3c-1.56,1.26.27,2.39.19,2.2,1.95.92,3.26.93,4.98.65l6.93-.78c2.38,1.15,2.45,4.78.63,7.09Z"/>
      <g>
        <path class="cls-1" d="M583.24,678.6c2.11-6.24,4.63-13.02.57-18-2.39,6.31-3.06,12.16-8.36,14.93l-7.67-14.76c-1.05,5.44-.77,10.49,1.77,17.48-3.78,1.73-8,1.4-11.92.66,3.1-12.64,3.26-24.74-.19-36.58,3.6-1.22,6.84-1.11,10.45.06l7.72,17.43c4.58-4.68,6.38-10.49,8.67-17,3.8-1.31,7.4-1.65,11.75-.07-4.69,11.65-3.93,24.21-.81,36.13-4.13.79-6.8,1.15-11.97-.25Z"/>
        <path class="cls-1" d="M348.87,670.48c.54,3.71.47,7.26-1.03,8.67-2.61.42-5.21.42-7.67-1.18l-8.95-17.85c-3.12,7.61-.67,12.44.98,18.79-4.46.76-8.4.82-12.74.08,3.56-12.65,3.54-24.63.09-36.79,3.36-1.2,6.82-1.11,10.19.17l10.45,18.44c3.32-7.76.65-12.75-.8-18.58,4.38-.97,7.92-.83,11.89.39-3.93,9.48-2.35,17.41-2.41,27.87Z"/>
        <path class="cls-1" d="M659.21,678.64c-.94-4.97-1.35-9.82-3.71-13.94-4.1.93-4.75,3.16-4.61,5.61.36,1.87,1.49,4.23,3.65,6.78-3.93,3.09-8.55,2.96-13.73,1.78,3.32-12.46,3.34-24.49-.05-37.12l23.56.71c6.23,5.77,5.37,16.02-.2,22.74.94,4.88,2.65,7.74,5.6,12.63-3.34,2.09-6.79,2.03-10.49.81ZM661.2,653.24c0-3.02-2.45-5.47-5.47-5.47s-5.47,2.45-5.47,5.47,2.45,5.47,5.47,5.47,5.47-2.45,5.47-5.47Z"/>
        <path class="cls-1" d="M513.83,678.15c.56-5.8.18-10.83-5.48-13.76-3.8,3.86-2.56,8.75.87,13.57-4.39,2.36-7.82,1.61-12.16,1.11,3.21-12.65,3.4-24.85-.27-37.34l21.55.39c7.38,4.49,7.68,14.94,1.91,21.66-.6,5.3,1.4,9.06,5.5,14.1-3.45,2.04-6.73,2.28-11.92.27ZM516.08,648.49l-9.9.16.15,9.7,9.9-.16-.15-9.7Z"/>
        <path class="cls-1" d="M474.75,642.36c4.42-1.59,8.43-1.24,11.42.23-3.99,11.02-2,21.01-2.17,32.19-6.65,6.49-18.09,6.59-24.86.25l-.14-23.71c-.65-3.1-1.95-5.22-3.91-7.7,3.7-2.93,8.1-2.98,13.23-.81-2.72,6.68-3,13.13-2.2,20.63-.44,2.67-.06,5.02.52,6.87,1.61,1.94,4.37,3.07,9.3,1.78,1.25-9.44,1.58-18.58-1.18-29.74Z"/>
        <path class="cls-1" d="M623.43,664.81c-2.8-1.7-5.42-1.59-7.13-.46-.81,2.32-1.2,4.53.07,8.01.84.77,3.43.74,6.66-.27,2.65-1.24,6.05-1.74,7.66.23.53,2.36.59,5.69-1.5,7.14l-23.9-.44c3.86-12.3,3.89-24.48-.07-36.73l24.97-.66c.83,2.98.75,5.12-.23,7.88-1.09,1.38-4.33.87-6.98-1.02-2.96-.66-5.06-.73-7.28,1.74l.58,6.07c.45.71,3.62,1.97,6.79-.3,2.35.55,2.64,2.68,2.81,4.37-.2,1.47-.68,3.53-2.44,4.44Z"/>
        <path class="cls-1" d="M167.66,679.09l.8-6.88c-2.58-2.67-5.67-1.37-6.81-1.43-2.86.21-4.38,3.46-3.03,7.2-2.77,1.97-5.95,1.71-10.6.74,3.88-11.93,7.43-23.46,10.11-36.25,3.2-1.47,6.61-1.57,10.42-.51,2.94,12.85,6.06,24.62,10.67,36.86-4.32.75-6.52.72-11.55.27ZM166.71,662.73l-3.1-6.86c-1.94,3.53-2.85,4.99-2.84,6.54,1.29,1.2,3.43,1.78,5.94.32Z"/>
        <path class="cls-1" d="M376.68,663.52c-2.95-.47-5.66.77-4.78,4.79-.18.04-1.37,4.15,2.53,4.59.69-.27,3.22-.35,5.7-.65,1.99-1.01,3.99-1.41,5.68-1.06.93,1.61,1.23,3.57.53,7.44l-24.95.38c3.58-12.69,3.7-24.73.06-37.06l24.44-.03c.57,2.95.27,4.88-.02,7.56-1.18,1.6-4.36,1-6.85-.94-3-.72-5.06-.86-7.42,1.68l.61,6.09c.53.55,3.59,1.82,6.91-.31,2.1.59,2.67,3.26,2.89,4.46-.57,2.13-2.55,3.12-5.33,3.05Z"/>
        <path class="cls-1" d="M265.92,664.83c-3.31-1.8-5.73-1.36-7.59-.73-1.6,2.01-1.19,4.85-1.06,6.24,1.28,2.85,4.81,2.99,7.4,1.65,2.88-.49,4.67-.93,7.17-.92.7,1.46,1.12,3.47.79,7.62l-25.01.62c2.66-12.28,3.52-24.63-.21-37.28l24.23-.24c.53,3.19.25,5.06.21,7.76-1.24,1.62-4.4.74-6.79-1.1-3.31-.65-5.91-.76-8.09,1.83-.06,1.08-.8,3.83,1.37,6.35,1.17.31,3.7,1.06,7.19-.68,2.15,1.83,2,6.63.38,8.89Z"/>
        <path class="cls-1" d="M442.86,677.47c-6.34,2.69-13.73,2.82-19.69-.1-1.99-1.91-2.62-3.54-2.56-5.04-.38-2.39,1.55-3.7,3.22-3.52,1.83.21,3.65.93,5.51,2.43,2.48,1.21,4.7,1.27,6.49,1.12,2.07-1.2,2.79-3.46,1.51-5.91-.76-1.05-2.79-2.17-5.15-2.75-8.14-.78-12.96-6.47-11.5-13.43.25-7.66,8.38-10.29,15.9-8.32,3.51-.35,6.01,1.68,7.3,3.41,2.04,2.57,1.75,5.71-1.92,7.7-3.44-3.54-7.76-6.03-13.25-4.09-.88,2.42-.53,3.87,0,5.35.81,1.11,2.74,2.04,5.25,2.13,5.02,1.34,9.6,3.66,11.43,7.13.97,4.94,1.13,9.89-2.53,13.91Z"/>
        <path class="cls-1" d="M234.46,677.29c-6.19,3.11-13.5,3.1-19.86.5-1.65-1.76-2.56-3.19-2.93-4.01-.55-2.05-.03-3.73.25-4.48,3.19-.99,5.39-.13,7.63,1.63,2.23,1.26,4.1,1.72,6.22,1.63,2.18-.25,4.13-2.4,2.95-6.05-.65-1.45-3.65-2.52-6.47-2.82-6.85-1.33-11.51-5.79-10.74-11.44-.44-7.26,5.65-12.09,13.29-10.67,3.42-.49,6.18.13,8.55,2.13,1.88,1.62,3.66,4.74,1.95,8.58l-12.39-4.21c-3.14.25-3.98,2.05-3.74,4.06.16,1.81,2.05,3.6,4.83,4.08,4.79,1.19,8.79,3.37,10.97,6.12,2.37,4.82,2.27,10-.52,14.95Z"/>
        <path class="cls-1" d="M311.54,642.44c-3.78,5.65-6,9.11-7.58,14.14-5.78,7.01-4.37,14.93-1.76,22.51-5.52.64-8.63.74-12.44-.98,4.15-7.31,3.88-13.8-.16-19.46l-8.67-16.76c4.18-.69,7.36-.63,11.44-.07.59,4.34.79,7.35,3.07,12.12,3.89-2.64,5.44-6.74,4.05-11.86,3.99-.62,6.71-1.25,12.06.37Z"/>
        <path class="cls-1" d="M138.27,669.54l.03,9.77-23.99-.11c3.01-12.22,4.33-23.73-.08-36.6,3.62-1.61,7.28-1.67,11.98.15-3.22,10.05-2.31,19.93-1.68,30.36,5.53.47,8.03-.65,13.75-3.59Z"/>
      </g>
      <path class="cls-2" d="M504.56,773.02l-20.86-.66c-1.41-8.79,3.78-15.21,11.77-18.34,1.87-.93,2.98-2.3,3.28-3.64.38-1.57-.18-3.08-1.72-4.12-1.6-.79-4.05-.57-5.73,1.77-1.35,1.24-2.58,1.78-3.52,2.02-1.32-.14-2.47-.72-3.35-1.71-.44-1.68-.02-3.65,1.9-5.71,5.18-3.03,11.71-3.08,17.17-.12,2.47,4.18,2.84,8.16.46,12.71-1.49,2.07-4.97,4.7-9.18,6.14l-3.04,1.96c-.88.59-.86,1.67-.06,2.27,1.06,1.16,2.95,1.42,4.84.81,2.93-.23,5.56-.99,7.38-1.45,2.36,2.43,2.16,5.46.66,8.08Z"/>
      <path class="cls-2" d="M275.93,760.11c-3.49-2.21-6.03-.91-7.01.27-.32,1.86-.27,3.62.68,5.24,1.41,1.14,3.79,1.59,6.93,1.26,2.24-.92,5.11-1.42,6.1-.45.67,2.82-.04,5.17-2.12,6.22l-19.15-.31c2.11-10.94,1.77-21,.12-31.3l20.76.2c.99,2.56.61,4.64-.58,5.56l-5.21-1.06c-2.41-.37-4.28-.32-6.36.09-1.24.59-1.86,2.61-1.21,4.5-.03,2.44,2.29,4.49,5.79,3.12,2.16-.42,3.31.21,3.96,1.05.5,1.89.81,4.36-2.7,5.6Z"/>
      <path class="cls-2" d="M308.64,772.74c-5.65,1.03-11.01-2.79-11.37-7.98,3.49-2.29,6.16-.53,8.15,1.68,2.4.58,3.83.45,5.42-.04,1.19-.75,2.11-2.2,1.78-3.9-.72-1.81-2.92-2.93-5.47-3.44-6.81-1.09-11.83-6.14-9.66-12.91,2.15-4.31,6.23-5.97,10.29-5.74,4.55-.42,8.85,1.78,11.08,6.53-2.93,3.06-6.21,1.77-8.63-.63-2.26-.44-3.63-.07-4.75.44-2.03.05-2.35,1.98-1.84,3.28.39,2.04,3.05,2.82,5.27,3.14,6.09.84,10.42,4.17,10.68,9.23.75,6.05-4.06,10.98-10.93,10.34Z"/>
      <path class="cls-2" d="M348.25,771.24c-2.17,1.84-5.46,1.87-8.18.62l.67-24.49-6.88-.26c-1.62-.74-2.96-3.1-1.28-6.31h22.5c1.65,2.8.89,5.27-1.32,6.31l-5.48-1.28c-2.55,7.98-1.62,16.64-.03,25.43Z"/>
      <rect class="cls-2" x="573.04" y="753.98" width="35.68" height="5.05" transform="translate(-11.57 9.18) rotate(-.88)"/>
      <rect class="cls-2" x="212.05" y="738.53" width="4.74" height="35.96" transform="translate(-542.22 970.5) rotate(-89.97)"/>
      <path class="cls-2" d="M726.88,662.78l-34.59.79c-.83-1.12-1.11-3.24-.22-5.32l33.92.14c1.47,1.62,1.24,3.32.89,4.39Z"/>
      <path class="cls-2" d="M89.47,663.43l-32.8.26c-1.8-.47-2.08-2.3-1.68-3.19.51-1.02,1.39-1.74,3.17-2.55,10.07.83,19.77,1.87,30.27.11,2,.63,3.34,3.09,1.05,5.37Z"/>
      <circle class="cls-2" cx="369.92" cy="769.01" r="3.8"/>
    </g>
  </g>
</svg>