<?xml version="1.0" encoding="UTF-8"?>
<svg id="Calque_2" data-name="Calque 2" xmlns="http://www.w3.org/2000/svg" viewBox="0 0 364.82 505.32">
  <defs>
    <style>
      .cls-1 {
        fill: #0b2a46;
      }

      .cls-2 {
        fill: #c69127;
      }
    </style>
  </defs>
  <g id="Calque_1-2" data-name="Calque 1">
    <g>
      <g>
        <path class="cls-1" d="M165.26,297.71c1.14,1.27,2.03,1.81,2.94,2.23,1.2.14,2.31-.46,3.2-1.58l12.35-15.77-1.1-16.37c-3.12.81-4.13,3.44-5.65,5.74-3.73,6.35-8.47,11.59-15.17,14.94-3.56,9.84-8.67,18.55-16.73,25.14-3.65,4.65-9.45,6.69-15.09,5.22-4.52-2.78-5.7-7.45-5.43-12.86,1.97-14.72,9.94-27.94,20.92-37.73,4.65-3.27,10.06-4.98,14.9-1.85,4.05,3.82,4.3,9.24,3.06,14.97,3.25-1.34,5.2-3.64,7.03-6.3l8.33-12.61c2.91-3.6,7.98-5.29,11.58-2.2,2.24,3.68,1.99,7.63,2.34,12.23l10.55-13.61c2.52-3.19,5.82-5.98,10.13-5.53,2.52,1.18,3.16,3.75,2.67,6-.53,2.11-1.86,4.29-4.41,5.12-2.85-2.02-5.56-1.11-7.34,1.49l-11.12,15.17.91,12.16c.32,1.54,1.18,2.58,2.09,3.08,1.26.39,2.45.16,3.98-.55,6.77-5.85,12.66-12.77,16-21.14l8.34-18.63c.42-2.57,2.11-4.35,3.87-4.62,2.63-.96,4.79-.68,6.88,1.66l-14.38,33.52c-.43,1.86-.41,3.55.87,4.9,1,.75,2.65.29,4.31-.86,5.33-4.76,9.75-10.43,13.44-16.64l11.14-25.67c2.89-1.92,5.97-2.62,9.6-1.57-.19,1.43-1.36,2.77-.39,5.05,3.42-3.64,6.71-7.24,11.68-8.59,2.6-.95,5.26-.44,6.84.72,2.06,1.77,2.35,4.37,2.11,7.24l-10.38,23.57c-1.32,2.92-2.87,5.97-.42,9.56,7.72-3.95,12.11-11.64,16.22-18.87,2.45-7.44,6.24-13.85,11.05-19.84,4.08-4.6,8.76-8.59,14.75-9.95,4.36-.71,7.76.85,9.44,4.9.99-3.2,1.94-5.15,4.16-5.91,2.29-.22,5.14.78,6.01,3.43l-17.81,41.06-20.77,44.1c-5.25,8.85-11.19,16.75-19.87,22.07-5.67,3.02-12.43,4.17-17.77.26-5.46-7.47-2.48-17.81,5.09-22.74,2.33-1.82,5.09-2.81,8.22-.44-3.92,3.74-6.67,7.51-7.18,12.78-.1,1.61.54,2.94,1.28,3.63,1.07.78,2.43,1.05,4.07.67,5.17-2.05,8.69-6.09,11.81-10.51l11.34-20.19-71.78,13.54c-18.05,4.01-35.19,8.34-52.43,14.64-8.22,2.85-15.37,6.62-21.86,12.56-5.07-1.84-9.73-2.12-14.57-.84-7.87,1.45-14.87,4.53-22.1,7.78l-2.57.27c-.56-.51-.67-1.8.03-2.75,5.1-6.56,11.65-11.16,19.24-14.68,14.22-7.15,28.63-11.58,44.14-16.04,41.76-10.61,83.56-17.94,126.33-23.21l7.75-17.14-7.73,4.71c-2.74.77-5.5.75-7.63-.88-1.98-1.64-2.96-4.29-3.36-8.2-4.19,4.46-7.23,9.32-12.44,12.7-3.79,2.7-9.12,2.43-11.81-1.48-2.21-4.94-.6-9.97,1.53-14.78l9.64-20.35c.59-1.02-.05-1.94-.3-2.18-.81-.86-1.88-.59-2.77.07-5.32,2.67-8.55,7.4-12.03,12.17-6.24,9.82-10.32,20.39-14.62,31.38-2.76,1.1-5.49,1.49-8.64,1.81l1.48-7.41c-4.19,3.67-7.07,7.96-12.2,9.97-2.68.95-5.49,1.1-7.86-.35-1.69-1.37-2.32-3.9-2.61-7.38l-8.49,8.85c-3.66,3.27-8.08,5.48-12.93,3.89-4.21-2.65-4.31-7.28-4.33-12.81l-12.52,16.16c-2.89,3.28-7.54,4.6-10.8,1.34-1.79-4.1.62-8.25,3.73-10.89ZM299.58,275.94c9.06-8.57,14.77-19.43,17.86-31.03-.25-2.12-.99-3.74-2.45-4.42-1.41-.17-2.71.43-4.36,1.29-8.84,7.96-14.79,18.95-17.55,30.71-.13,2.23.27,3.99,2.3,4.86.75.12,2.33-.32,4.2-1.4ZM158.34,272.6c.47-2.02-1.15-3.17-2.47-3.59-1.32-.12-2.68.78-3.75,2.08-1.77,2-2.09,4.51-1.79,7.01.03,2.03,1.4,3.92,4.52,4.1,1.87-2.77,2.18-6.11,3.49-9.6ZM219.81,272.41l-2.74,4.56,1.32.79,2.74-4.56-1.32-.79ZM140.73,308.15c5.75-5.83,9.52-12.53,11.91-19.83-4.82-1.47-7.08-4.26-8.32-9.09-5.98,7.72-9.65,16.54-10.48,26.34.34,1.93,1.05,3.3,2.44,3.87,1.16.23,2.77-.05,4.45-1.29ZM135.87,286.95c-1.23-1.03-1.26-1.65-1.61-2.53-1.65,1.65-3.07,3.32-2.67,6.49l4.28-3.95Z"/>
        <path class="cls-1" d="M84.68,173.46l9.22-2.47c2.3,2.24.51,4.02-.05,7.48,4.34-4.61,8.27-10.06,15.09-11.29,2.92-.64,5.78.65,7.21,2.4,2.11,2.29.7,4.95.73,8.43,3.95-6.05,7.51-11.85,14.18-14.79,2.97-1.46,6.01-1.24,8.23.28,2.4,1.77,3.33,4.77,2.99,8.02-.65,4.76-2.65,8.95-4.46,13.35l-7.73,18.62c-.14,1.7.08,3.11,1.01,4.17,1.25.55,3,.01,4.51-1.14,6.95-5.17,11.52-12.44,16.11-19.87l12.34-28.47c3.23-1.27,6.14-1.61,9.39-1.55l.4,4.2c3.13-3.26,6.44-5.77,10.78-7.13,5.52-1.78,11.07,1.12,11.93,6.98.63,3.81.18,7.61-.71,11.29-2.54,8.68-6.9,15.87-11.8,24.15,8.11-3.5,12.85-10.11,17.44-16.72,3.92-10.4,9.59-19.69,17.59-27.23,3.94-3.42,8.24-5.9,13.42-6.11,3.87.13,6.21,2.42,7.67,5.94,1.06-2.7,1.22-4.4,2.91-6.13l7.83,3.07-13.03,29.98c-1.34,3.13-2.57,6.27-1.21,9.84,3.07.3,5.38-1.66,7.53-3.61l11.02-14.07c2.79-8.61,6.63-16.51,12.84-23.02,4.07-4.86,9.34-8.2,15.64-9.18,5.34-.57,9.53,3.3,9.05,8.72.08,4.9-2.18,9.31-6.13,11.95-1.77,1.23-3.66,1.05-4.81-.63-1.06-1.11-.84-2.96.59-4.56,1.66-2.52,3.86-4.52,4.49-8-2.14-1.83-4.45-.54-6.63.99-8.63,7.79-14.27,18.55-15.64,30.15.2,2.42.88,4.44,1.88,5.8,1.86,1.61,4.41,1.59,7.12,1.21,10.13-3.9,17.01-11.92,22.95-21.11l11.63-27.49-10.04,1.37c-.58-3.28,1.05-6.07,3.76-7.2l9.43-1.56,8.29-17.87c2.02-1.83,4.4-2.89,7.02-3.59,2.05.38,3.08,2.21,2.72,4.39l-7.39,15.54,14.05-2.05c.7,3.35-.86,6.13-3.51,7.76l-13.76,1.92-13.61,33.5c-.9,3.45-1.64,6.84-.52,10.34,2.25,2.3,5.49,1.94,8.14.28,4.28-2.75,7.28-6.62,10.18-10.81.62-.5,1.45-.46,2.03-.08.57.31.98,1.28.43,2.56-3.78,8.12-10.57,14.64-18.84,17.88-3.98.78-7.69.18-9.97-2.22-2.46-2.75-2.54-6.4-2.23-11l-7.01,6.32c-.92-.6-1.54-1.13-1.7-1.35-.87-.84-1.61.2-1.65.46-.73.96-.24,2.08,1.28,2.71-4.09,5.08-9.96,8.8-16.69,10.13-3.77.45-7.24.33-10.11-1.98-2.65-1.94-3.81-5.48-4.59-9.54-5.72,6.35-10.32,12.27-17.22,15.69-2.97.86-5.95.93-8.01-.46-2.66-1.5-2.84-4.04-3.23-7.89-3.72,5.19-7.62,9.1-13.01,12.15-3.38,1.55-7.12,1.7-10.22-.62-2.06-2.19-3.57-6.1-2.73-10.38-1.98.28-2.8,1.72-4.07,2.97-2.2-.59-3.82.02-4.84.82-1.59,1.32-2.18,2.95-2.36,5.22-6.84,5.51-14.96,9.35-23.58,10.99-4.19.24-7.43-1.38-8.55-5.94l-9.08,22.64c-2.42,5.65-4.33,11.3-5.49,17.41-2.84,1.61-5.46.52-6.93-1.34-2.39-1.88-2.16-4.77-.85-7.43l11.02-30.32c-5,5.16-9.07,10.26-15.7,12.49-2.63.72-5.26.58-7.31-.8-1.75-1.25-2.88-3.64-3.07-6.46-.44-5.73,1.73-10.86,3.89-16.07l8.69-20.07c-2.17-1.83-3.91-.47-5.63,1.33-10.72,14.23-19.49,29.74-24.99,46.64-3.07,1.63-6.27,2.81-9.56,1.73-.61-4.76,1.97-8.61,3.17-13.02l11.49-29.58c.49-1.37.4-2.74-.85-3.55-.62-.39-1.79,0-3.1.88-8.32,8.11-14.5,17.92-19.47,28.53l-8.63,22.83c-3.89,1.24-6.85,3.04-11.2,2.96l22.25-59.68ZM216.59,190.92c9.36-8.92,15.84-20.01,19.18-32.13-.2-2.53-.87-4.56-2.74-5.23-1.59-.07-3.1.73-4.93,1.7-9.4,8.65-15.83,20.46-18.11,33.18.29,2,.81,3.36,2.18,4.06,1.11.03,2.48-.66,4.42-1.58ZM168.27,199.59c7.55-7.78,13.31-16.67,16.59-26.73,1.14-3.67,2.08-7.43.01-11.05-4.69.54-7.71,3.45-10.59,6.52-6.98,7.54-11.5,16.53-15.08,26.25-.2,2.6.79,4.63,2.32,5.77,1.95,1.17,4.14.78,6.74-.75ZM204.63,181.78c1.96-1.75,3.77-2.85,5.33-5.79-2.95,0-6.09,2.09-5.33,5.79ZM157.99,182.12l-2.91,4.85,1.62.97,2.91-4.85-1.62-.97ZM76.6,205.18c2.86-.9,4.58-2.99,3.81-5.62-1.44,1.97-3.55,3.13-3.81,5.62Z"/>
        <path class="cls-1" d="M87.06,265.55c4.73-7.31,10.38-13.98,18.47-15.67-.37,4.22-3.3,5.92-5.18,8.48l-13.2,26.85-20.67,43.78c8.02,4.82,17.63,4.5,25.41-1.14,8.87-5.98,15.92-14.58,17.75-25.2.4-3.39-.04-6.39-1.97-8.6-1.84-2.06-4.73-2.99-8.14-2.97l-10.68,1.49c-1.81-1.61-1.87-3.82-.7-5.9.51-1.38,2.18-2.67,4.53-2.97,12.75-2.4,22.52-11.69,27.42-23.63,1.38-3.61,1.32-7.13-.91-10.42-1.66-2.71-5.46-4.06-9.71-4.5-14.42.63-27.65,6.52-39.33,14.92-6.93,5.03-13.08,10.73-16.62,18.53-.66,2.44-.73,4.64.87,6.59,1.25,1.42,3.85,1.89,6.35.5,1-.57,2.34-1,3.47-.16-2.03,6.37-8.34,8.84-14.65,7.98-5.57-1.35-8.44-6.88-7.3-12.51,1.35-6.48,5.15-11.33,9.62-16.28,13.51-13.19,30.35-22.55,48.88-26.7,7.03-1.26,13.7-1.38,20.12,1.34,6.83,2.53,10.54,8.9,9.71,16.33-.05,5.84-3.15,10.83-6.43,15.48-4.57,5.73-10.13,9.47-16.93,13.93,8.55.93,12.94,7.93,12.62,16.77-2.03,17.31-14.32,32.23-30.89,37.85-9.27,3.2-18.64,1.78-26.49-4.54-5.15,6.98-10.57,13.02-17.88,17.3-5.23,2.95-10.88,4.82-16.87,3.9-7.05-.9-11.3-6.65-10.66-13.75,1.16-12.06,11.66-21.7,23.77-20.53,2.55,1.95,4.97,3.26,7.23,6.1-9.62-2.4-18.94,2.63-20.78,12.3-.29,2.81.35,5.15,2.28,6.64,1.81,1.46,4.58,1.79,7.38.72,7.93-3.46,13.86-10.08,17.77-17.4-2.62-.55-3.7-.95-4.05-2.99,2.13.58,3.67,1.22,5.63,1l18.12-37.13,12.68-25.79Z"/>
        <path class="cls-1" d="M253.76,9.7c-43.39-5.88-85.7-4.74-128.24,2.54-21.33,3.29-41.07,8.34-61.55,14.69-17.78,7.74-29.69,24.13-30.94,43.64l.07,56.97c.3,1.88-.64,3.23-2,4-1.11.8-2.58,1.01-4.35-.45l.17-51.53c-2.35-24.89,11.11-47.61,33.88-57.91C116.75,3.83,175.11-3.23,233.72,1.36c33.49,2.74,65.38,8.99,96.85,20.24,20.01,8.98,32.69,27.97,33.81,49.95l-.11,60.69c-.82,1.19-1.97,1.47-3.07,1.28-1.15-.13-2.48-.78-3.11-2.34l-.08-61.58c-2.12-18.52-12.54-34.37-29.32-42.16-24.43-8.77-48.5-14.43-74.92-17.75Z"/>
        <path class="cls-1" d="M20.58,256.07c5.47-2.57,8.52-7.26,11.61-12.04,5.77-11.32,9.97-22.95,13.81-35.18l11.03-29.93,17.92-41.7c-7.57,1.27-14,3.28-20.69,5.94-4.58,2.38-9.18,4.63-12.46,8.56-3.17,3.19-3.59,7.5-.28,10.91-1.63,2.19-3.93,2.81-5.94,2.41-2.52-.47-4.65-2.01-6.04-4.45-2.72-5.43-.34-10.97,4.11-15.15,7.78-6.82,17.73-10.28,27.99-12.63l20.77-5.64c.13-1.89-1.67-3.13-3.43-4.29-.03-3.95,4.1-6.97,8.05-5.76.81,2.24.66,4.33,2.22,6.17,2.9-2.03,6.01-1.64,7.4.65,1.29,2.15.32,4.98-2.35,6.39l-7.25,3.74-16.51,39.52-20.53,56.35c-3.45,7.91-6.66,15.42-11.97,22.05-5.86,7.32-13.89,12.48-23.35,12.35-7.68.27-13.77-4.65-14.62-12.19-.81-10.47,4.79-20.4,14.26-24.76,1.67-.38,2.86-.63,4.42-.41,1.02.43,2.2,1.68,2.63,3.65-7.01,3.73-11.76,10.45-11.51,18.57.2,2.56,1.15,4.77,2.73,5.98,2.05,1.61,4.79,1.88,7.98.89ZM58.89,138.17c-5.08-3.41-10.82-1.3-13.73,4.14,4.44-1.93,8.49-2.63,13.73-4.14ZM23.57,259.39c2.14-1.29-.1-3.29-1.62-1.77-1.56-.03-2.09.93-2.49,1.47.58.85,1.24,1.28,1.74,1.49.49,0,1.35-.02,2.37-1.2Z"/>
        <path class="cls-1" d="M178.04,231.36l-25.65,7.13c.16-5.25,5.11-7.29,9.08-10.1,13.68-7.77,28.34-11.66,43.98-14.92l90.7-13.18c8.35-1.24,16.08-2.31,23.81-5.27,6.06-2.3,11.16-6.08,14.47-11.62,2-3.35,2.02-6.89,1.04-10.96,4.77,1.32,5.55,5.87,5.07,10.14-1.17,6.75-5.6,11.97-11.31,15.67-8.22,5.73-17.56,7.51-27.61,9.3l-81.8,13.93c-10.21,2.52-19.79,4.83-28.27,11.03-4.3-1.76-8.45-2.16-13.52-1.16Z"/>
        <path class="cls-2" d="M323.41,33.25c-31.2-10.8-62.02-16.45-94.43-18.98l-59.99-.21c-35.25,2.77-69.21,9.12-102.75,20-7.11,3.26-12.48,7.94-17.33,13.87-6.58,8.1-8.85,18.07-8.58,28.7l-.54,50.95c-.56-.09-1.45-.11-2.17.03l-.39-54.57c-.25-18.11,10.77-33.93,27.18-41.77,33.86-11.01,67.98-17.37,103.4-20.29l22.9-1.37,19.47.48,23.54,1.39c20.21,1.96,39.73,4.9,59.44,9.51,12.87,3.39,25.02,6.56,36.98,11.96,15.37,9.07,24.5,25.03,23.95,42.84l-.04,55c-3.02.51-3.82-1.84-3.58-4.17l.26-55.11c-.97-16.97-11.22-31.44-27.31-38.25Z"/>
        <polygon class="cls-2" points="196.81 121.54 182.99 130.83 187.74 115.03 175.39 104.92 191.43 104.43 196.27 89.26 201.91 104.46 217.98 104.8 205.62 114.79 209.85 130.8 196.81 121.54"/>
        <path class="cls-1" d="M302.89,305.69l4.44-8.68,31.41-4.15c7.73-2.1,14.7-6.63,17.04-14.28.76-2.85.47-5.52-1.08-7.58-1.58-1.69-4.14-2.05-7.79-1.32.85-2.95,3.82-5.05,6.28-5.1,3.68-.46,6.1,1.46,8.13,4.44,2.53,5.58,1.24,11.88-2.34,17.06-5.02,8.06-13.39,12.7-22.63,15.22l-33.47,4.38Z"/>
        <path class="cls-1" d="M116.16,86.08l-9.23,3.75c-.4-3.8-.74-7.33-3-10.61-.88-3.71-2.22-6.41-5.68-9.36l12.39-5.36c3.05-.25,5.27,1.33,5.68,4.35-.22,2.88.78,5.22,2.98,6.95.97,2.05,1.64,3.82,1.19,6-.46,1.67-1.91,3.58-4.32,4.28ZM110.62,68.49l-5.02,2.59,2.19,4.23,5.02-2.59-2.19-4.23ZM112.69,82.83c1.92-.13,3.88-1.45,2.94-3.53-.11-1.14-1.22-3.33-3.25-1.91-1.79.18-3.76,1.34-2.76,3.47.07,1.07.98,3.57,3.07,1.97Z"/>
        <path class="cls-1" d="M251.39,54.42c-3.36,6.47-4.24,13.61-3.87,21.16-2.61.27-5.25-.22-7.54-1.85,2.13-2.21,2.79-3.92,3-5.7.21-2.68-2.55-3.92-5.36-3.27-1.37,2.79-1.01,5.38-.29,8.77-2.65.13-4.91-.16-7.85-1.24,3.88-6.87,4.9-14.01,4.02-21.44,2.89-.04,5.15.31,7.6,1.52-1.78,2.86-2.93,4.38-3.17,7.45,1.84,1.01,3.58,1.36,5.74,1.63,1.62-2.49,1.02-5.18.11-8.33,2.6-.36,4.16-.23,7.6,1.3Z"/>
        <path class="cls-1" d="M137.3,78.62c-3.64,2.16-7.16,1.71-9.7-1.08l-3.79-13.34c-.32-3.73,2.41-6.86,6.34-6.8,3.04-1.98,6.17-1.53,8.46,1.28l3.77,14.15c.19,2.84-1.73,5.45-5.08,5.79ZM137.85,73.97l-3.7-13.01c-2.06-.45-3.95.3-5.67,1.87l3.67,13.05c2.33-.45,3.56-.73,5.71-1.91Z"/>
        <path class="cls-1" d="M264.97,81.16c1.29-2.26,1.47-3.76,1.13-4.67l-4.14-1.59c-1.78.63-2.12,2.52-1.84,4.5-2.5-.04-4.34-.6-7.22-1.93,5.61-6.18,9.19-12.57,13.01-19.57l5.69,2.03c-.25,8-1.22,15.45-.03,23.42-2.52-.43-3.91-.76-6.61-2.19ZM266.19,71.77c.62-1.81,1.04-3.36.24-5.76l-2.7,4.07c-.34.88.42,2.48,2.46,1.7Z"/>
        <path class="cls-1" d="M182.83,61.67c-2.18-.54-3.78-.19-4.86.74-.23,1.43.04,3.23.17,3.87,1.86,1.36,3.5.83,5.06,0,1.11-.79,2.09-1.07,2.99-.95.92,1.08,1.04,2.55.58,4.92l-14.85,1.06c2.2-7.41,1.37-14.5-1.45-21.91l14.79-1.35c.45,2.23.59,3.28.4,4.98-.91.42-2.61.44-4.19-.42-1.57-.21-2.85-.12-4.08.47-.36,1.02-.42,2.19,0,4.02.69.57,2.56.85,4.58-.32,1.58.69,1.7,3.43.85,4.89Z"/>
        <path class="cls-1" d="M156.14,73.56c-2.51,1.26-4.38,1.57-7.11,1.36l4.41-12.13-7.77-9.16c2.54-1.36,4.4-1.37,6.75-1.73.18,2.61.95,4.47,2.85,5.89,1.19-2.55.96-4.34.76-6.47,2.35-.6,4.24-1.13,6.72-.59-1.65,4.15-3.57,7.49-4.18,11.56l7.85,9.37c-2.66,1.46-4.73,1.65-7.47,1.46.66-2.47.31-3.94-1.96-5.63-1.16,1.05-2.1,2.75-.86,6.06Z"/>
        <path class="cls-1" d="M218.61,70.74c-1.89.76-4.42.21-6.7-.23-.06-1.53.45-2.4,1.4-3.34l.9-14.83c-2.62.02-3.65.77-5.61,1.37-.96-2.09-.43-3.82.45-5.85l15.9,1.31c.15,2,.27,3.5-.23,5.62-2.31-.04-3.29-1.07-5.39-2.46-1.46,6.02-1.82,11.13-.73,18.41Z"/>
        <path class="cls-1" d="M283.94,88.74c-3.1-.65-5.07-1.71-7.37-3.55,2.92-2.23,4.58-4.84,5.16-8.46,1.8-3.52,3.13-6.9,3.04-11.25,2.58.33,4.44,1.09,6.96,2.47-4.41,6.28-7.07,13.17-7.79,20.79Z"/>
        <path class="cls-1" d="M240.77,237.95c-.78,3.93-4.77,6.49-8.58,5.14-3.3-2.66-2.65-7.01-.04-9.97,1.6-2.11,4.16-2.68,6.16-1.73,2.61.97,3.7,3.66,2.46,6.56Z"/>
        <path class="cls-2" d="M75.24,96.51c-1.25-.42-1.53-1.13-1.71-1.47-.16-.85.5-1.71,1.64-1.86l13.5-8.64c1.65.37,2.05,2.01,1.08,3.22l-14.51,8.75Z"/>
        <path class="cls-2" d="M315.95,95.26l-13.69-8.35c-.88-.31-1.28-1.01-1.15-1.81.02-.72.84-1.57,2.13-1.03l14.68,9.2c.94.52,1.39,1.6.35,2.53-.22.38-1.67.97-2.33-.54Z"/>
        <circle class="cls-1" cx="287.34" cy="61.16" r="2.03"/>
        <rect class="cls-1" x="290.68" y="61.82" width="3.79" height="3.29" transform="translate(146.99 325.06) rotate(-73.14)"/>
      </g>
      <g>
        <path class="cls-1" d="M33.33,376.36l-.04,43.22c-.57,11.53,2.87,22.45,9.97,31.3,5.98,7.26,12.81,12.61,21.36,16.86,33.08,16.99,68.65,27.17,105.91,30.12,17.23,1.69,33.01,1.77,50.16.14,39.39-2.95,76.84-13.9,111.34-32.8,14.88-8.69,24.9-22.76,26.42-39.99l.04-97.59c-.14-1.92.84-3.03,2.09-3.5,1.16-.43,2.5-.51,4.19.88l.04,99.57c-1.38,19.46-12.28,35.57-28.81,45.52-30.29,17.1-62.88,27.51-97.62,32.28-62.23,8.71-125.73-1.9-180.93-31.43-16.81-9.45-28.19-24.7-30.33-43.77l-.06-49.4c-.03-1.83,1-3.04,2.46-3.61,1.11-.22,2.95.22,3.8,2.2Z"/>
        <path class="cls-2" d="M37.54,427.13l.32-52.12c.55.05,1.38-.08,1.97-.23l.41,48.81c1.02,14.39,8.85,25.83,20.87,33.72,35.1,19.75,74.01,30.83,114.41,33.57l37.58.26c39.44-2.19,77.46-12.06,112.24-30.71,14.67-6.94,24.08-19.79,26.19-36.1l.33-97.97c.77.3,1.71.58,2.5.61l.11,98.37c-1.63,15.81-11.08,28.64-24.84,36.44-35.41,19.25-73.92,29.85-114.26,32.37-29.03,2.11-57-.52-85.35-7.03-25.35-5.66-48.84-14.78-71.23-27.6-11.48-7.39-19.17-18.37-21.25-32.4Z"/>
        <polygon class="cls-1" points="300.89 428.63 288.56 428.63 288.5 418.38 300.82 418.35 301.06 407.72 313.55 407.57 313.59 418.19 301.12 418.57 300.89 428.63"/>
        <polygon class="cls-1" points="88 418.38 76.87 418.4 76.81 407.65 88.4 407.67 88.52 418.03 89.15 418.47 100.83 418.4 101.13 407.57 112.6 407.64 112.93 418.16 124.72 418.38 124.85 407.6 136.63 407.65 136.69 418.06 137.14 418.49 149.56 418.48 149.54 407.67 161.05 407.65 161.36 417.99 162.24 418.32 173.73 418.32 173.96 407.76 185.69 407.68 186.27 417.97 187.24 418.33 198.75 418.41 198.87 407.8 210.67 407.7 211.05 418.1 223.79 418.37 223.87 407.67 236.24 407.7 236.4 418.03 237.15 418.41 249.52 418.52 249.52 407.7 261.72 407.68 262.3 417.99 263.24 418.34 275.49 418.47 275.55 407.65 287.6 407.65 287.76 418.43 275.25 418.69 274.79 428.75 262.16 428.87 262.33 419.23 262.08 418.51 249.4 418.54 249.22 428.56 236.87 428.65 236.95 419.25 235.98 418.34 223.72 418.49 223.6 428.65 211.59 428.6 211.02 418.43 198.65 418.48 198.5 428.63 186.56 428.64 186.35 419.23 186.06 418.45 173.78 418.51 173.57 428.69 161.64 428.7 161.41 419.2 161.06 418.53 149.47 418.65 149.08 428.78 137.14 428.72 137.14 419.36 135.97 418.32 124.79 418.56 124.6 428.71 112.97 428.67 112.65 418.38 100.66 418.53 100.52 428.64 88.71 428.65 88.8 419.19 88 418.38"/>
        <path class="cls-2" d="M221.27,455.04c.68,2.67.25,4.69-.66,6.01-1.88.94-4.03,1.05-6.06.16-1.42-.96-2.28-3.15-1.76-5.65-.39-2.25-.22-4.49,1.33-5.92,1.41-.7,3.46-.87,5.26-.32,1.73.68,2.77,2.86,1.89,5.72ZM215.43,451.5v8.32s3.57,0,3.57,0v-8.32s-3.57,0-3.57,0Z"/>
        <path class="cls-2" d="M250.29,460.83c-2.88,1.56-5.98,1.25-8.05-.81-.77-3.36-.81-6.52-.03-9.8,2.53-1.45,5.31-1.52,7.88-.06.73,3.46.68,6.6.21,10.67ZM244.42,451.2l-.23,8.34,3.92.11.23-8.34-3.92-.11Z"/>
        <path class="cls-2" d="M158.96,454.23c1.97.15,3.51,1.19,4.08,2.42.69,1.79-.02,3.49-.78,4.21-1.86,1.11-3.52,1.13-5.53.7-.89-.18-1.42-.68-1.65-.95-.77-.69-.54-1.72.05-2.16.97-.33,1.93.06,2.73.82.94.43,1.54.33,2.1.06.5-.09.93-.59.72-1.25.1-.88-.68-1.73-1.99-1.54-3.01-.27-4.54-2.52-3.75-5.03.76-2,3.26-3.24,5.87-2.16.88-.12,1.45.42,1.6.84.35.38.69.97.37,1.89-.51.45-1.58.65-2.58-.28-.75-.68-1.48-.65-2.06-.31-.41.24-.89.71-.93,1.56.3.4.83.88,1.76,1.16Z"/>
        <path class="cls-2" d="M235.65,461.26c-2.56.71-5.7.73-8.38-.09.18-4.44,3.27-6,6.25-7.58.34-1.52-.42-2.34-1.42-2.47l-4.06,1.75c-1.21-2.71,1.87-4.37,4.02-3.89,2.87-.03,4.35,2.53,3.34,5.46l-5.47,4.33c2.06,1.33,3.61.56,5.18.48.75.68.66,1.64.54,2Z"/>
        <path class="cls-2" d="M206.86,461.44l-8.27.22c-.64-4.3,2.41-6.58,5.96-8.02.33-1.6-.5-2.38-1.46-2.47l-3.84,1.82c-1.21-2.82,1.37-3.99,3.17-3.94,2.65-.46,4.21,1.41,4.47,3.13.16,2.49-1.62,4.08-3.94,4.7-.78.44-1.18.91-1.39,1.28-.44.96.76,2.05,1.92,1.15.97.09,1.45-.11,2.09-.35.41-.22,2.17.21,1.29,2.48Z"/>
        <path class="cls-2" d="M145.58,456.55c-1.05-.29-1.61.2-1.8.64-.18.67-.12,1.26.07,1.8.49.5,1.6.66,2.72.26.99-.15,1.61-.14,2.5.35l.12,2.04-8.24.14c.62-4.19.55-8.13-.03-12.73l6.76.14c1.14-.05,1.67,1.12,1.14,1.9-.3.34-1.09.84-2.21.36l-2.48.04c-.42.49-.7,1.41-.27,2.49.41.39,1.49.78,2.77.14,1.12.27,1.35,1.29,1.05,1.96-.3.36-.98.79-2.1.48Z"/>
        <path class="cls-2" d="M174.59,451.59c-1.3,3.41-.26,6.81-.25,10.51-3.79-.09-3.11-3.38-2.43-5.26l-.47-4.57c-.71-.35-2.54-.19-3.5-2.17,2.78-1.59,5.59-.9,8.7-.83.98.27,1.15,1.27.93,1.79-.22.18-.92,1.08-2.98.52Z"/>
        <rect class="cls-2" x="115.6" y="454.59" width="14" height="2"/>
        <rect class="cls-2" x="262.6" y="454.59" width="14" height="2"/>
        <circle class="cls-2" cx="182.9" cy="460.26" r="1.47"/>
        <g>
          <path class="cls-1" d="M283.6,387.64c.97-2.87,2.13-5.99.26-8.28-1.1,2.9-1.41,5.6-3.85,6.87l-3.53-6.79c-.48,2.5-.35,4.83.81,8.05-1.74.8-3.68.64-5.49.3,1.43-5.82,1.5-11.38-.09-16.84,1.66-.56,3.15-.51,4.81.03l3.55,8.02c2.11-2.15,2.94-4.83,3.99-7.83,1.75-.6,3.41-.76,5.41-.03-2.16,5.36-1.81,11.14-.37,16.63-1.9.36-3.13.53-5.51-.12Z"/>
          <path class="cls-1" d="M175.74,383.9c.25,1.71.22,3.34-.47,3.99-1.2.19-2.4.19-3.53-.54l-4.12-8.21c-1.43,3.5-.31,5.73.45,8.65-2.05.35-3.87.38-5.86.04,1.64-5.82,1.63-11.34.04-16.93,1.55-.55,3.14-.51,4.69.08l4.81,8.49c1.53-3.57.3-5.87-.37-8.55,2.02-.45,3.64-.38,5.47.18-1.81,4.36-1.08,8.01-1.11,12.82Z"/>
          <path class="cls-1" d="M318.56,387.66c-.43-2.29-.62-4.52-1.71-6.42-1.89.43-2.18,1.45-2.12,2.58.17.86.68,1.95,1.68,3.12-1.81,1.42-3.93,1.36-6.32.82,1.53-5.73,1.54-11.27-.02-17.08l10.84.33c2.87,2.66,2.47,7.37-.09,10.46.43,2.24,1.22,3.56,2.58,5.81-1.54.96-3.13.93-4.83.37ZM319.48,375.97c0-1.39-1.13-2.52-2.52-2.52s-2.52,1.13-2.52,2.52,1.13,2.52,2.52,2.52,2.52-1.13,2.52-2.52Z"/>
          <path class="cls-1" d="M251.66,387.43c.26-2.67.08-4.98-2.52-6.33-1.75,1.78-1.18,4.03.4,6.25-2.02,1.09-3.6.74-5.6.51,1.48-5.82,1.57-11.44-.12-17.18l9.92.18c3.4,2.07,3.54,6.88.88,9.97-.27,2.44.64,4.17,2.53,6.49-1.59.94-3.1,1.05-5.48.12ZM252.69,373.78l-4.55.07.07,4.46,4.55-.07-.07-4.46Z"/>
          <path class="cls-1" d="M233.67,370.97c2.03-.73,3.88-.57,5.26.11-1.83,5.07-.92,9.67-1,14.81-3.06,2.99-8.33,3.03-11.44.11l-.07-10.91c-.3-1.43-.9-2.4-1.8-3.54,1.7-1.35,3.73-1.37,6.09-.37-1.25,3.07-1.38,6.04-1.01,9.5-.2,1.23-.03,2.31.24,3.16.74.89,2.01,1.41,4.28.82.57-4.35.73-8.55-.54-13.69Z"/>
          <path class="cls-1" d="M302.1,381.3c-1.29-.78-2.49-.73-3.28-.21-.37,1.07-.55,2.08.03,3.69.39.35,1.58.34,3.07-.12,1.22-.57,2.78-.8,3.53.1.25,1.09.27,2.62-.69,3.29l-11-.2c1.78-5.66,1.79-11.26-.03-16.9l11.49-.3c.38,1.37.35,2.36-.11,3.63-.5.64-1.99.4-3.21-.47-1.36-.3-2.33-.33-3.35.8l.27,2.79c.21.33,1.67.91,3.12-.14,1.08.25,1.21,1.23,1.3,2.01-.09.67-.31,1.63-1.12,2.04Z"/>
          <path class="cls-1" d="M92.35,387.87l.37-3.17c-1.19-1.23-2.61-.63-3.13-.66-1.32.1-2.01,1.59-1.4,3.31-1.27.91-2.74.79-4.88.34,1.78-5.49,3.42-10.8,4.65-16.68,1.47-.68,3.04-.72,4.8-.23,1.35,5.91,2.79,11.33,4.91,16.96-1.99.34-3,.33-5.32.12ZM91.91,380.34l-1.43-3.16c-.89,1.63-1.31,2.29-1.31,3.01.6.55,1.58.82,2.73.15Z"/>
          <path class="cls-1" d="M188.54,380.7c-1.36-.22-2.6.35-2.2,2.2-.08.02-.63,1.91,1.17,2.11.32-.13,1.48-.16,2.62-.3.91-.46,1.84-.65,2.61-.49.43.74.56,1.64.24,3.43l-11.48.18c1.65-5.84,1.7-11.38.03-17.06h11.25c.26,1.34.13,2.23,0,3.47-.54.74-2.01.46-3.15-.43-1.38-.33-2.33-.4-3.41.77l.28,2.8c.24.25,1.65.84,3.18-.14.96.27,1.23,1.5,1.33,2.05-.26.98-1.17,1.44-2.45,1.4Z"/>
          <path class="cls-1" d="M137.57,381.3c-1.52-.83-2.64-.63-3.49-.34-.74.93-.55,2.23-.49,2.87.59,1.31,2.21,1.38,3.41.76,1.32-.23,2.15-.43,3.3-.42.32.67.52,1.6.36,3.51l-11.51.28c1.23-5.65,1.62-11.34-.1-17.16l11.15-.11c.24,1.47.11,2.33.1,3.57-.57.75-2.02.34-3.13-.51-1.53-.3-2.72-.35-3.72.84-.03.5-.37,1.76.63,2.92.54.14,1.7.49,3.31-.31.99.84.92,3.05.18,4.09Z"/>
          <path class="cls-1" d="M219,387.12c-2.92,1.24-6.32,1.3-9.06-.05-.91-.88-1.2-1.63-1.18-2.32-.18-1.1.72-1.7,1.48-1.62.84.1,1.68.43,2.54,1.12,1.14.55,2.16.59,2.99.52.95-.55,1.28-1.59.7-2.72-.35-.48-1.29-1-2.37-1.27-3.75-.36-5.96-2.98-5.29-6.18.12-3.53,3.86-4.73,7.32-3.83,1.62-.16,2.77.77,3.36,1.57.94,1.18.8,2.63-.89,3.54-1.58-1.63-3.57-2.77-6.1-1.88-.4,1.11-.24,1.78,0,2.46.37.51,1.26.94,2.42.98,2.31.61,4.42,1.69,5.26,3.28.45,2.27.52,4.55-1.16,6.4Z"/>
          <path class="cls-1" d="M123.09,387.04c-2.85,1.43-6.21,1.43-9.14.23-.76-.81-1.18-1.47-1.35-1.84-.25-.94-.02-1.72.11-2.06,1.47-.46,2.48-.06,3.51.75,1.03.58,1.89.79,2.86.75,1.01-.12,1.9-1.11,1.36-2.78-.3-.67-1.68-1.16-2.98-1.3-3.15-.61-5.3-2.66-4.94-5.26-.2-3.34,2.6-5.57,6.12-4.91,1.57-.23,2.84.06,3.94.98.87.74,1.68,2.18.9,3.95l-5.7-1.94c-1.44.11-1.83.94-1.72,1.87.07.83.94,1.66,2.22,1.88,2.2.55,4.05,1.55,5.05,2.82,1.09,2.22,1.05,4.6-.24,6.88Z"/>
          <path class="cls-1" d="M158.56,371c-1.74,2.6-2.76,4.19-3.49,6.51-2.66,3.23-2.01,6.87-.81,10.36-2.54.29-3.97.34-5.72-.45,1.91-3.37,1.78-6.35-.08-8.96l-3.99-7.71c1.92-.32,3.39-.29,5.26-.03.27,2,.36,3.38,1.41,5.58,1.79-1.21,2.5-3.1,1.86-5.46,1.84-.29,3.09-.57,5.55.17Z"/>
          <path class="cls-1" d="M78.82,383.47v4.5s-11.03-.05-11.03-.05c1.38-5.63,1.99-10.92-.04-16.84,1.67-.74,3.35-.77,5.51.07-1.48,4.62-1.06,9.17-.77,13.97,2.55.22,3.7-.3,6.33-1.65Z"/>
        </g>
      </g>
    </g>
  </g>
</svg>