<?xml version="1.0" encoding="UTF-8"?>
<svg id="Calque_2" data-name="Calque 2" xmlns="http://www.w3.org/2000/svg" viewBox="0 0 711 286.29">
  <defs>
    <style>
      .cls-1 {
        fill: #7a1e1e;
      }

      .cls-2 {
        fill: #0a0a0a;
      }
    </style>
  </defs>
  <g id="Calque_1-2" data-name="Calque 1">
    <g>
      <path class="cls-2" d="M137.3,171.49l-1.4,6.3-3.4,15.5-2.1,9.3,4.4,9.4c.8-.3,1.3-.5,1.3-.5l2-1.2-1.3,2.3,3.3,2.8-1.7.8-3.4,2.1-2.6-1.1-20.1,3.8-6,1.3-3.4,1.6h-3.1c-.7,0-2.7,0-3.4.2l-5.7,1.5h-2.5l-5.9.5,3.8-2.9c.8-.6,2.5-2.2,3.1-3l2.1-2.8,5.2-7.5,2.5-4,.8-3.1.8-3.3.5-4.9c.1-1.1.6-2.5,1-3.7l2.4-8.6,2.9-15.3c.2-1.1.4-3.1.7-4l1.5-4.7,1.2-5.5,1.7-7.9.7-3.2.7-3.2,1.5-.6-.6-3c-.2-1-.4-3.5,0-4.4l1.6-5,.8-5.3,1.4-4,.7-4.1,3.6-17.4.8-4,1.1-2.9-3.2-5.7c-1.1.3-2.1.6-2,.6l1.5-2.4-3.9-4-2.9-1.5c.4-.2,2.6-1,3.6-1.2l4.6-.7c.3-.4,1-1.2,1.4-1l1.8.7,20.8-2.7,12.1-1.5,8.7-1.1,6.6-.5-2.6,3.1c-.4.5-.9,2.3-1.1,2.9l-1.8,1.6.6,8.2c.2,3,1.8,6.1,2.8,8.4l-1.5,1.5,2.1,10.8,1.9,12.1,1.8,12.7,7.6-14.7,7.4-14.1,10.9-19.2,6.4-12.2-3.3-4.8,5.4-.8,3.2-1.9,1.4,1.3,6.3-.8,5.5-.6,4-.4,8.2-.9,10.1-1.1,3.7-.4,8-.9,1.3.3-7.4,7.5-4.1,4.8c-.7.8-2.3,2.4-2.5,3.4l-.7,4.3,1.8.6c.3,0,.2,1.7,0,2l-1.4,5.2v-4.6c0-.7-.5-1.8-.8-2.3l-5.8,27.1-.6,3.4-1.3,5.1-1.5,6.4-2.4,11.1-1.7,7.9-1.2,5.1-1.1,5.3-.9,6.4-.9,4.6-.7,3.3-.9,3.9-2.7,12.2-1.8,8,2,5c.2.6,1.2,1.9,1.8,2l1.9.4c.4,0-.9,1.4-.9,1.8.2,1.4,2,3.5,3.7,4.7l-.2,1.5-2.2.3-6.6.8-8.7,1.5-4.6,2.3.9-2.4h-1l-9.5.9-5.6.7-9,1.4h-3.9v-1l3.5-4.3,3.3-4.6,4.5-4.9.8-3.8,4.9-23.1,3-13.6,4.5-21.1,3.1-14.9h-.7l-8,15.5-11.5,21.2-11,20.1-3.4,6.2-5.3,9.7-1.6,4-5.3,9.7-3.9,6.9-1-5.1-.8-5.2-.8-8.9-1-5.6-.3-4-1.9-13,1.1-1.6-.3-1.2-1.1-4.7-2-12.1-2.2-16.2-.8-6.1-.6-1.2-2.1,10.2-5.9,26.8-1.7,8.3-.2.4.2.2h.1ZM234.9,64.69l3.2.2-3.2-.2ZM216.9,67.89c.3,0,1.3.3,1.6.2l1.7-.7v-1.3l-6.2.6c.5.8,1.1,1.7.9,1.3l2-.2h0v.1ZM233.9,67.19l-1.8,2.9,1.3.8,1.8-2.9-1.3-.8ZM245.3,69.49s-1.3-.8-1.3-.5l-.3,1.8,1.6-1.3ZM242.5,73.79l-.4.4.4.4.4-.4-.4-.4ZM152.3,75.19c-2.2-.8-2.8-.2-3.3,1.1l3.3-1.1ZM211.5,76.19l-.4.4.4.4.4-.4-.4-.4ZM224.6,76.19l-4.1,5.8,1.3.9,4.1-5.8-1.3-.9ZM130,76.79l-2.4.5c-.3,0,0,1.4.4,1.3l1.5-.4.4-1.4h.1ZM135.6,79.39c.7-.2,1.3-.8,1.5-1.5l-1.5,1.5ZM165.6,80.19v-1.6c-.1-.3-1.6,0-1.5.4l.6,1.4.5,3,.6-.4-.2-2.8h0ZM197.7,92.19l2.3-2.3,2.4-5c.4-.8.7-2.7.6-3.1l-1.6,2.2-2.7,5.3-.9,3h0l-.1-.1ZM229,82.59l-.4.4.4.4.4-.4-.4-.4ZM217.1,83.39l-.4.4v.8l.4.4.4-.4v-.8l-.4-.4ZM133.5,84.19l-.4.4.4.4h.8l.4-.4-.4-.4h-.8ZM237,100.89l2.2-7.9.6-2.5.4-1.6c0-.3-1.2-.4-1.4-.2l-1.6,5.6-1.1,3.8c-.2.7.5,2.5.9,2.8h0ZM210.6,94.79l1.9-3.9s-.8-.7-1-.4l-.8,1.3-1.5,2.5-.6,1.4c0,.3,1.1.7,1.3.4l.6-1.3h.1ZM130.9,95.39l3.5-3.3c-.9-.4-1.2-.5-1.2-.5l-1.8,2c-.2.3-.4,1.1-.4,1.9h-.1v-.1ZM164.1,98.39l-1-4c.2,0,0,0-1.3,0l.9,4.7,1.3,5c.6-1.9.6-4,.2-5.9h-.1v.2ZM152.6,101.99c.8,0,1.3,0,1.3.2s.3-1.2.3-1.4l.2-2.4c0-.3-.9-.5-1.1-.5l-1.7,1.9,1,2.2h0ZM193.5,103.99l-.8-.7-1.4,3.3,2.2-2.6ZM215.9,109.29l1.8-3.4c0-.8-2-1-1.8-.2l-.6,3.5c0,1.3.3,1.1.6,0h0v.1ZM219.2,106.39l-1.9,5.7,1,.3,1.9-5.7-1-.3ZM222.4,112.59l1.7-3.4-1.6-1.5-.6,4.4c-.6,1.4-.3,1.6.5.5h0ZM154.5,116.79l.2-6.9-1.6-1.1v4.9l1.4,3.1ZM206.7,114.19c.5-.9,1.2-2,1.1-2l-1.1,2ZM229.1,118.89l-1.4,7s1.5.3.6,0l2.8-4.6,2.5-6.2c.3-.7.3-1.9.4-3.4l-1.7,2.9-1.7,4.1v-4.7l-1,2.6-.6,2.2h.1v.1ZM151,114.39l-.4.4v.8l.4.4.4-.4v-.8l-.4-.4ZM188.2,118.39l2-3.4-.6-.4-1.3,2-.2,1.8h.1ZM126.4,115.19l-.4.4.4.4.4-.4-.4-.4ZM191.9,123.59l-.6-1.5-.3-6.2-.6.4v9.3l1.5-2.1h0v.1ZM126,122.69l3.6-3.6c.3-.3.2-1.8-.1-1.6l-1.1,1-3,3.3c-.2-.2.2.3.6,1h0v-.1ZM160.3,120.89c.1-.6-1-2.1-1.5-2.6v3.8c-.1.2,1.1,1.2,1.1,1.1l.4-2.4h0v.1ZM168.2,129.19h.7v-7l-1.7-1.7.5,4.5.5,4.2ZM204.1,121.09h-1.3l-1.1,3,2.4-3h0ZM157.9,123.99c0-2.1-1.8-2.1-1.7,0,0,2.1,1.8,2.1,1.7,0ZM162.2,123.19l-.4.4v.8l.4.4.4-.4v-.8l-.4-.4ZM154.5,127.59l-.2-2c0-.3-1.6.2-1.4.5l1,1.7c.2,1.2.5.9.6,0h0v-.2ZM212.3,127.09l-.4.4v.8l.4.4.4-.4v-.8l-.4-.4ZM182.1,130.29l-.4.4.4.4.4-.4-.4-.4ZM226.6,131.09l-.4.4.4.4.4-.4-.4-.4ZM232.2,131.89l-.4.4v.8l.4.4.4-.4v-.8l-.4-.4ZM121.3,138.09l.8-2.9.6-2.2c-.9,0-1.2,0-1.3.3l-.5,1.8-1.4,4.6c.4-.2,1.7-1.2,1.8-1.5h0v-.1ZM167.2,151.59l.5-4.4v-1.9l-.7-4.4-.7-4.2-1-3.3-.5,4.1.8,1.8.5,5.5v3.2l-.2,5.4,1.4-1.8h-.1ZM179.7,135.89l-.4.4.4.4.4-.4-.4-.4ZM191.1,148.79l2.7-8.1c.2-.5.2-1.8.2-2.4l-3.8,8.4c0,.2.5,1.4,1,2.1h-.1ZM219.4,138.29l-.4.4v.8l.4.4.4-.4v-.8l-.4-.4ZM157.7,143.89l-.7-3.2-.4-1.7c0-.3-1.4.5-1.3.9l.9,4c0,.6,1.9.5,1.6,0h-.1ZM181,148.29l3-3.7c.4-.5.9-1.6,1.4-2.7-1.4.8-2.7,2-3.4,3l-2.4,3.2,1.3.2h.1ZM229.4,148.49l.9-2.2-.3-4.1-1.2,3.4-.8,2.3c0,.3.2,1.5.3,1.8s1.1-.8,1.2-1.1h-.1v-.1ZM120.3,152.09c-.6-1.4-1-2.5-1-2.9l.2-5.7c-.1.2-.8,1.3-.9,1.6l-1.3,4.2,1.9,3.9,1.1-1.2h0v.1ZM184.8,148.19l.4.4,2-2-.4-.4-2,2ZM219.3,173.99l1.1-3.1,2.2-6.5,2.5-6.5,2-6.3c-3.1,1.5-5.9,8.2-6.6,11.8l-.9,5-.3,5.5h0v.1ZM118.4,161.39l.9-1.9-1-1.8-1.7-1.5-.4-2.5c.4,0-.4,0-.8.2l-.7,3.6-.3,1.6c0,.3,1.3,0,1.3,0-.2-2.5,1.4-1.9,1.4-.6-.6,1.2-1.1,2.4-1.1,3.1s1.4,2,1.6,1.5l.8-1.6h0v-.1ZM160.5,161.29l1.3,1.8v-9.9c-1.4,2.1-1.9,4.2-1.3,6.1v2h0ZM181.1,155.49l-.9-1.3-1.8,3.2,2.7-1.9ZM181.8,160.19l.8-2,.9-2.2c0-.3.2-1.2.2-1.9l-6.2,12.2,1.2.3,3.1-6.4h0ZM208.2,159.29l.2-1.9v-1.8c-.7,1-1.4,2.6-1.5,3.2l-.4,4.2,1.2-1.9c.2-.3.5-1.4.5-1.8ZM155.8,163.69l-.4.4v.8l.4.4.4-.4v-.8l-.4-.4ZM126.2,167.19c.7-.8,1.3-1.3,1-1-1.1,1.1-1.4,1.4-1,1ZM131.1,167.89c0-.9-.1-1.2,0-.3.2,2.1.2,2.2,0,.3ZM136.8,170.29v-3.8l-1.1,2.8v3.3l.9-2,.2-.4h0v.1ZM121.2,167.29l-2,4,1.6.8,2-4-1.6-.8ZM162.1,178.99c.7-1.3,1.2-2.3,1.4-3l.5-2.1v-4.6c-.1,0-2,5.2-2,5.2-.3.9-.1,2.9,0,4.6h.1v-.1ZM209.2,177.49l4.2-8.3c-1.1.4-2.3,1.3-2.6,2l-3,6,1.4.3h0ZM222.2,170.89h-.8v7.2h.8v-7.2ZM111.4,183.39l1.3-.3,1.7-5.9c.3-1,.3-3.2.2-4-.9,1.1-1.5,2.2-1.7,2.9l-.7,3.5-.8,3.7h0v.1ZM176.7,173.79l-2,1.4v2.1l2-3.5ZM110.7,182.49l.4-2.6.6-1.5c.1-.3-1.3-.8-1.3-.4l-.4,1.7-.8,3c0,.3.5,1.9.4,1.7l1.1-1.9h0ZM163.4,182.79c0-2.1-1.8-2.1-1.7,0,0,2.1,1.8,2.1,1.7,0ZM168.5,189.29c1.7-1.8,2.5-4.7,2.3-7.5l-2.2,4.1c-.3.6-.3,2.2-.1,3.4h0ZM218.6,185.09l2-3.4-2.9,2.5c-.4,1.8.2,1.8,1,.8h0l-.1.1ZM126.7,193.89l.5-2.6,1.1-2.8,1.7-5.7c-.7.7-1.6,1.8-1.8,2.3l-1.6,4.5-1.1,3.2v3.1c.4-.7,1.2-1.6,1.3-1.9h-.1v-.1ZM159.4,188.39l-.8-4.2-.6,1.8,1.4,2.4ZM201.4,190.69c1.1-2.7,1.6-4.1,1.8-6.4l-2.3,3.5-.4,2.3c-.7,1.3-.3,1.6.9.6h0ZM213.9,184.39l-.4.4.4.4.4-.4-.4-.4ZM210.3,190.59c.6,0,1.7,0,1.6-.2l-.4-1.4-1.2,1.6h0ZM161.3,192.79l-.9-3.1-1.3,3.3c.4,1.2,2,.7,2.2-.2h0ZM221.5,191.59c0-.5-.4-.9-.9-.9s-.9.4-.9.9.4.9.9.9.9-.4.9-.9ZM116.3,197.49l2.9-4.7c.4,0-.3,0-1-.4l-2.3,3.2c-.4.5-.7,2.2-1,3.1.2,0,1.3-1,1.4-1.3h0v.1ZM162.9,191.99l-1.9,3.2,1.3.8,1.9-3.2-1.3-.8ZM208.3,193.19l-.4.4.4.4.4-.4-.4-.4ZM199,198.69l1.7-2.6c.3-.4.6-1.4.9-2.3l-3.6,3.3,1.1,1.6h-.1ZM107.2,201.39l1.5-4.3c.2-.6,0-1.9-.2-2.9l-2.9,7.2c-.13,0,.37,0,1.5,0h.1ZM128,197.99h0q0,.87,0,0ZM226.8,199.59c-.2-1.4-1-2.3-3.5-2.9-.7.4-1,2-.3,1.7l3.9,1.2h-.1ZM209.3,200.69l4.2-1,1.6-.4c.3,0,0-1.3-.4-1.3l-1.5.4-4.4,1.1-1.6.4c-.3,0,0,1.4.5,1.3l1.8-.4h-.2v-.1ZM196.8,199.79l-1.1-1.2-2.8,4.1,3.4-2.4.5-.5h0ZM198.2,200.19c-1.9-.2-1.9,0-.5.8l.5-.8ZM126.1,203.49c0-.5-.4-.9-.9-.9s-.9.4-.9.9.4.9.9.9.9-.4.9-.9ZM112.1,204.89l-3,3c1.6,0,2.7-.7,3-3ZM121.3,209.09c.7-.2,1.3-.8,1.5-1.5l-1.5,1.5ZM127.6,209.59c.2,0,.8-.4.5-.2l-.5.2ZM128.8,209.79l-.4.9,1.5,1.6c.7,0,.8-1.9,0-1.7l-1.2-.8h.1ZM122.8,211.79l-1.3-1.1-1.7,1.3,3-.2ZM105.3,212.89l-3.1,1.5.6,1.7,2.4-3.2h.1ZM110.2,213.29l-4.4,1.7,3,.3,1.4-2ZM96.1,220.09c.7,0,1.8-2.8,1.1-2.7s-2.1.6-2.5.9l-2.9,2.5,4.2-.7h.1Z"/>
      <path class="cls-2" d="M380.7,174.49l2,4.8,1.2.6,1-2c.2-.3,1.4.4,1.2.7l-2.3,2.3,3.1,4.9c.3.4,1.8,1.3,1.4,1.5l-2.1.7c-.9.3-3.2.8-4.2.8l-6.4.2-26.2,2.8-1.1,1.4c-.3.4-1.8-.7-2.3-1l-6.8.3h-4.9l5-5.7,2.6-3,5.4-6.2,4.8-10.6,6.7-15.2c.2-.5.7-2.1.7-2.2-1.7-1.8-1-3.6.5-6,1.2,1.2,1.2,1.1,1.9.8l5.4-13.3c.2-.4.2-2.3,0-1.9l-1.8,3c.7.4,0,0-.7-.4l3.9-8.5,2.3-4.9,1.2-2.6,3-6.5,8.5-20.4,5.3-13c.2-.5.5-.9.4-1.1l-.2-1.2,4-9.4,3.1-8c.2-.4.3-1.7,0-2l-2-3.6-3,.7,2.8-2.1-5-6.5,11.4-1.5,7.1-.8,10.7-1.1,7.1-1.2,4.5-.2,7.7-.9,13.3-1.7c2.7-.3,4-2.3,4.4-1.8l.8,1.2,7.7-.2c-1.7,1.2-2.6,1.7-4.2,2.3l-3,2.4c-.4.3-.8,2-1,2.4-.3.8-1.7,0-5,4.4l-2.8,3.8-.3,14.9v10.4l.3,12.7v30.3l.3,10.3-.3,3.9v10.6l-.7,6.8c.6.7,1,1.2,1,1.4v2.9l.2,12.3c0,1.1,1,3.2,1.6,4l2.4,3.4c0,.5.8,0,1.3-1.1.2-1.8.9-1.6,1-.2-.2,2,0,4.5.8,5.4l2.8,3-2.4.5c-.8.2-1.8.7-3.7,1.7.3.3-.6-.7-1.2-1.3l-16.3,1.4-12.2,1.2h-8.7l-4.2,1.3-1.6.7c-.3,0-.8-.6-1-1l-2.9-.7,4.6-3.5c.5-.4,1-2.4,1.4-2.9l6.5-8c.4-.5.7-2.4.7-3.2l.2-18.2-21.9,2.5-7.3.8-7.5,18.6-1,3.1.7.7h.3ZM451.2,41.69c1.6-1.1.9-2.9-1.1-1.3,0,0,.4.4,1.1,1.3ZM442.5,42.39c-1.3-.2-2.4-.4-2.3,0s.3,1.3.3,1.2l2-1.1h0v-.1ZM399.7,46.79c0-.5-.4-.9-.9-.9s-.9.4-.9.9.4.9.9.9.9-.4.9-.9ZM412.4,47.59c0-.5-.4-.9-.9-.9s-.9.4-.9.9.4.9.9.9.9-.4.9-.9ZM424.3,47.99l.6-1.2h-4.4l-1.8,1.5,5.7-.3h-.1ZM442.6,48.79l-.4-1.2-2.5,2.5,1.2.5,1.7-1.8ZM416.7,54.09l.4-1.4c0-.3-1.1-.3-1.6-.2l1.2,1.6h0ZM438.9,53.49h-2.4v2.4l2.4-2.4ZM434.2,56.29l-.4.4.4.4h.8l.4-.4-.4-.4h-.8ZM407.8,60.19l-2.1,3.8,1.5.8,2.1-3.8-1.5-.8ZM417.7,60.79c.5.6,1.3,1.5,1.4,1.2l.4-1.4c0-.3-.9,0-1.8.2h0ZM430.5,64.49l-.8-1-2.4,3.8c1.1-.2,1.8-.3,2-.7l1.2-2.1ZM411.5,73.39c.4-.2,1.7-.8,1.8-1.1l1.5-3.4-4,3.3-.9,1.2c-.2.2.5,0,1.6,0h0ZM419,126.19v-15.8l.4-22.3.5-16.5-.8.4-5.3,14.3-6.9,18.5-1.1,4.8-3.1,6-3.1,8.3-2.1,5,21.6-2.7h-.1ZM404,72.29l-.4.4.4.4.4-.4-.4-.4ZM443.5,72.99c0-.7-1.8-.5-1.9.2l1.5,2.6.4-2.7h0v-.1ZM427.9,74.49l-.8-1.5c-.2-.3-1.3.5-1.5.8l2.4,2.5v-1.8h-.1ZM433.2,78.19l-1.6-1.2c0,.6,0,1.7.2,1.6l1.4-.4h0ZM441.9,81.79l-.5,5.9,1.8.2.5-5.9-1.8-.2ZM403,88.09l1.7-3.4-1-1.2-2.3,4.2v3.2l1.6-2.7h0v-.1ZM434.2,88.99l-.4.4.4.4.4-.4-.4-.4ZM408.1,94.29c.3-.7,0-2.4-.2-4.1l-1.5,3.9-.5,1.5c0,.3,1.2.8,1.3.5l.9-1.8h0ZM442.3,91.99s-1.9.8-1.9,1.3c0,1.2.6,3.5,1,4.8l.9-6h0v-.1ZM385.2,101.59c1.1-.8,1.6-1.2,1.8-1.4l.9-1.9c.3-.6.3-1.8.3-3.2-.9,1.2-1.8,2.8-2.2,4l-.8,2.5h0ZM393.9,107.29l.4-4.5.9-3.1.4-1.5c0-.3-1.1-.7-1.2-.4s-.6,1.1-.7,1.4l-.7,4.2-.5,2.6c0,.5.9,1,1.4,1.3h0ZM428.9,99.99c0-.3-.7-2.2-.7-2.2l-.8.2v5.3l1.7,1.7-.2-5ZM380,116.09c.4-.5,1.5-2,1.8-2.7l1.2-3.1c.3-.7.5-2.5.5-3.1l-1.5,2.5c-.3.5-1.1,2.1-1.2,2.7l-.8,3.7h0ZM426.3,114.39l-1.5,4.5,1.2.4,1.5-4.5-1.2-.4ZM434.9,116.49l-.6-2.1c0-.3-1.4,0-1.3.4l.5,1.7h1.4,0ZM445,116.79c0-.7-1.8-.5-1.9.2l1.5,2.6.4-2.7h0v-.1ZM437,136.59l1.5,2.6v-20.8l-1.6,1v17.2h.1ZM373,133.09l.9-2.3.7-1.7,1.2-2.9c.3-.7.5-2.5.5-3.1l-1.2,2.4-1.3,2.9-2.4,5.3c-.2.4,0,1.3,0,2.5l1.7-3.1h-.1ZM423.3,123.19l-.8,1.7.8-1.7ZM393.1,126.49l-.4-2-1.3,3.5,1.7-1.5ZM426.3,128.69l-.4.4.4.4h.8l.4-.4-.4-.4h-.8ZM413.9,133.29l1.6-.9c.3-.2,0-1.3-.4-1.2l-1.5.4-1.2,1.1c1.4.6,1.5.7,1.5.7h0v-.1ZM395.5,134.99l1-1.7c.3-.4-2.5.3-2.8.2l-1.6-.9-2.3,3.2,2.7-.3,1.9.3c.3,0,1-.4,1.2-.7h-.1v-.1ZM400,133.49l-.4.4.4.4.4-.4-.4-.4ZM388.9,147.69l6.9-6.6c-.8,0-1.9.5-2.4,1l-8.4,6.4-2,1.7c1.9-.4,4.8-1.4,5.9-2.5h0ZM417.1,145.49c.6,0,.5-1.8,0-1.9l-2.5,1c-.4.2-1,.8-1.7,1.6l4.2-.7h0ZM428.6,154.09l.7-3c.3-1.1.3-3.8-.2-4.9l-1.2-2.5-2.3,2.4-2.5-.8,1.7,2.4,3.6,6.3h.2v.1ZM367.8,155.99v-7.5c-2,1.3-1.9,3.8-.9,5.7l.9,1.8ZM441.9,157.39c0-.5-.4-.9-.9-.9s-.9.4-.9.9.4.9.9.9.9-.4.9-.9ZM439.7,159.39l-.6-2.1c0-.3-1.4,0-1.3.4l.5,1.7h1.4,0ZM371.1,161.29c0-.5-.4-.9-.9-.9s-.9.4-.9.9.4.9.9.9.9-.4.9-.9ZM359.9,161.79s-1.3-.9-1.3-.5l-.3,1.8,1.6-1.3ZM377.2,169.99l1.3-3.9c.3-.9.3-2.6.3-4l-2.4,6.5c.5.7,1,1.5.9,1.4h-.1ZM371.5,163.09l-.8,1.3.6,1.8c0,.3,1.4,0,1.3-.4l-1.1-2.6h0v-.1ZM443.2,167.79l-.3-3.9-1.5.2.3,2.4,1.4,1.2h0l.1.1ZM427.8,168.79h-1.4l.6,2.1c0,.3,1.4,0,1.3-.4l-.5-1.7h0ZM425.9,170.49l-1.2-.4-1.7,1.5v1.7l3-2.9h0l-.1.1ZM356.9,173.09c.8-1.3,1.2-2.1,1.1-2.1-.9,1.1-1.4,2.2-1.1,2.1ZM445.2,176.89c.5,0,1.5-1.1,1.3-1.5l-.8-1.3-1-1.8c0-.2-.2-.4-.4-.2l-.9,1.2-1.9,1.9c-.3.4-.8,1.2-1.1,1.3l-1.2.7,5.8-.4h.2v.1ZM450.1,176.49q0-.47,0,0t0,0ZM355.8,182.19l3-2.5-.3-1.2-3.4,2.8-1.9,1.5,2.6-.6h0ZM363.3,181.89c.8-1.3,1.2-2.1,1.1-2.1-.9,1.1-1.4,2.2-1.1,2.1ZM378.8,181.09l-1.2-1.2c-.3.5.7,1.5,1.2,1.2ZM431.5,179.69l-3.7.4c-1.3.7-1,1,.3,1.1l3.4-1.5ZM351.5,183.59l-.4.4.4.4.4-.4-.4-.4ZM369.5,186.89l1.7-1.8-3.6.5-2.5.4-.4.6,4.9.3h-.1ZM350.4,187.99l-1.3-.5h-2.9l.4,1.2,3.7-.7h.1Z"/>
      <path class="cls-2" d="M559.9,114.79l-.5,4.3-.9,2.4-1,6.3c0,.7.6,2.3.2,2.9s-1.6,2.1-1.7,2.7l-1.9,10.2-1.3,9.4c-.2,1.3,0,3.4.2,4.7l-11.2,10.4-6.5,6.1,3.1,1-4.2.9-2.7,1.6-1.3-1.1-16.8,1.7-5.1,1.4-2.9-1.1-24,2.7c-2,.4-4.6-.2-5.5-1.1.2-1.2.3-2.3,0-2.6l-7.1-7.5-3.5-4c-.2-.3-.7-.8-.9-.7l-1.1.6-.5-2.8c.9-2.2,1.7-4.8,2.3-7.4l1.6-8.1.8-3.9,3.9-19.9.8-4.9c.7-4.6,4.2-6.5,3.9-13.3l-.2-3.4-.3-5c0-.4-.3-1.3,0-1.5l1.8-1,.4-2,1.1-5.8,3.2-16.6,1.2-6.2-2.9,1.5,3.1-4,.7-3.1.8-3.9.9-4.6c.6.2-.7-.2-.8-.3l-4,1.5,6.7-6.6c.8-.7,2.9-1.6,3.8-1.9l11.5-11.3,2.8-1.9,3.7-2.6v2.5l10.3-1,7.2-.8,9.3-1.1,10.5-1.3,6.3-.9,4.4-.7c1-.7,2.2-1.5,1.8-1.2l3.8,2.9-.5,1.6,12.4,11.2c.4-.2-1,.5-1.5.7l-2.1,10-1.3,6.2-2.3,11.1c-.9,4.1,1,4.2.2,5.4l-1.8,2.6-1.9,3-.3-4.4-4.4.7-4.7.7-12.9,2c-.9,0-2.8,1.7-3.4,2.3l-3.1,3.3v-3.9l.9-4.2,1.7-6.2,2.2-11.4-1.6-2.5c0-.2-1.1-.6-1.3-.5l-1,.6-.9-1.1-12.4,1.8-4.3.6c-.4.5-2.4,2.7-2.6,3.7l-2.1,10-3.6,17.4c-.2,1.2-.2,3.2,0,4.3l-1.7,4.2-1.7,7.7v3.9l-1.7,6.5-2.9,13.5-1.5,5.2-3.6,17,3.8,3.9,3.6-1.4,2.3.7,4.6-.3,7.4-.7,4.3-4.5,3.4-15.5.6-4.8-2-2.3,3.6-.9,3.1-.4,5.4-.7,2.5-.3,13.1-1.6,2.8-.7,2.2-4.2h1.8l-.1.1ZM546.4,27.69l-.4.4.4.4h.8l.4-.4-.4-.4h-.8ZM560.5,32.99h1.3l-3.5-3.7-1.3,1.2,3.5,2.5ZM515.8,34.49l4.5-.6,3.6-1.1-5.1.2-4.3.7-3.4.5-1.6.3c-.3,0,0,1.4.4,1.3l1.4-.6,4.5-.7h0ZM541,32.99c.5.6,1.3,1.5,1.4,1.2l.4-1.4c0-.3-.9,0-1.8.2h0ZM557.7,37.09l-1.2-1.2c-.3.5.7,1.5,1.2,1.2ZM536.5,42.59l6.6-2.3c-1.1-1-1.6-1.6-2-1.4l-1.4.6-3.6,1.7c-1.3,0-1.2.7.4,1.3h0v.1ZM560.5,39.49l-2.2,3.6,1.3.8,2.2-3.6-1.3-.8ZM514,42.89c-1.2-.2-2.3.9-2.1,2.4l2.1-2.4ZM565.3,47.59l.3-3.5-2.4,5c.9-.4,2.1-1.1,2.2-1.6h0l-.1.1ZM492.7,48.19c1.9,0,2.6-1.1,2.3-2.3l-2.3,2.3ZM545.1,52.39l2.8-3.9-3.1-1.5h-3.5l1.2,2.5,1.8,3.7.7-.7h0l.1-.1ZM506.4,53.79l.6,1.3,4.8-4.8-.5-.5-1.1.8-3.8,3.1h0v.1ZM516,53.29c1-1.5,1.3-2,.5-.7l-2.7-1.5s-.9.9-.9.8.8.7,1,.9l.9,1c.2.2,1.1-.4,1.3-.6h0l-.1.1ZM554.9,55.39l2-2-.4-1.5-3.1,3.1,1.5.4ZM504.1,60.19c.8-1.3,1.2-2.1,1.1-2.1-.9,1.1-1.4,2.2-1.1,2.1ZM510.6,62.69q0-.47,0,0t0,0ZM554.6,63.09c.5.2-1.2-.8-1.2-.4v2.3s0-.2,1.2-1.8h0v-.1ZM564.4,68.99l-.3-4.8-1.9,4.7h2.2v.1ZM493.9,67.49l-.4.4v.8l.4.4.4-.4v-.8l-.4-.4ZM556.7,67.49l-.4.4.4.4.4-.4-.4-.4ZM487.8,72.89l.9-3.9-2,2.6,1.1,1.4h0v-.1ZM544.4,70.19l-.4-1.2-2.5,2.5,1.2.5,1.7-1.8ZM491.8,76.39l2.8-.8c.6-.2,1.4-1.6,1.6-2.3l.9-3.7-3,1.9-2.1.5-1.2,3.1-1.2,1.8,2.2-.6h0v.1ZM500.8,75.99c1.2-1,2.1-2,1.9-2.5l-1.1-2.4-.8,4.9h0ZM498.4,88.19l1-3v-2c-1.4,1.9-2,3-2.4,4.5l-.4,1.6c0,.3,1.1.7,1.2.4l.6-1.6h0v.1ZM493.3,87.39c-1.2-.2-2.3.9-2.1,2.4l2.1-2.4ZM485.9,92.09c.7-1.1,1.2-1.9,1.2-2l-1.1-1.2-1.2,2s1.2,1.5,1.1,1.2ZM503,98.39l.6-6.9c-.3.3-1.3,1.7-1.4,2.3l-1.6,11.3c1.2-1.7,2.1-4.3,2.3-6.6h.1v-.1ZM494.5,112.79l1.2-3.5c.3-.9,0-2.8,0-3.7l-1,2.8c-.4,1.1-.2,3.3,0,4.4h-.2ZM479.6,112.09q0-.47,0,0,0,.87,0,0ZM497.6,125.39c1.2-3.3,1.9-5.8,1.7-7.8l-.7-5.8-2.2,7.4,1.2,6.2h0ZM493.5,126.29h.8l-.2-8.7-1.4,1.9.3,2.6.5,4.2h0ZM548.4,124.19c.2-.2,0-1.8-.3-1.7l-1.5.8c-.4.2,0,1.5.3,2.4l1.5-1.5ZM555,125.39c.2-.6.2-1.7.2-3.2l-2.3,4c-.2.3,1.5,1.4,1.6,1.1l.5-1.9h0ZM477.9,139.19v-4.4l.2-4.7c0-1.4-.4-3.4-1-4.7l-.8,9.7.7,5.6s.9-1.2.9-1.5h0ZM534.5,131.89l-.4.4v.8l.4.4.4-.4v-.8l-.4-.4ZM545.6,132.69l-.4.4.4.4.4-.4-.4-.4ZM548.4,148.69l1.3-1.8.5-6.6.3-5.3c-.9,1.1-1.4,2.3-1.5,3.1l-.4,4.6-.3,6.1h.1v-.1ZM531.7,142.59l-.8-1-.8,3.9,1.6-2.9ZM494.3,146.19c.3.2-.2,0-1.3-.7l-.2,4,1.5-3.3ZM524.7,155.89l4-4c0-.8-1.9-.9-1.8,0l-2.2,4.1v-.1ZM536.6,154.99l1.8-1.9.5-1.7c0-.3-1.2-.8-1.3-.4l-.4,1.7-.6,2.3h0ZM480.3,155.49l.2-3.9-1.9,3.6,1.8.3h-.1ZM494.2,161.09l2.5-5.2-2.3-2.5-1.5,3.5,1.3,1.8c.3.4-.3.9-1.1,2.1l1.1.3h0ZM541.7,161.69l5.1-4.7-.9-1.5c0-.2-.4,0-.5,0l-4,5.7c-.7.5-1,.8.3.5h0ZM521.3,157.19c.6,0,1.7,0,1.6-.2l-.4-1.4-1.2,1.6h0ZM501.6,158.49c.7-.8,1.3-1.3,1-1-1.1,1.1-1.4,1.4-1,1ZM471.2,161.69l-.8.8,3.2,3.2.8-.8-3.2-3.2ZM475.8,164.49l-1.2-2.4c0,1,.7,2.2,1.2,2.4ZM516.3,168.49l-3.1.4c.5,1.8,2.9,1.7,3.1-.4ZM530.5,172.49l2.1-2.4-2.8.6c-.9.2-2.2.8-3.3,1.5l3.9.4h0l.1-.1ZM486.7,170.99l-4.2.2.4,2.8,3.8-3ZM481.4,173.29c0-.6,0-1.7-.2-1.6l-1.4.4,1.6,1.2h0ZM503.8,175.29l1.5-2.3c.4.2-.7-.3-1.6-.6h-3.7l-2.7.8c0,.2-.6,1.4-.2.4l4.6,1.1,2.2.5h0l-.1.1ZM478,174.09l-.4.4.4.4h.8l.4-.4-.4-.4h-.8Z"/>
      <path class="cls-2" d="M248.5,194.59l6.7-8.9,1.4-5.9.9-3.6,2.3-10.6,2.8-13,.7-5.4c0-.7,1.2-2.3,1.5-2.9.6-2.1,1.5-6.2,1.4-8.3-1.9-5.7,3.5-7.8,3.3-14.5s.2-2.1.4-2.9l4.4-19.7,3.7-16.9-.7-1.3.9-3.3,2.3-8.1-4.3-6.3-2.1,1.5v-2.2c.2-.4.5-1.9.2-2.2l-3-2.3-2.3-1.4,6.5-1.2,1.9-.4,5.3-.4,6.5-.5,3.2-.3,15.9-2,4.1-.5c1.8-.2,4.5-.5,5.7-1.2l2.5-1.4,1.5,1.6,10-1.2,9.4-1.2,3.4-1h4.8l1.6-1.8,3.2,2.7,1.2,1.9,9.8,9.7c.5.5,3.2,1.2,3.5,1.9l1.7,3.1-4.9-2.4-2,9.8-3.3,16.7-2.3,11.1-.9,4.1-1,6.8-2.7,10.9c-.2,1-.6,2.2-1.2,2.7l-10.4,9.5-8.4,8.3-8.7,1.2-7.9,1.3-17.5,2.4-3.5.5-.8,5.7c.2,2.8-.2,4.6-1.5,7l-1.6,5-3.5,17.6c.4,3,3.3,6.6,3.7,6.4l1.3-.6c.2,0,1.1.4,1,.6l-1,1.6c0-.2.3,1.3.5,1.6l3.3,3.8-5.7,1.4-3.3.5-12.7,1.3h-3.4l-5.2,1.1-18.9,2.1-7.3.4,4-3.3c1.1-.9,2.8-2.8,3.8-4.1l-.2-.6h0ZM334,50.79l-.4.4.4.4h.8l.4-.4-.4-.4h-.8ZM354.1,54.69l-2.1-2.4c-.2,1.4.9,2.6,2.1,2.4ZM301.7,55.09l3.2.2-3.2-.2ZM356.2,56.29v-.8.8ZM313.2,60.89l4.8-2.1c0-.4-.2-1.9,0-.9-1.6-.8-2-1.2-2.3-1.1l-3.8,1.4-.9,1.2c-.2.2-.2,1.1-.2,1,.9.2,2.2.7,2.5.5h-.1ZM356.8,56.89l.5-.4-.5.4ZM338,61.89l-.4.4.4.4.4-.4-.4-.4ZM323.6,62.69l-4,2,.8,1.6,4-2-.8-1.6ZM336.2,64.99c.2,0,1.5,0,1.4-.3l-.4-1.4-1,1.7ZM332.2,66.19l1.4-.7c.3,0,0-1.4-.5-1.3s-1.2.4-1.5.6l-2.3,1.7c1.2,0,2.3,0,2.8-.2h0l.1-.1ZM288.6,69.59l-.9-3.1-.6-1.4c0-.3-1.2.5-.9.4l.5,4.4c0,1,1.5.5,1.8-.3h.1ZM351.2,66.69c0-.5-.4-.9-.9-.9s-.9.4-.9.9.4.9.9.9.9-.4.9-.9ZM336.4,69.39c0-.4-.4-2.1-.7-1.8l-1.2,1c-.3.2-.9,1.3-.5,1.5l1.6.7c.3,0,.8-1,.9-1.3h0l-.1-.1ZM356.1,76.29c1-1.1,1.8-2.1,1.8-2.4l.2-4.1-1.6,3.4c-.3.7-.5,2.7-.4,3.1ZM306.9,73.19c0-.4.8-1.4,1.2-1.6l1.8-.9c-2.5,0-4.6,1-5.5,2.6l1.5,2.6c.2,1.2.4,1,.6,0l.5-2.7h-.1ZM325.8,114.49l.9-5.4.7-4,2.4-12.3.8-4.4,2.3-9.9c.4-1.9.2-3.8-.7-6l-18.6,2.2-3.7.4-.9,5.1-6.2,28.7-2.7,12.6,16.9-2.3,4.5-.6,4.3-4.2h0v.1ZM293,76.09c1.9,0,2.6-1.1,2.3-2.3l-2.3,2.3ZM284.8,88.79l2.2-4.1,2.3-4.9c.8.2-.3,0-.9-.3l-4.4,5.8-2,2.6c0,.4,2.5,1.6,2.9.9h-.1ZM348.4,96.29l1.8-5.2c.4-1.2.2-3.6,0-5.2-1.8,1.8-2.2,6.9-1.7,10.4h-.1ZM354.6,91.59c1-1.4,1.6-2.2,1.6-2.6l.2-3.4-1.8,3.7v2.3ZM292.3,94.09l-4.9,6.4,1.1.8,4.9-6.4-1.1-.8ZM297.6,105.09l2.8-6.2c0-.3-.3-2-.6-1.8s-.9.8-1,1.1l-1.3,4.4c-.2.6,0,1.9,0,2.5h.1ZM280.7,106.09v-6.1l-2.2,3.4c-.6,1-2,3.4-2.1,4.5l-.8,5.1c2.6-2.1,4.2-4.1,5-6.8h0l.1-.1ZM333.8,103.59l.4-3.6-1.6,3.5c.5,1.7.9,1.4,1.2,0h0v.1ZM353.9,108.19c.6-1,1.4-2.5,1.5-3.2l.4-4.9-1.3,2.7-.6,3.5v1.9h0ZM290.9,105.69l2.5-2.3,1.3-.5c.3,0-.4-1.1-.8-1.6l-3.2,3,.2,1.4h0ZM285.4,109.59l1.3-2.5-1.6,1.3c-.2.2.5,1.6.3,1.1h0v.1ZM343.5,107.29l-.4.4.4.4.4-.4-.4-.4ZM330,111.99l-.4.4v.8l.4.4.4-.4v-.8l-.4-.4ZM347.1,113.59h-1.6v4h1.6v-4ZM330.8,120.89c0-1.2,0-1.5-.2-1.6s-1.6,0-1.7.3l-3.6,4.6,5.5-3.3ZM277,128.59l.3-3.7c0-.6-.3-1.5-.8-2.9l-1.6-1.2-1.7,3.8c-.2.3-.5,1.7-.3,1.2l4.2,2.8h-.1ZM297.3,123.59l-.9-3.1-1.3,3.3c.4,1.2,2,.7,2.2-.2ZM345.8,123.79l-1.1-1.4-5,6.5,6.1-5h0v-.1ZM315.7,127.19l-.5-.4-2.3,2.3.4.4,2.4-2.3h0ZM273.1,135.79l1-6.4-1.2-.3-.8,4.2-.8,4.3s1.7-1.2,1.8-1.8ZM282.2,129.89c.2-.8,0,.4-.4,1.7,1.1.6,2.9-.3.4-1.7ZM282.8,134.29c.7-.2,1.3-.8,1.5-1.5l-1.5,1.5ZM321.7,136.29l.4.4,2-2-.4-.4-2,2ZM329.3,138.89c.4,0,1.9-1,2-1l.8-3-5.6,3.5-.8,1.4,3.6-.9ZM307.7,140.49l3.9-2,1.3-.7c.3-.2-.5-1.1-.8-1.4l-3.1,2.7c-.4,0-1.8,0-1.7.3s.4,1.1.4,1.1h0ZM298.9,137.39l-3.7,5.5c3.4-.8,5.3-3.8,3.7-5.5ZM270.8,143.39l1.5-3.4-1.6-.8-.8,4.2c.3,1.4.7,1.1.9,0h0ZM274.9,140.19c.7-.8,1.3-1.3,1-1-1.1,1.1-1.4,1.4-1,1ZM306,140.79c-.3-.4-1.2-1.2-1.4-1l-1.2,1.6,2.6-.6h0ZM291.8,147.69c.9-.6,1.4-2.7.8-2.9-.9.7-1.4,2.7-.8,2.9ZM279.1,147.79l-.4.4v.8l.4.4.4-.4v-.8l-.4-.4ZM278.3,150.19l-.4.4.4.4.4-.4-.4-.4ZM279,159.09l2.3-4.5c.2-.5,0-1.9-.6-2.9l-3,5.5-1,2.5,2.3-.5h0v-.1ZM269.7,158.19c.3-.4-.3-3-.5-2.5l-1.1,2.2-.6,1.5c0,.3,1.1.7,1.3.4l1-1.6h-.1ZM287.8,161.59l.6-4.4-1.6,1.8,1.1,2.6h-.1ZM288.5,164.79l-2.2-.8-1.2,5c1.7-1.5,2.3-2.4,3.4-4.2ZM278,171.29l-.4-6.4-1.9,4.7,2.3,1.7h0ZM273.5,166.89l-.4.4.4.4h.8l.4-.4-.4-.4h-.8ZM264.5,179.09l-.4-4.4-1,2-1,2.8,2.4-.4h0ZM279.2,181.39l4.3-2.6-.9-2.2c-.3-.3-1.3-.9-1.5-.5l-.6,1.3-1.2,2.5-.2,1.6h.1v-.1ZM261.3,179.19c.5-2.7-2.3-2.7-1.8,0h1.8ZM271.6,183.79c-1.9,0-2.6,1.1-2.3,2.3l2.3-2.3ZM282.2,188.79l-.9-3.1-1.3,3.3c.4,1.2,2,.7,2.2-.2ZM258.4,186.79l-.4.4.4.4.4-.4-.4-.4ZM286.9,190.79l.3-2.9c.2-1.8-1.3-.8-1.1.2l-1.8,2.7h2.6ZM270.9,193.99l1.6-1.7-4.4.5-4.5.6.5.5h6.9l-.1.1ZM260.8,193.99l-.4.4.4.4h.8l.4-.4-.4-.4h-.8ZM251.9,197.99c-.3-.4-1.2-1.2-1.4-1l-1.2,1.6,2.6-.6h0Z"/>
      <path class="cls-2" d="M3,246.09c-.5.2-1.8.3-3,.2l8.5-6.9,2.3-1.8c1.2-.9,2.8-3.3,3.7-4.7l7.9-12.9,1.1-4.3-1.1-2.5,2.7-8,8.9-37.2,5-22.6,1.6-2.6c.6-1-.7-2.7,0-6.9l1.6-8.4c0-.4,2.1-.3,3,0-.2,1,0-.2.2-1.1l-.9-4.6c-.1-.6-.3-2.8-.1-3.4l2.4-7.3v-2.1c-.1,0,2.9-3.2,2.9-3.2l-1.8-1.9,2-9,2.2-9.8,2.9-13c.3-1.1-.5-3.4-1.3-4.3l-3.7-4.2-.6,2.7-4.2-4,1.7-.9c1.5-.8-.6-2.9-5.8-5l-2.8-1.1,11.6-2.5,5-1.4c.5.2,2.2.7,2.7.6l4.7-.8,13.2-2.2,10.7-2,4.1-.9,4.7-1.7c1-.4,3.3,0,4.7,0l4.7-.4,3.2-.5,1.3-.2c.4,0,.8.7,1.5,1.9-.3.6,0,0,.5-1.3.2-.2,1.5-1.3,2-1.3h3.2l-3.4,2.5-4.9,4.4-6.4,7.3-5.8,6.6c-.3.4-.5,2.3-.5,2.8l.5,3.2-2.4,6-.6,3.6-1,4.5-4.6,20.1-1.8,8.5-5.8,24.9-1.2,4.7-.9,3.3-.9,4.9c-.6,3.2-1.1,5.9-2,8.7l-1.4,4-1.4,5.3-3.6,16.1-2.7,12.6-1,5.8-1.3,6.2-1.1,4c-.3.9.4,3.1,1,4l2.2,3.5,4.4-2.5h1.9l-4.8,3.9,3.7,5c.2.3,2.2-.2,2.5,0l1.8.9-4.3,2c-.7.3-2.3.5-3.1.7l-15.7,3.7-3.5,1-4.9,1.6-6.6,2.2-3.1.5,1.9-1.6.5-1.2-15.6,4.8-2.5,1c-.8.3-2.6,0-3.4-.3l-6.9,2.7-4.3,2.1v-.6l-.1.1ZM92.2,52.39l-.4.4.4.4.4-.4-.4-.4ZM100.7,55.59c-.3-.4-1.2-1.2-1.4-1l-1.2,1.6,2.6-.6ZM53.5,57.69l-2.8-1.2c0-.2-.1.7-.2,1.1s1.1.4,1.4.5l1.6-.3h0v-.1ZM74.1,58.89c-1.4-1.1-4.1-3.1-6.6-2l3.9,3c.4.3,2.2,0,2.6-.2l.2-.8h-.1ZM81.9,63.19l5.8-6.9-5.4,4.5-.4,2.4ZM74.9,59.49l-.5.5,1.7.8-1.2-1.3ZM59.2,61.99c-.5.3,1.5,2,1.6,1.4l.4-1.7c.1-.4-1.6,0-2.1.2h.1v.1ZM91,62.19c-.5,0-2.1,0-2,.5l.2,2.1,1.8-2.6ZM56.9,63.29l-1.5.6.9,2c.1.3,1.4,0,1.3-.4l-.7-2.2h0ZM67.4,68.09l-1.7-.7c-.4-.4-1.1-1-1.3-.8l-1.1,1,1.6,2.1.8,1.2c.1.2.3,0,.4-.2l1.3-2.7h0v.1ZM76.3,72.99c-.9-.7-1.4-1.2-1.3-1.1-1.6,2.1.2,2.7,1.3,1.1ZM87.2,77.19l1.2-3.8c-.7,0-1.6,0-1.3,0l-2.1,3.9,2.2-.2h0v.1ZM78.6,76.19l-.4.4v.8l.4.4.4-.4v-.8l-.4-.4ZM58.7,92.29c1.4-2.3,2.3-5.2,2.5-8l.3-3.7c0-1.1-.4-1.4-.9,0l-1.3,5-.6,6.8v-.1ZM53.2,91.09c.8-.6,1.2-2.3.9-3l-.9,3ZM82.1,101.39l2.3-5.4c-1.2-.5-1.4-.5-1.2-.5l-1.3,3.3-2.1,5.4c.9-.8,2-2.1,2.3-2.8h0ZM60.9,96.29l-3.5,4.3.9.8,3.5-4.3-.9-.8ZM54.8,107.29l-.4.4v.8l.4.4.4-.4v-.8l-.4-.4ZM63.5,107.99l-.4.4.4.4.4-.4-.4-.4ZM77,114.39l-.4.4v.8l.4.4.4-.4v-.8l-.4-.4ZM69.9,121.59l-.4.4v.8l.4.4.4-.4v-.8l-.4-.4ZM51.5,125.29l.5-1.7c0-.3-1.2-.8-1.3-.4l-.6,2.1h1.4ZM65.8,129.39c.8-1.3,1.2-2.1,1.1-2.1-.9,1.1-1.4,2.1-1.1,2.1ZM61.9,128.69l-.4.4v.8l.4.4.4-.4v-.8l-.4-.4ZM47.5,143.19l2-3.5-1.8-.3-.2,3.8ZM44.7,141.49c.2-.2,0-1.7-.2-1.5l-1.2,1c-.3.3-.6.9-.6,1.3s.8,1,1,.7l1-1.6h0v.1ZM66.5,146.09l-2.2,3.6,1.3.8,2.2-3.6-1.3-.8ZM64.1,152.69l-1.8-1.2-2.4,4.6,4.2-3.4h0ZM45.4,160.59c.3-.5-.2-3-.5-2.5l-1.1,2.2-.6,1.5c-.1.3,1.1.7,1.3.4l.9-1.6h0ZM53.1,173.19l2.8-4.3c.9-1.4,1.4-4.4,1.5-7-1.1,1.5-1.9,3-2.5,4.7l-1.3,3.7c-.2.7-.5,2.1-.5,2.9h0ZM41.1,179.59l.8-4.1.4-3.1-1.1,2-.9,2.4-.5,2.6-.6,1.5c-.1.3,1.2.8,1.3.5l.6-1.7h0v-.1ZM54,193.99l2.2-10.1.8-4.5-1.5,1.6-.8,3.4-1,3.9-.8,3.9-.4,1.8c0,.3,1.5.3,1.6,0h-.1ZM62.7,181.19l-.4.4.4.4.4-.4-.4-.4ZM34.9,191.59l-.4.4v.8l.4.4.4-.4v-.8l-.4-.4ZM61,196.59l.6-4.4-1.6,1.8,1.1,2.6h-.1ZM34.1,194.79l-.4.4.4.4.4-.4-.4-.4ZM37.3,206.79l1.7,2.6.6-.3v-1c0-.3.1-1.3.2-1.7l1.7-7.3c-.7,0-1.5.2-1.6.4l-2.1,3.8-1,2.5-2.7,6.4.5.8,1.2-2.7,1.6-3.6h-.1v.1ZM59.5,201.89l-.4.4.4.4.4-.4-.4-.4ZM58,214.19l1.1-6.9-.2-3.9-1,4.1-1.4,5.5c0,.3,0,1.3.1,1.3h1.4v-.1ZM34,207.79l.3-3.6-1.6,3.8,1.3-.2h0ZM30.1,205.89l-.4.4.4.4.4-.4-.4-.4ZM50,216.49c.8.5-.7-.7-.8-.3l-.4,1.7c-.1.5.9,2.1,1.1,1.7s.4-.9.3-1.2l-.2-1.8h0v-.1ZM52.3,220.99l1.4,1,3.3-3.4-2-1.9-4.6,4c-.7.2-2.6.8-3,1.3l-4.2,4.5,4.4-1.3c2.3-.7,3.6-5.2,4.8-4.3h0l-.1.1ZM26.1,217.79l-.4.4.4.4.4-.4-.4-.4ZM60.3,220.19l-.4.4.4.4.4-.4-.4-.4ZM33.3,221.79l-.4.4v.8l.4.4.4-.4v-.8l-.4-.4ZM63.5,224.99l-.4.4v.8l.4.4.4-.4v-.8l-.4-.4ZM29.3,232.29l-2.9-.7c0,.2.7-1.1,1.1-1.8l1.2-2c.3-.5-1.4-1.4-1.8-1l-3.1,4.1-2.6,3.3s.5,1.2.3.8l7.8-2.7h0ZM49.9,229.99c2.2-.4,4.5-1.1,7-2.1-1.2,0-3.2-.2-4.2,0l-4.2,1.1c0-.2-.2.7-.3,1.3l1.7-.3ZM15.6,238.69l-.6-1.5-2,.9c-.3,0,0,1.4.4,1.3l2.2-.7Z"/>
      <path class="cls-2" d="M578.1,170.99c5-2.5,3-6.6,3.9-7.1l3.9-2.4c3.5-2.1,4.1-5.9,4.6-9.6l1.1-7.8.8-2.9.8-2.7,4.6-23.1.9-5.6.7-3.3.8-3.6,4.4-21.1,1-4.7.6-4.1.7-3.1,1.7-7,.9-6.4.3-1.7.6-2.6,1.1-5.1-2.3.4-8.6,1.5c-1.4.2-4.5.3-5.6,1.1l-5.2,3.6-5.1,3.6-5.5,5-.6-3.4c-.3-1.5.6-4.3,1.1-6.3l1.6-7.2,1.9-9.2,1.3-8.1-1.4-2.8-6-1.4,5.2-1.4,3-.8h3.2l11.5-1.5,5.3-.8,8.6-1.4,14.9-2.5,6.9-4-1.9,3.5,6.6-1.2,15-2.7,33.3-6.5,5.8-1.1,12-2.4,3.8-1c-.2-.4.4.7.7,1l-8.7,5.1-3.1,1.2-4.1,2.8-5.5,4.3.9,1.9-5.3,6.2-10.1,13.9-2.7,3.3c-.2.2-2.4-1.1-2.4-.8l.5,4.1-5.2,7c0-.4,0-1.9.3-2.4l1.7-3.3c.3-.6-1.2-2.5-1.8-2.9l-3-1.6-7.2,1.1-9.5,1.4-3.9,18.7-.9,4.3-2,10.1-6.3,31-5.8,31.6.3,6.4c0,.7-.5,2.4-.5,2.2l-1.4-1.9-1.8,8.2c-.2.8-.9,3-.5,3.6l3,4.9c.2.3,1.2.9,1.4.6l1.3-1.6,1.2,1.2-1.6,3.2,5.9,4.1c.6-.2-1.1.7-1.5.7l-7.3.9-4.5.9-8.8,1.3-4.1.5-1.8,2.3c-.5.6-2.3.8-3.2.5l3.7-3.1c0-.2,1-1.6.3-.5l-6.3.6-14.8,1.2c-1,0-2.9,1.6-3.8,2.3l-.7-1.8-9.1.2c.7-1,1.8-1.9,2.5-2.3l3.5-1.7h-.2ZM647.3,17.69l3.8-.6-.4-.6-4.1.3-3.1.9c-1.2,0-1.3.2,0,.6l3.8-.6h0ZM666.6,21.79c1,0,2.3.2,2.7,0l8.6-4.5-1.6-.6-3.1,1.6-3.6,1.9-3,1.6h0ZM640.1,19.19c1.4-.5,1.5-.9,0-1.2-1.9.3-2.7.4-4.4,1.5l4.4-.2h0v-.1ZM663.5,24.69l-1.9-.9-1.2,2.6,3.1-1.7h0ZM618.5,24.29l-3.5,1.3,2,.4,1.5-1.7ZM654.5,29.29l1.9-1.1c.3-.2,1.1-1.2.7-1.3l-1.4-.4-4.5,2.6c-.3-.3.4.4.8.8,1-.2,2.1-.3,2.5-.5h0v-.1ZM594.1,26.89l-.4.4.4.4h.8l.4-.4-.4-.4h-.8ZM605.7,27.09l-4.1.9c1.4.7,3.2.4,4.1-.9ZM608.2,30.19c-.3-.4-1.2-1.2-1.4-1l-1.2,1.6,2.6-.6h0ZM673.6,32.59l3-3.3-3.1,1.5-2.1,1.4c.8.2,2,.6,2.2.4h0ZM668.6,33.59h-2l-1.2,1.4,3.2-1.4ZM650.6,36.79l2.1-1.7h-2.9l-4.6,2.3c.8.9,4.6-.2,5.3-.8h.1v.2ZM588.6,42.99v-5.3l-1.9,3.6,1.9,1.7ZM632.2,40.29c.8-1.3,1.2-2.1,1.1-2.1-.9,1.1-1.4,2.2-1.1,2.1ZM609.2,41.69c-2.1-.2-2.4-.2-.5,0,1,0,1.5,0,.5,0ZM615.2,41.69l-4.7-.3.8,2.5,3.9-2.2ZM640.9,44.19l1.4-1c.2-.2-.5-1.3-.5-1.2l-1.9-.5-1.6.9c-.3.2,0,1.4.4,1.3l1.7-.7c0-.2.4,1,.5,1.2h0ZM602,43.99h-4.2c-.7.5-.6,1,.4,1.7l3.8-1.7ZM617,44.69l-1.7.6,1,3.1,1.7-.6-1-3.1ZM635.8,56.99v-4.4c.5-.3,1.3-1.3.9-1.4l-1.3-.4-1,1.9v5.4l1.5-1.1h-.1ZM585.3,53.49l1.3-.7c.3-.2,0-1.4-.4-1.2l-1.5.5-1.3.7c-.3.2,0,1.4.4,1.2l1.5-.5ZM633.5,77.99l.9-3.4.9-3.9v-8.4l-1.4,1.7-.9,7.5-.8,6.1,1.2.4h.1ZM611.6,78.59l-.4.4.4.4.4-.4-.4-.4ZM611.3,85.79l-.3-5.8-.4,1.8-1,4c0,.5,1.8.6,1.8,0h-.1ZM617.6,83.39h-1.6v4h1.6v-4ZM631.4,92.19l.5-2.4c.2-.7-1.9-.8-1.6,0l-.9,1.8.4,5.5,1.6-5h0v.1ZM615.9,107.89l1.1-4.9,1-4.6s-1.7.8-1.8,1.2l-1.6,5.4c-.3,1,0,2.6.5,4.6l.8-1.7ZM628.3,102.49l-.4.4.4.4.4-.4-.4-.4ZM604.8,113.59l.7-3.9.8-5.2c-.3-1.6-.9-1.4-1.2,0l-1.7,8.4,1.4.7ZM614.6,112.69c1.1-.7,1.5-1.2,1.2-1.2-.7.7-1.3,1.3-1.2,1.2ZM623.4,125.49l.6-6.6c-.2-1.1-.5-1.4-.9,0l-.9,3.6-.5,2,1.6,1.2h.1v-.2ZM614.4,127.89h-1.6v4h1.6v-4ZM620.1,148.99l.8-7.2.5-2,1-4c0-.5-1.8-.5-1.8,0l-.7,4-.4,2.4-1.1,7.8c0,.3.7,1,.8.7l.8-1.8h.1v.1ZM600,144.69l.7-1.8c0-.4-1.6-.4-1.6,0l-.5,5.8c.3-.4.8-1.1.9-1.4l.6-2.5h-.1v-.1ZM612.4,153.39l-.4.4.4.4.4-.4-.4-.4ZM597.9,154.19l-1.4.4-.4,1.5c0,.3,1.2.8,1.3.4l.5-2.4h0v.1ZM613.4,165.19l3.3-6.2.7-1.8c0-.4-.7-1.5-1-1.2l-2.2,2.2-.3,2.5-.4,4.4h0l-.1.1ZM595.7,162.09l3.1-3.8c-.9.3-2,.8-2.3,1.1l-3.5,3.3c0,.2,2.3,0,2.7-.6ZM617.2,162.89l-.4.4.4.4h.8l.4-.4-.4-.4h-.8ZM621.6,163.49s-1.6-.5-1.8-.6c0,.8.4,2.7,1.1,2.7l3,.2-2.2-2.4h0l-.1.1ZM592.6,168.19l2.8-1.9-3.2.3c-.3,0-1.1,1-1.7,1.6h2.1Z"/>
      <path class="cls-2" d="M415.5,262.39l2.6-3.8,1.6-2.1,3.2-16.2,4.9-24.1c.2-.8-.4-2.7-.9-3.3l-2.5-3.6,10.9-1.1,4.8-.5,4.7,14.3,2.8,8.6,2,6.3,1,.9.8-4.2,1.5-7.5.8-3.9,1.6-7.5c.4-1.7.3-4.5-.4-5.8l-.9-1.7c-.2-.3.9-.9,1.2-.9l5.3-.5,9.8-.9-2.4,3.7c-.4.5-2.1,1.9-2.2,2.7l-2.1,10.5-4.4,21.7-2.1,10.2c-.3,1.3.7,3.1,1.7,5l-12.7,1.3c-.8,0-.7-2.3-.7-3.2l-3.7-10.4-3.2-9-1.6-4.5-.9-2.5-1-1.5-.8,4.1-.8,3.9-4.1,19.5,2.4,4.8-13.9,1.6c-.4,0-2.3-.2-2.5-.2l.2-.2h0ZM463.6,213.59l.5-1.7c0-.3-1.2-.8-1.3-.4l-.6,2.1h1.4,0ZM439.4,213.79c-.2-.7-.8-1.3-1.5-1.5l1.5,1.5ZM430,220.49c.7-.8,1.3-1.3,1-1-1.1,1.1-1.4,1.4-1,1ZM458.1,220.99l-.4.4v.8l.4.4.4-.4v-.8l-.4-.4ZM443.1,223.19l-1.4-1.4-.5,2.5,1,1.6c.2.3,1.2,0,1.2-.4l-.3-2.2h0v-.1ZM438.2,222.59l-.4.4.4.4.4-.4-.4-.4ZM433.7,228.69l-2.3-.6.4,4.3,1.9-3.8h0v.1ZM439.8,228.99l-.4.4.4.4.4-.4-.4-.4ZM456.5,239.19c.5-.5,1.3-2.2,1.4-2.9l.8-3.4c-.5-.7-1-1.5-.9-1.3l-1.3,3.9c-.3.8-.3,2.7,0,3.8h0v-.1ZM449.3,241.69l-.4.4v.8l.4.4.4-.4v-.8l-.4-.4ZM431.6,245.39l-2.6-.4.3,3.3,2.3-2.9h0ZM446.3,244.99l-.8,1.3.6,1.8c0,.3,1.4,0,1.3-.4l-1.1-2.6h0v-.1ZM426.2,248.59l.5-1.7c0-.3-1.2-.8-1.3-.4l-.6,2.1h1.4,0ZM426.4,254.89c.5.6,1.3,1.5,1.4,1.2l.4-1.4c0-.3-.9,0-1.8.2h0ZM454.9,254.39l-.4.4v.8l.4.4.4-.4v-.8l-.4-.4Z"/>
      <path class="cls-2" d="M175.7,285.09l-4,.7h-2.7l-5.8.5,1.5-2.5,1.3-2.1c1.4-2.3,2.5-4.5,3-7.2l4.2-20.5,3.2-15.2-.9-1.3-2.4-4.6,7-.7,11.6-1.2,5.9-.6,7.4-.9,5.2,5.9-2.1,9.6-.6,3.4c-.2,1-1.4,2.8-2.1,3.4l-3.6,3.1,3.9,4.8-3.3,16.5-7.9,7.1-6.3.6-12.4,1.2h-.1ZM198.8,233.69l-.4.4.4.4.4-.4-.4-.4ZM206.2,234.49c-1.4-1-1.8-.6-.7.7l.7-.7ZM206.8,236.59v-1.2c0,.3,0,1.8,0,1.2ZM183.2,237.99l-1.3-.3c-.3,0-.2,1.2,0,1.6.3,1.8.3,1.9,0,.2l1.3-1.5ZM195.7,251.29c1,0,1.8-3.1,2-4l1-5.7.2-2.1c0-.4-1-.4-1.4-.3l-11.2,1.1-2.4,12.3,11.9-1.3h-.1ZM204.3,243.29l-.4.4.4.4.4-.4-.4-.4ZM179.9,246.79c0-.6-.2-1.5-.5,0-.7,1.1-.8,1.3-.7,1.2l.9,1.7c.2.3,1.4,0,1.3-.4l-1-2.4h0v-.1ZM178.9,252.79l-.4.4v.8l.4.4.4-.4v-.8l-.4-.4ZM198.3,253.69c-1.6.2-2.4.3-2.3.3.7.7,1.3,1.3,1.5,1l.8-1.3ZM197.2,258.49l.4-1.4c0-.3-1.1-.3-1.6-.2l1.2,1.6h0ZM192.5,273.89l2-9.2c.2-1,.2-2.6.2-4.3l-13.1,1.4-2.7,13.8,13.6-1.7ZM177.6,263.79c1.2-.4,1.1-.4,0,0-1,1.2-.6.6,0,0ZM174.9,263.99l-.4.4v.8l.4.4.4-.4v-.8l-.4-.4ZM199.3,266.19c.5.3,1.5-.7,1.2-1.2l-1.2,1.2ZM176.3,271.09c.7-.6,1.4-1.2,1.4-1.2l-1.4-1.2v2.3h0v.1ZM172.5,274.19c1-.8,1.3-2.4.8-3-.9,1-1.3,2.7-.8,3ZM196,274.49c-1.9,0-2.6,1.1-2.3,2.3l2.3-2.3ZM197.2,276.69l-.4.4.4.4.4-.4-.4-.4ZM174.1,278.29l-.4.4.4.4h.8l.4-.4-.4-.4h-.8ZM190,279.89l-.4.4v.8l.4.4.4-.4v-.8l-.4-.4Z"/>
      <path class="cls-2" d="M243.4,278.89l-2.6.5-5.4-5.9c-.5-.5-.8-2-.6-2.8l3.5-16.2,4.2-20.2c.2-1.2,1.3-2.6,2.3-3.4l6.9-5.7,21.2-2.1,6.1,5.8-.7,2.8-7.5,35.5c-.3,1.3-.7,2.5-1.4,3.2l-6.7,6.5-19.2,2.1h0l-.1-.1ZM273.3,226.39l-1.5.6.9,2c0,.3,1.4,0,1.3-.4l-.7-2.2h0ZM253,230.69l1.8-3-3.4,1.4,1.5,1.6h.1ZM249.7,231.29l-.4.4.4.4h.8l.4-.4-.4-.4h-.8ZM276.2,232.79c.2-.2-.9-.9-1.1-.6l-.9,1.6.4,1.3,1.6-2.3ZM252.9,268.19l4.5-.5c.8,0,2.3-.6,2.8-1.1s.7-1.8.9-2.6l2.9-13.7,3.1-14.1c.3-1.5-.8-3.3-2.3-3.2l-6.8.6c-1.3,0-4.6.6-4.9,2l-3,13.8-.9,4.2-2.8,13c0,.4,1.2,2.2,1.5,2.1l5.2-.5h-.2ZM270,244.49s-1.3-.8-1.3-.5l-.3,1.8,1.6-1.3ZM271.9,246.49l-.4.4.4.4.4-.4-.4-.4ZM248.5,249.29c.2-1-2.2-2.4-1.4.7l1.4-.7ZM243.9,254.39c.7-.5,1.4-1.2,1.4-1.2l-1.4-1.2v2.4ZM269.2,253.59c0-2.1-1.8-2.1-1.7,0,0,2.1,1.8,2.1,1.7,0ZM244,264.19l.6-4.4-1.6,1.8,1.1,2.6h-.1ZM240.9,263.99l-.4.4.4.4.4-.4-.4-.4ZM268.6,265.89c.7-.8,1.3-1.3,1-1-1.1,1.1-1.4,1.4-1,1ZM264.4,270.99c.6,0,1.7,0,1.6-.2l-.4-1.4-1.2,1.6h0ZM241.4,271.09c0-.5-.4-.9-.9-.9s-.9.4-.9.9.4.9.9.9.9-.4.9-.9ZM257.7,273.89s-.6-1.3-.8-1.2l-1.7,1.1.8,1.2,1.8-1.2h0l-.1.1ZM241.5,275.89l1.4-1.2s-.7-.6-1.4-1.2v2.4Z"/>
      <path class="cls-2" d="M518.1,232.09l-7.1.4.8-3,.5-4.4c-.3.2,1.2-.9,1.7-1.2l17.9-1.6c-1.4,2.3-2.5,4.4-2.9,6.3l-1.7,9.3-1.3,7.7-7.4,7.3-6.8.7-14.7,1.5c-.5.5-2.1,0-1.9-.5l-5.1-6.5,1-4.9,5.9-29.8.9-4.7,8.2-7.1,4.1-.2,17.9-1.9,5.6,5.3-1.4,6.4-.7,3.2-4.7.8-5.2,1.1,1.2-5.7c-.4-.7-2.2-1.6-3.1-1.5l-10.4,1.2-1.5,1.7-2.9,14.5-.6,2.5-2.8,13.7c-.2,1,1.7,2.3,2.8,2.2l9.1-1.1c.5,0,2,0,2.2-.4l.8-2.5,1.8-8.9h-.2v.1ZM509.8,204.29l-.4.4.4.4.4-.4-.4-.4ZM530.5,205.09l-.4.4.4.4.4-.4-.4-.4ZM501.4,210.49c1.9,0,2.6-1.1,2.3-2.3l-2.3,2.3ZM504.9,211.19l-1.6,3.2,1.3.6,1.6-3.2-1.3-.6ZM504.2,224.19l-.4.4.4.4.4-.4-.4-.4ZM521.7,228.99l-.4.4v.8l.4.4.4-.4v-.8l-.4-.4ZM496.3,229.79l-.4.4.4.4.4-.4-.4-.4ZM500.9,234.09l-.6-.8-1.1,2.6c-.2,0,.7,0,1.1.2s.5-.9.7-2h-.1ZM521.7,237.69l-.4.4v.8l.4.4.4-.4v-.8l-.4-.4ZM520,245.99c-.6-.4-1.9-1.1-2-.7l-.7,2.1,2.7-1.4h0ZM499.9,246.49c0-.5-.4-.9-.9-.9s-.9.4-.9.9.4.9.9.9.9-.4.9-.9ZM494.7,246.49l-.4.4v.8l.4.4.4-.4v-.8l-.4-.4ZM497.1,248.89l-.4.4v.8l.4.4.4-.4v-.8l-.4-.4ZM511.4,249.59l-.4.4.4.4h.8l.4-.4-.4-.4h-.8Z"/>
      <path class="cls-2" d="M370.3,266.69l1.7-3.1,1.9-3.2,2-8.1,2.1-10.6,4.7-23-2.9-5.4,5.4-.5,8.8-.8,4.1-.4-4.8,6.2-4.4,20.8-4.2,21.3,2.9,4.8s-1.7.7-2,.7l-15.3,1.3ZM391.3,215.39l-.4.4.4.4.4-.4-.4-.4ZM386.8,238.39l.9-3.9-2,2.6,1.1,1.4h0v-.1ZM381.7,240.09l-.4.4v.8l.4.4.4-.4v-.8l-.4-.4ZM384.1,244.89l-.4.4.4.4h.8l.4-.4-.4-.4h-.8ZM382.4,260.19l.6-4.4-1.6,1.8,1.1,2.6h-.1Z"/>
      <path class="cls-1" d="M108.7,269.39h-14.4l-9.7-.4-8.9-.4,4.1-1.1,7.3-1.6,28.1-5.6,4.4-.9,7.8-1.5,6.3-.9,7-1.3c.3,0,1.3.3,1.1.3-.8,1.3-.9,3.7.1,3.7h10.2c-.2.3-1.6,1.9-2.2,2l-8.3,2.4c-.5.2-1.1,1.8-1.2,2.3l-1,3.5h-20l-7-.4h-3.9.2v-.1ZM133.1,260.49l-3.2-.2,3.2.2ZM112.7,262.19l-4.4.6c-.3,0-1.2.7-1.6,1l4.5.4,1.5-2ZM136,265.59l-3.1.4c.5,1.8,2.9,1.7,3.1-.4ZM111,265.99l-4.4.8c-.3,0-1.1.6-1.5,1l4.9.2,1.1-2h-.1Z"/>
      <path class="cls-1" d="M593.7,225.79l-3.4.6-29.7,5.4-1.9.4-1.9.4c-.4,0-.7-1.6-.6-2l.7-3.9h-8.4l-1.7-1.3,6.1-.7c1.9-.2,4.1-1.4,5.9-3l-3.2-2.9,11.3.5,14.8.2,2.8.3,13.3.3h3.5l12.3.8c.5,0,2.2.6,2.7.7l-9,1.7-13.3,2.6h-.3v-.1ZM588.1,222.99l3.2.2-3.2-.2ZM561.2,228.19c.7-.2,1.3-.8,1.5-1.5l-1.5,1.5Z"/>
      <path class="cls-2" d="M597.2,181.29c-.4.7-1.8,1.8-2.9,2.6,0-2.9,2.7-6.8,5.6-7.1l-2.7,4.5h0Z"/>
      <path class="cls-2" d="M49.4,239.39c.2-2.7,4.2-5.7,6.5-5.3-2.3,2.8-3.2,3.5-6.5,5.3Z"/>
      <path class="cls-2" d="M402.1,189.89c-.4.3-1.8.7-2.6.8l2.3-2.4c.2-.2,2.1.3,1.9.5l-1.6,1.1h0Z"/>
      <rect class="cls-2" x="560.61" y="172.47" width="3.1" height="1.9" transform="translate(3.15 356.73) rotate(-35.3)"/>
      <polygon class="cls-2" points="100.7 189.99 100.5 184.79 101.2 184.39 101.4 189.59 100.7 189.99"/>
      <path class="cls-2" d="M367.6,119.79c0,.3-.4-1.6-.2-1.8l1.3-1.3-1.2,3.1h.1Z"/>
      <path class="cls-2" d="M314.5,271.99l-5.8.6-12.5,1.2,3.7-4.3,3.2-3.4,15.9-22-2.8-7.5-4-10.7c-.4-.9-2.6-2.5-4.7-5.8l1.4-.3,6.1-.6,9.5-1-1.8,4.5,3.6,10.8c-.4,1,1.7,1.2,1.5,0l5.5-7.8,2.9-4.2-.3-4.5,4.5-.4,12.4-1.1-3.2,4.6-2.3,1.1-11.7,15.8-4.5,6.5,5.3,12.7,3.5,8c.2.5,1.4,1.5,1.7,2l1.2,1.6c1,.2.7,2.2-.3,1.7l-16.5,1.6,2.7-4.9-4.7-12.9c0-.2-1.4.7-1.8,1.2l-9.8,13.6,1.7,4.1.4-.2h0ZM316.6,222.29c.5.6,1.3,1.5,1.4,1.2l.4-1.4c0-.3-.9,0-1.8.2h0ZM341.8,225.59c.8-1.3,1.2-2.1,1.1-2.1-.9,1.1-1.4,2.1-1.1,2.1ZM315.7,224.19l-.4.4.4.4.4-.4-.4-.4ZM324.4,235.29l-.4.4v.8l.4.4.4-.4v-.8l-.4-.4ZM329.2,236.89l-.4.4v.8l.4.4.4-.4v-.8l-.4-.4ZM323.1,243.79l-2,1.4v2.1l2-3.5ZM322.9,248.09l-.4.4.4.4.4-.4-.4-.4ZM331.9,250.39l-1.2-2.4c0,1,.7,2.2,1.2,2.4ZM327.5,250.59c0-.9,0-1.2,0-.3.2,2.1.2,2.2,0,.3ZM311.2,267.29l1.8-2.7,2.3-3.9-2.3,2.4-2.6,3.3.9,1h-.1v-.1ZM333.2,262.39l-.4.4v.8l.4.4.4-.4v-.8l-.4-.4ZM307.7,265.59l-.4.4.4.4.4-.4-.4-.4Z"/>
    </g>
  </g>
</svg>