<?xml version="1.0" encoding="UTF-8"?>
<svg id="Calque_2" data-name="Calque 2" xmlns="http://www.w3.org/2000/svg" viewBox="0 0 971.47 661.04">
  <defs>
    <style>
      .cls-1 {
        fill: #f3ede4;
      }

      .cls-2 {
        fill: #7a1e1e;
      }

      .cls-3 {
        fill: #0a0a0a;
      }
    </style>
  </defs>
  <g id="Calque_1-2" data-name="Calque 1">
    <g>
      <rect class="cls-3" width="971.47" height="661.04"/>
      <g>
        <path class="cls-1" d="M267.53,358.86l-1.4,6.3-3.4,15.5-2.1,9.3,4.4,9.4c.8-.3,1.3-.5,1.3-.5l2-1.2-1.3,2.3,3.3,2.8-1.7.8-3.4,2.1-2.6-1.1-20.1,3.8-6,1.3-3.4,1.6h-3.1c-.7,0-2.7,0-3.4.2l-5.7,1.5h-2.5l-5.9.5,3.8-2.9c.8-.6,2.5-2.2,3.1-3l2.1-2.8,5.2-7.5,2.5-4,.8-3.1.8-3.3.5-4.9c.1-1.1.6-2.5,1-3.7l2.4-8.6,2.9-15.3c.2-1.1.4-3.1.7-4l1.5-4.7,1.2-5.5,1.7-7.9.7-3.2.7-3.2,1.5-.6-.6-3c-.2-1-.4-3.5,0-4.4l1.6-5,.8-5.3,1.4-4,.7-4.1,3.6-17.4.8-4,1.1-2.9-3.2-5.7c-1.1.3-2.1.6-2,.6l1.5-2.4-3.9-4-2.9-1.5c.4-.2,2.6-1,3.6-1.2l4.6-.7c.3-.4,1-1.2,1.4-1l1.8.7,20.8-2.7,12.1-1.5,8.7-1.1,6.6-.5-2.6,3.1c-.4.5-.9,2.3-1.1,2.9l-1.8,1.6.6,8.2c.2,3,1.8,6.1,2.8,8.4l-1.5,1.5,2.1,10.8,1.9,12.1,1.8,12.7,7.6-14.7,7.4-14.1,10.9-19.2,6.4-12.2-3.3-4.8,5.4-.8,3.2-1.9,1.4,1.3,6.3-.8,5.5-.6,4-.4,8.2-.9,10.1-1.1,3.7-.4,8-.9,1.3.3-7.4,7.5-4.1,4.8c-.7.8-2.3,2.4-2.5,3.4l-.7,4.3,1.8.6c.3,0,.2,1.7,0,2l-1.4,5.2v-4.6c0-.7-.5-1.8-.8-2.3l-5.8,27.1-.6,3.4-1.3,5.1-1.5,6.4-2.4,11.1-1.7,7.9-1.2,5.1-1.1,5.3-.9,6.4-.9,4.6-.7,3.3-.9,3.9-2.7,12.2-1.8,8,2,5c.2.6,1.2,1.9,1.8,2l1.9.4c.4,0-.9,1.4-.9,1.8.2,1.4,2,3.5,3.7,4.7l-.2,1.5-2.2.3-6.6.8-8.7,1.5-4.6,2.3.9-2.4h-1l-9.5.9-5.6.7-9,1.4h-3.9v-1l3.5-4.3,3.3-4.6,4.5-4.9.8-3.8,4.9-23.1,3-13.6,4.5-21.1,3.1-14.9h-.7l-8,15.5-11.5,21.2-11,20.1-3.4,6.2-5.3,9.7-1.6,4-5.3,9.7-3.9,6.9-1-5.1-.8-5.2-.8-8.9-1-5.6-.3-4-1.9-13,1.1-1.6-.3-1.2-1.1-4.7-2-12.1-2.2-16.2-.8-6.1-.6-1.2-2.1,10.2-5.9,26.8-1.7,8.3-.2.4.2.2h.1ZM365.13,252.06l3.2.2-3.2-.2ZM347.13,255.26c.3,0,1.3.3,1.6.2l1.7-.7v-1.3l-6.2.6c.5.8,1.1,1.7.9,1.3l2-.2h0v.1ZM364.13,254.56l-1.8,2.9,1.3.8,1.8-2.9-1.3-.8ZM375.54,256.86s-1.3-.8-1.3-.5l-.3,1.8,1.6-1.3ZM372.73,261.16l-.4.4.4.4.4-.4-.4-.4ZM282.53,262.56c-2.2-.8-2.8-.2-3.3,1.1l3.3-1.1ZM341.73,263.56l-.4.4.4.4.4-.4-.4-.4ZM354.84,263.56l-4.1,5.8,1.3.9,4.1-5.8-1.3-.9ZM260.23,264.16l-2.4.5c-.3,0,0,1.4.4,1.3l1.5-.4.4-1.4h.1ZM265.84,266.76c.7-.2,1.3-.8,1.5-1.5l-1.5,1.5ZM295.84,267.56v-1.6c-.1-.3-1.6,0-1.5.4l.6,1.4.5,3,.6-.4-.2-2.8h0ZM327.93,279.56l2.3-2.3,2.4-5c.4-.8.7-2.7.6-3.1l-1.6,2.2-2.7,5.3-.9,3h0l-.1-.1ZM359.23,269.96l-.4.4.4.4.4-.4-.4-.4ZM347.34,270.76l-.4.4v.8l.4.4.4-.4v-.8l-.4-.4ZM263.73,271.56l-.4.4.4.4h.8l.4-.4-.4-.4h-.8ZM367.23,288.26l2.2-7.9.6-2.5.4-1.6c0-.3-1.2-.4-1.4-.2l-1.6,5.6-1.1,3.8c-.2.7.5,2.5.9,2.8h0ZM340.84,282.16l1.9-3.9s-.8-.7-1-.4l-.8,1.3-1.5,2.5-.6,1.4c0,.3,1.1.7,1.3.4l.6-1.3h.1ZM261.13,282.76l3.5-3.3c-.9-.4-1.2-.5-1.2-.5l-1.8,2c-.2.3-.4,1.1-.4,1.9h-.1v-.1ZM294.34,285.76l-1-4c.2,0,0,0-1.3,0l.9,4.7,1.3,5c.6-1.9.6-4,.2-5.9h-.1v.2ZM282.84,289.36c.8,0,1.3,0,1.3.2s.3-1.2.3-1.4l.2-2.4c0-.3-.9-.5-1.1-.5l-1.7,1.9,1,2.2h0ZM323.73,291.36l-.8-.7-1.4,3.3,2.2-2.6ZM346.13,296.66l1.8-3.4c0-.8-2-1-1.8-.2l-.6,3.5c0,1.3.3,1.1.6,0h0v.1ZM349.43,293.76l-1.9,5.7,1,.3,1.9-5.7-1-.3ZM352.63,299.96l1.7-3.4-1.6-1.5-.6,4.4c-.6,1.4-.3,1.6.5.5h0ZM284.73,304.16l.2-6.9-1.6-1.1v4.9l1.4,3.1ZM336.93,301.56c.5-.9,1.2-2,1.1-2l-1.1,2ZM359.34,306.26l-1.4,7s1.5.3.6,0l2.8-4.6,2.5-6.2c.3-.7.3-1.9.4-3.4l-1.7,2.9-1.7,4.1v-4.7l-1,2.6-.6,2.2h.1v.1ZM281.23,301.76l-.4.4v.8l.4.4.4-.4v-.8l-.4-.4ZM318.43,305.76l2-3.4-.6-.4-1.3,2-.2,1.8h.1ZM256.63,302.56l-.4.4.4.4.4-.4-.4-.4ZM322.13,310.96l-.6-1.5-.3-6.2-.6.4v9.3l1.5-2.1h0v.1ZM256.23,310.06l3.6-3.6c.3-.3.2-1.8-.1-1.6l-1.1,1-3,3.3c-.2-.2.2.3.6,1h0v-.1ZM290.53,308.26c.1-.6-1-2.1-1.5-2.6v3.8c-.1.2,1.1,1.2,1.1,1.1l.4-2.4h0v.1ZM298.43,316.56h.7v-7l-1.7-1.7.5,4.5.5,4.2ZM334.34,308.46h-1.3l-1.1,3,2.4-3h0ZM288.13,311.36c0-2.1-1.8-2.1-1.7,0,0,2.1,1.8,2.1,1.7,0ZM292.43,310.56l-.4.4v.8l.4.4.4-.4v-.8l-.4-.4ZM284.73,314.96l-.2-2c0-.3-1.6.2-1.4.5l1,1.7c.2,1.2.5.9.6,0h0v-.2ZM342.54,314.46l-.4.4v.8l.4.4.4-.4v-.8l-.4-.4ZM312.34,317.66l-.4.4.4.4.4-.4-.4-.4ZM356.84,318.46l-.4.4.4.4.4-.4-.4-.4ZM362.43,319.26l-.4.4v.8l.4.4.4-.4v-.8l-.4-.4ZM251.53,325.46l.8-2.9.6-2.2c-.9,0-1.2,0-1.3.3l-.5,1.8-1.4,4.6c.4-.2,1.7-1.2,1.8-1.5h0v-.1ZM297.43,338.96l.5-4.4v-1.9l-.7-4.4-.7-4.2-1-3.3-.5,4.1.8,1.8.5,5.5v3.2l-.2,5.4,1.4-1.8h-.1ZM309.93,323.26l-.4.4.4.4.4-.4-.4-.4ZM321.34,336.16l2.7-8.1c.2-.5.2-1.8.2-2.4l-3.8,8.4c0,.2.5,1.4,1,2.1h-.1ZM349.63,325.66l-.4.4v.8l.4.4.4-.4v-.8l-.4-.4ZM287.93,331.26l-.7-3.2-.4-1.7c0-.3-1.4.5-1.3.9l.9,4c0,.6,1.9.5,1.6,0h-.1ZM311.23,335.66l3-3.7c.4-.5.9-1.6,1.4-2.7-1.4.8-2.7,2-3.4,3l-2.4,3.2,1.3.2h.1ZM359.63,335.86l.9-2.2-.3-4.1-1.2,3.4-.8,2.3c0,.3.2,1.5.3,1.8s1.1-.8,1.2-1.1h-.1v-.1ZM250.53,339.46c-.6-1.4-1-2.5-1-2.9l.2-5.7c-.1.2-.8,1.3-.9,1.6l-1.3,4.2,1.9,3.9,1.1-1.2h0v.1ZM315.04,335.56l.4.4,2-2-.4-.4-2,2ZM349.54,361.36l1.1-3.1,2.2-6.5,2.5-6.5,2-6.3c-3.1,1.5-5.9,8.2-6.6,11.8l-.9,5-.3,5.5h0v.1ZM248.63,348.76l.9-1.9-1-1.8-1.7-1.5-.4-2.5c.4,0-.4,0-.8.2l-.7,3.6-.3,1.6c0,.3,1.3,0,1.3,0-.2-2.5,1.4-1.9,1.4-.6-.6,1.2-1.1,2.4-1.1,3.1s1.4,2,1.6,1.5l.8-1.6h0v-.1ZM290.73,348.66l1.3,1.8v-9.9c-1.4,2.1-1.9,4.2-1.3,6.1v2h0ZM311.34,342.86l-.9-1.3-1.8,3.2,2.7-1.9ZM312.04,347.56l.8-2,.9-2.2c0-.3.2-1.2.2-1.9l-6.2,12.2,1.2.3,3.1-6.4h0ZM338.43,346.66l.2-1.9v-1.8c-.7,1-1.4,2.6-1.5,3.2l-.4,4.2,1.2-1.9c.2-.3.5-1.4.5-1.8ZM286.03,351.06l-.4.4v.8l.4.4.4-.4v-.8l-.4-.4ZM256.43,354.56c.7-.8,1.3-1.3,1-1-1.1,1.1-1.4,1.4-1,1ZM261.34,355.26c0-.9-.1-1.2,0-.3.2,2.1.2,2.2,0,.3ZM267.03,357.66v-3.8l-1.1,2.8v3.3l.9-2,.2-.4h0v.1ZM251.43,354.66l-2,4,1.6.8,2-4-1.6-.8ZM292.34,366.36c.7-1.3,1.2-2.3,1.4-3l.5-2.1v-4.6c-.1,0-2,5.2-2,5.2-.3.9-.1,2.9,0,4.6h.1v-.1ZM339.43,364.86l4.2-8.3c-1.1.4-2.3,1.3-2.6,2l-3,6,1.4.3h0ZM352.43,358.26h-.8v7.2h.8v-7.2ZM241.63,370.76l1.3-.3,1.7-5.9c.3-1,.3-3.2.2-4-.9,1.1-1.5,2.2-1.7,2.9l-.7,3.5-.8,3.7h0v.1ZM306.93,361.16l-2,1.4v2.1l2-3.5ZM240.93,369.86l.4-2.6.6-1.5c.1-.3-1.3-.8-1.3-.4l-.4,1.7-.8,3c0,.3.5,1.9.4,1.7l1.1-1.9h0ZM293.63,370.16c0-2.1-1.8-2.1-1.7,0,0,2.1,1.8,2.1,1.7,0ZM298.73,376.66c1.7-1.8,2.5-4.7,2.3-7.5l-2.2,4.1c-.3.6-.3,2.2-.1,3.4h0ZM348.84,372.46l2-3.4-2.9,2.5c-.4,1.8.2,1.8,1,.8h0l-.1.1ZM256.93,381.26l.5-2.6,1.1-2.8,1.7-5.7c-.7.7-1.6,1.8-1.8,2.3l-1.6,4.5-1.1,3.2v3.1c.4-.7,1.2-1.6,1.3-1.9h-.1v-.1ZM289.63,375.76l-.8-4.2-.6,1.8,1.4,2.4ZM331.63,378.06c1.1-2.7,1.6-4.1,1.8-6.4l-2.3,3.5-.4,2.3c-.7,1.3-.3,1.6.9.6h0ZM344.13,371.76l-.4.4.4.4.4-.4-.4-.4ZM340.54,377.96c.6,0,1.7,0,1.6-.2l-.4-1.4-1.2,1.6h0ZM291.53,380.16l-.9-3.1-1.3,3.3c.4,1.2,2,.7,2.2-.2h0ZM351.73,378.96c0-.5-.4-.9-.9-.9s-.9.4-.9.9.4.9.9.9.9-.4.9-.9ZM246.53,384.86l2.9-4.7c.4,0-.3,0-1-.4l-2.3,3.2c-.4.5-.7,2.2-1,3.1.2,0,1.3-1,1.4-1.3h0v.1ZM293.13,379.36l-1.9,3.2,1.3.8,1.9-3.2-1.3-.8ZM338.54,380.56l-.4.4.4.4.4-.4-.4-.4ZM329.23,386.06l1.7-2.6c.3-.4.6-1.4.9-2.3l-3.6,3.3,1.1,1.6h-.1ZM237.43,388.76l1.5-4.3c.2-.6,0-1.9-.2-2.9l-2.9,7.2c-.13,0,.37,0,1.5,0h.1ZM258.23,385.36h0q0,.87,0,0ZM357.04,386.96c-.2-1.4-1-2.3-3.5-2.9-.7.4-1,2-.3,1.7l3.9,1.2h-.1ZM339.54,388.06l4.2-1,1.6-.4c.3,0,0-1.3-.4-1.3l-1.5.4-4.4,1.1-1.6.4c-.3,0,0,1.4.5,1.3l1.8-.4h-.2v-.1ZM327.04,387.16l-1.1-1.2-2.8,4.1,3.4-2.4.5-.5h0ZM328.43,387.56c-1.9-.2-1.9,0-.5.8l.5-.8ZM256.34,390.86c0-.5-.4-.9-.9-.9s-.9.4-.9.9.4.9.9.9.9-.4.9-.9ZM242.34,392.26l-3,3c1.6,0,2.7-.7,3-3ZM251.53,396.46c.7-.2,1.3-.8,1.5-1.5l-1.5,1.5ZM257.84,396.96c.2,0,.8-.4.5-.2l-.5.2ZM259.03,397.16l-.4.9,1.5,1.6c.7,0,.8-1.9,0-1.7l-1.2-.8h.1ZM253.03,399.16l-1.3-1.1-1.7,1.3,3-.2ZM235.53,400.26l-3.1,1.5.6,1.7,2.4-3.2h.1ZM240.43,400.66l-4.4,1.7,3,.3,1.4-2ZM226.34,407.46c.7,0,1.8-2.8,1.1-2.7s-2.1.6-2.5.9l-2.9,2.5,4.2-.7h.1Z"/>
        <path class="cls-1" d="M510.93,361.86l2,4.8,1.2.6,1-2c.2-.3,1.4.4,1.2.7l-2.3,2.3,3.1,4.9c.3.4,1.8,1.3,1.4,1.5l-2.1.7c-.9.3-3.2.8-4.2.8l-6.4.2-26.2,2.8-1.1,1.4c-.3.4-1.8-.7-2.3-1l-6.8.3h-4.9l5-5.7,2.6-3,5.4-6.2,4.8-10.6,6.7-15.2c.2-.5.7-2.1.7-2.2-1.7-1.8-1-3.6.5-6,1.2,1.2,1.2,1.1,1.9.8l5.4-13.3c.2-.4.2-2.3,0-1.9l-1.8,3c.7.4,0,0-.7-.4l3.9-8.5,2.3-4.9,1.2-2.6,3-6.5,8.5-20.4,5.3-13c.2-.5.5-.9.4-1.1l-.2-1.2,4-9.4,3.1-8c.2-.4.3-1.7,0-2l-2-3.6-3,.7,2.8-2.1-5-6.5,11.4-1.5,7.1-.8,10.7-1.1,7.1-1.2,4.5-.2,7.7-.9,13.3-1.7c2.7-.3,4-2.3,4.4-1.8l.8,1.2,7.7-.2c-1.7,1.2-2.6,1.7-4.2,2.3l-3,2.4c-.4.3-.8,2-1,2.4-.3.8-1.7,0-5,4.4l-2.8,3.8-.3,14.9v10.4l.3,12.7v30.3l.3,10.3-.3,3.9v10.6l-.7,6.8c.6.7,1,1.2,1,1.4v2.9l.2,12.3c0,1.1,1,3.2,1.6,4l2.4,3.4c0,.5.8,0,1.3-1.1.2-1.8.9-1.6,1-.2-.2,2,0,4.5.8,5.4l2.8,3-2.4.5c-.8.2-1.8.7-3.7,1.7.3.3-.6-.7-1.2-1.3l-16.3,1.4-12.2,1.2h-8.7l-4.2,1.3-1.6.7c-.3,0-.8-.6-1-1l-2.9-.7,4.6-3.5c.5-.4,1-2.4,1.4-2.9l6.5-8c.4-.5.7-2.4.7-3.2l.2-18.2-21.9,2.5-7.3.8-7.5,18.6-1,3.1.7.7h.3ZM581.43,229.06c1.6-1.1.9-2.9-1.1-1.3,0,0,.4.4,1.1,1.3ZM572.73,229.76c-1.3-.2-2.4-.4-2.3,0s.3,1.3.3,1.2l2-1.1h0v-.1ZM529.93,234.16c0-.5-.4-.9-.9-.9s-.9.4-.9.9.4.9.9.9.9-.4.9-.9ZM542.63,234.96c0-.5-.4-.9-.9-.9s-.9.4-.9.9.4.9.9.9.9-.4.9-.9ZM554.54,235.36l.6-1.2h-4.4l-1.8,1.5,5.7-.3h-.1ZM572.84,236.16l-.4-1.2-2.5,2.5,1.2.5,1.7-1.8ZM546.93,241.46l.4-1.4c0-.3-1.1-.3-1.6-.2l1.2,1.6h0ZM569.13,240.86h-2.4v2.4l2.4-2.4ZM564.43,243.66l-.4.4.4.4h.8l.4-.4-.4-.4h-.8ZM538.04,247.56l-2.1,3.8,1.5.8,2.1-3.8-1.5-.8ZM547.93,248.16c.5.6,1.3,1.5,1.4,1.2l.4-1.4c0-.3-.9,0-1.8.2h0ZM560.73,251.86l-.8-1-2.4,3.8c1.1-.2,1.8-.3,2-.7l1.2-2.1ZM541.73,260.76c.4-.2,1.7-.8,1.8-1.1l1.5-3.4-4,3.3-.9,1.2c-.2.2.5,0,1.6,0h0ZM549.23,313.56v-15.8l.4-22.3.5-16.5-.8.4-5.3,14.3-6.9,18.5-1.1,4.8-3.1,6-3.1,8.3-2.1,5,21.6-2.7h-.1ZM534.23,259.66l-.4.4.4.4.4-.4-.4-.4ZM573.73,260.36c0-.7-1.8-.5-1.9.2l1.5,2.6.4-2.7h0v-.1ZM558.13,261.86l-.8-1.5c-.2-.3-1.3.5-1.5.8l2.4,2.5v-1.8h-.1ZM563.43,265.56l-1.6-1.2c0,.6,0,1.7.2,1.6l1.4-.4h0ZM572.13,269.16l-.5,5.9,1.8.2.5-5.9-1.8-.2ZM533.23,275.46l1.7-3.4-1-1.2-2.3,4.2v3.2l1.6-2.7h0v-.1ZM564.43,276.36l-.4.4.4.4.4-.4-.4-.4ZM538.34,281.66c.3-.7,0-2.4-.2-4.1l-1.5,3.9-.5,1.5c0,.3,1.2.8,1.3.5l.9-1.8h0ZM572.54,279.36s-1.9.8-1.9,1.3c0,1.2.6,3.5,1,4.8l.9-6h0v-.1ZM515.43,288.96c1.1-.8,1.6-1.2,1.8-1.4l.9-1.9c.3-.6.3-1.8.3-3.2-.9,1.2-1.8,2.8-2.2,4l-.8,2.5h0ZM524.13,294.66l.4-4.5.9-3.1.4-1.5c0-.3-1.1-.7-1.2-.4s-.6,1.1-.7,1.4l-.7,4.2-.5,2.6c0,.5.9,1,1.4,1.3h0ZM559.13,287.36c0-.3-.7-2.2-.7-2.2l-.8.2v5.3l1.7,1.7-.2-5ZM510.23,303.46c.4-.5,1.5-2,1.8-2.7l1.2-3.1c.3-.7.5-2.5.5-3.1l-1.5,2.5c-.3.5-1.1,2.1-1.2,2.7l-.8,3.7h0ZM556.54,301.76l-1.5,4.5,1.2.4,1.5-4.5-1.2-.4ZM565.13,303.86l-.6-2.1c0-.3-1.4,0-1.3.4l.5,1.7h1.4,0ZM575.23,304.16c0-.7-1.8-.5-1.9.2l1.5,2.6.4-2.7h0v-.1ZM567.23,323.96l1.5,2.6v-20.8l-1.6,1v17.2h.1ZM503.23,320.46l.9-2.3.7-1.7,1.2-2.9c.3-.7.5-2.5.5-3.1l-1.2,2.4-1.3,2.9-2.4,5.3c-.2.4,0,1.3,0,2.5l1.7-3.1h-.1ZM553.54,310.56l-.8,1.7.8-1.7ZM523.34,313.86l-.4-2-1.3,3.5,1.7-1.5ZM556.54,316.06l-.4.4.4.4h.8l.4-.4-.4-.4h-.8ZM544.13,320.66l1.6-.9c.3-.2,0-1.3-.4-1.2l-1.5.4-1.2,1.1c1.4.6,1.5.7,1.5.7h0v-.1ZM525.73,322.36l1-1.7c.3-.4-2.5.3-2.8.2l-1.6-.9-2.3,3.2,2.7-.3,1.9.3c.3,0,1-.4,1.2-.7h-.1v-.1ZM530.23,320.86l-.4.4.4.4.4-.4-.4-.4ZM519.13,335.06l6.9-6.6c-.8,0-1.9.5-2.4,1l-8.4,6.4-2,1.7c1.9-.4,4.8-1.4,5.9-2.5h0ZM547.34,332.86c.6,0,.5-1.8,0-1.9l-2.5,1c-.4.2-1,.8-1.7,1.6l4.2-.7h0ZM558.84,341.46l.7-3c.3-1.1.3-3.8-.2-4.9l-1.2-2.5-2.3,2.4-2.5-.8,1.7,2.4,3.6,6.3h.2v.1ZM498.04,343.36v-7.5c-2,1.3-1.9,3.8-.9,5.7l.9,1.8ZM572.13,344.76c0-.5-.4-.9-.9-.9s-.9.4-.9.9.4.9.9.9.9-.4.9-.9ZM569.93,346.76l-.6-2.1c0-.3-1.4,0-1.3.4l.5,1.7h1.4,0ZM501.34,348.66c0-.5-.4-.9-.9-.9s-.9.4-.9.9.4.9.9.9.9-.4.9-.9ZM490.13,349.16s-1.3-.9-1.3-.5l-.3,1.8,1.6-1.3ZM507.43,357.36l1.3-3.9c.3-.9.3-2.6.3-4l-2.4,6.5c.5.7,1,1.5.9,1.4h-.1ZM501.73,350.46l-.8,1.3.6,1.8c0,.3,1.4,0,1.3-.4l-1.1-2.6h0v-.1ZM573.43,355.16l-.3-3.9-1.5.2.3,2.4,1.4,1.2h0l.1.1ZM558.04,356.16h-1.4l.6,2.1c0,.3,1.4,0,1.3-.4l-.5-1.7h0ZM556.13,357.86l-1.2-.4-1.7,1.5v1.7l3-2.9h0l-.1.1ZM487.13,360.46c.8-1.3,1.2-2.1,1.1-2.1-.9,1.1-1.4,2.2-1.1,2.1ZM575.43,364.26c.5,0,1.5-1.1,1.3-1.5l-.8-1.3-1-1.8c0-.2-.2-.4-.4-.2l-.9,1.2-1.9,1.9c-.3.4-.8,1.2-1.1,1.3l-1.2.7,5.8-.4h.2v.1ZM580.34,363.86q0-.47,0,0t0,0ZM486.04,369.56l3-2.5-.3-1.2-3.4,2.8-1.9,1.5,2.6-.6h0ZM493.54,369.26c.8-1.3,1.2-2.1,1.1-2.1-.9,1.1-1.4,2.2-1.1,2.1ZM509.04,368.46l-1.2-1.2c-.3.5.7,1.5,1.2,1.2ZM561.73,367.06l-3.7.4c-1.3.7-1,1,.3,1.1l3.4-1.5ZM481.73,370.96l-.4.4.4.4.4-.4-.4-.4ZM499.73,374.26l1.7-1.8-3.6.5-2.5.4-.4.6,4.9.3h-.1ZM480.63,375.36l-1.3-.5h-2.9l.4,1.2,3.7-.7h.1Z"/>
        <path class="cls-1" d="M690.13,302.16l-.5,4.3-.9,2.4-1,6.3c0,.7.6,2.3.2,2.9s-1.6,2.1-1.7,2.7l-1.9,10.2-1.3,9.4c-.2,1.3,0,3.4.2,4.7l-11.2,10.4-6.5,6.1,3.1,1-4.2.9-2.7,1.6-1.3-1.1-16.8,1.7-5.1,1.4-2.9-1.1-24,2.7c-2,.4-4.6-.2-5.5-1.1.2-1.2.3-2.3,0-2.6l-7.1-7.5-3.5-4c-.2-.3-.7-.8-.9-.7l-1.1.6-.5-2.8c.9-2.2,1.7-4.8,2.3-7.4l1.6-8.1.8-3.9,3.9-19.9.8-4.9c.7-4.6,4.2-6.5,3.9-13.3l-.2-3.4-.3-5c0-.4-.3-1.3,0-1.5l1.8-1,.4-2,1.1-5.8,3.2-16.6,1.2-6.2-2.9,1.5,3.1-4,.7-3.1.8-3.9.9-4.6c.6.2-.7-.2-.8-.3l-4,1.5,6.7-6.6c.8-.7,2.9-1.6,3.8-1.9l11.5-11.3,2.8-1.9,3.7-2.6v2.5l10.3-1,7.2-.8,9.3-1.1,10.5-1.3,6.3-.9,4.4-.7c1-.7,2.2-1.5,1.8-1.2l3.8,2.9-.5,1.6,12.4,11.2c.4-.2-1,.5-1.5.7l-2.1,10-1.3,6.2-2.3,11.1c-.9,4.1,1,4.2.2,5.4l-1.8,2.6-1.9,3-.3-4.4-4.4.7-4.7.7-12.9,2c-.9,0-2.8,1.7-3.4,2.3l-3.1,3.3v-3.9l.9-4.2,1.7-6.2,2.2-11.4-1.6-2.5c0-.2-1.1-.6-1.3-.5l-1,.6-.9-1.1-12.4,1.8-4.3.6c-.4.5-2.4,2.7-2.6,3.7l-2.1,10-3.6,17.4c-.2,1.2-.2,3.2,0,4.3l-1.7,4.2-1.7,7.7v3.9l-1.7,6.5-2.9,13.5-1.5,5.2-3.6,17,3.8,3.9,3.6-1.4,2.3.7,4.6-.3,7.4-.7,4.3-4.5,3.4-15.5.6-4.8-2-2.3,3.6-.9,3.1-.4,5.4-.7,2.5-.3,13.1-1.6,2.8-.7,2.2-4.2h1.8l-.1.1ZM676.63,215.06l-.4.4.4.4h.8l.4-.4-.4-.4h-.8ZM690.73,220.36h1.3l-3.5-3.7-1.3,1.2,3.5,2.5ZM646.04,221.86l4.5-.6,3.6-1.1-5.1.2-4.3.7-3.4.5-1.6.3c-.3,0,0,1.4.4,1.3l1.4-.6,4.5-.7h0ZM671.23,220.36c.5.6,1.3,1.5,1.4,1.2l.4-1.4c0-.3-.9,0-1.8.2h0ZM687.93,224.46l-1.2-1.2c-.3.5.7,1.5,1.2,1.2ZM666.73,229.96l6.6-2.3c-1.1-1-1.6-1.6-2-1.4l-1.4.6-3.6,1.7c-1.3,0-1.2.7.4,1.3h0v.1ZM690.73,226.86l-2.2,3.6,1.3.8,2.2-3.6-1.3-.8ZM644.23,230.26c-1.2-.2-2.3.9-2.1,2.4l2.1-2.4ZM695.54,234.96l.3-3.5-2.4,5c.9-.4,2.1-1.1,2.2-1.6h0l-.1.1ZM622.93,235.56c1.9,0,2.6-1.1,2.3-2.3l-2.3,2.3ZM675.34,239.76l2.8-3.9-3.1-1.5h-3.5l1.2,2.5,1.8,3.7.7-.7h0l.1-.1ZM636.63,241.16l.6,1.3,4.8-4.8-.5-.5-1.1.8-3.8,3.1h0v.1ZM646.23,240.66c1-1.5,1.3-2,.5-.7l-2.7-1.5s-.9.9-.9.8.8.7,1,.9l.9,1c.2.2,1.1-.4,1.3-.6h0l-.1.1ZM685.13,242.76l2-2-.4-1.5-3.1,3.1,1.5.4ZM634.34,247.56c.8-1.3,1.2-2.1,1.1-2.1-.9,1.1-1.4,2.2-1.1,2.1ZM640.84,250.06q0-.47,0,0t0,0ZM684.84,250.46c.5.2-1.2-.8-1.2-.4v2.3s0-.2,1.2-1.8h0v-.1ZM694.63,256.36l-.3-4.8-1.9,4.7h2.2v.1ZM624.13,254.86l-.4.4v.8l.4.4.4-.4v-.8l-.4-.4ZM686.93,254.86l-.4.4.4.4.4-.4-.4-.4ZM618.04,260.26l.9-3.9-2,2.6,1.1,1.4h0v-.1ZM674.63,257.56l-.4-1.2-2.5,2.5,1.2.5,1.7-1.8ZM622.04,263.76l2.8-.8c.6-.2,1.4-1.6,1.6-2.3l.9-3.7-3,1.9-2.1.5-1.2,3.1-1.2,1.8,2.2-.6h0v.1ZM631.04,263.36c1.2-1,2.1-2,1.9-2.5l-1.1-2.4-.8,4.9h0ZM628.63,275.56l1-3v-2c-1.4,1.9-2,3-2.4,4.5l-.4,1.6c0,.3,1.1.7,1.2.4l.6-1.6h0v.1ZM623.54,274.76c-1.2-.2-2.3.9-2.1,2.4l2.1-2.4ZM616.13,279.46c.7-1.1,1.2-1.9,1.2-2l-1.1-1.2-1.2,2s1.2,1.5,1.1,1.2ZM633.23,285.76l.6-6.9c-.3.3-1.3,1.7-1.4,2.3l-1.6,11.3c1.2-1.7,2.1-4.3,2.3-6.6h.1v-.1ZM624.73,300.16l1.2-3.5c.3-.9,0-2.8,0-3.7l-1,2.8c-.4,1.1-.2,3.3,0,4.4h-.2ZM609.84,299.46q0-.47,0,0,0,.87,0,0ZM627.84,312.76c1.2-3.3,1.9-5.8,1.7-7.8l-.7-5.8-2.2,7.4,1.2,6.2h0ZM623.73,313.66h.8l-.2-8.7-1.4,1.9.3,2.6.5,4.2h0ZM678.63,311.56c.2-.2,0-1.8-.3-1.7l-1.5.8c-.4.2,0,1.5.3,2.4l1.5-1.5ZM685.23,312.76c.2-.6.2-1.7.2-3.2l-2.3,4c-.2.3,1.5,1.4,1.6,1.1l.5-1.9h0ZM608.13,326.56v-4.4l.2-4.7c0-1.4-.4-3.4-1-4.7l-.8,9.7.7,5.6s.9-1.2.9-1.5h0ZM664.73,319.26l-.4.4v.8l.4.4.4-.4v-.8l-.4-.4ZM675.84,320.06l-.4.4.4.4.4-.4-.4-.4ZM678.63,336.06l1.3-1.8.5-6.6.3-5.3c-.9,1.1-1.4,2.3-1.5,3.1l-.4,4.6-.3,6.1h.1v-.1ZM661.93,329.96l-.8-1-.8,3.9,1.6-2.9ZM624.54,333.56c.3.2-.2,0-1.3-.7l-.2,4,1.5-3.3ZM654.93,343.26l4-4c0-.8-1.9-.9-1.8,0l-2.2,4.1v-.1ZM666.84,342.36l1.8-1.9.5-1.7c0-.3-1.2-.8-1.3-.4l-.4,1.7-.6,2.3h0ZM610.54,342.86l.2-3.9-1.9,3.6,1.8.3h-.1ZM624.43,348.46l2.5-5.2-2.3-2.5-1.5,3.5,1.3,1.8c.3.4-.3.9-1.1,2.1l1.1.3h0ZM671.93,349.06l5.1-4.7-.9-1.5c0-.2-.4,0-.5,0l-4,5.7c-.7.5-1,.8.3.5h0ZM651.54,344.56c.6,0,1.7,0,1.6-.2l-.4-1.4-1.2,1.6h0ZM631.84,345.86c.7-.8,1.3-1.3,1-1-1.1,1.1-1.4,1.4-1,1ZM601.43,349.06l-.8.8,3.2,3.2.8-.8-3.2-3.2ZM606.04,351.86l-1.2-2.4c0,1,.7,2.2,1.2,2.4ZM646.54,355.86l-3.1.4c.5,1.8,2.9,1.7,3.1-.4ZM660.73,359.86l2.1-2.4-2.8.6c-.9.2-2.2.8-3.3,1.5l3.9.4h0l.1-.1ZM616.93,358.36l-4.2.2.4,2.8,3.8-3ZM611.63,360.66c0-.6,0-1.7-.2-1.6l-1.4.4,1.6,1.2h0ZM634.04,362.66l1.5-2.3c.4.2-.7-.3-1.6-.6h-3.7l-2.7.8c0,.2-.6,1.4-.2.4l4.6,1.1,2.2.5h0l-.1.1ZM608.23,361.46l-.4.4.4.4h.8l.4-.4-.4-.4h-.8Z"/>
        <path class="cls-1" d="M378.73,381.96l6.7-8.9,1.4-5.9.9-3.6,2.3-10.6,2.8-13,.7-5.4c0-.7,1.2-2.3,1.5-2.9.6-2.1,1.5-6.2,1.4-8.3-1.9-5.7,3.5-7.8,3.3-14.5s.2-2.1.4-2.9l4.4-19.7,3.7-16.9-.7-1.3.9-3.3,2.3-8.1-4.3-6.3-2.1,1.5v-2.2c.2-.4.5-1.9.2-2.2l-3-2.3-2.3-1.4,6.5-1.2,1.9-.4,5.3-.4,6.5-.5,3.2-.3,15.9-2,4.1-.5c1.8-.2,4.5-.5,5.7-1.2l2.5-1.4,1.5,1.6,10-1.2,9.4-1.2,3.4-1h4.8l1.6-1.8,3.2,2.7,1.2,1.9,9.8,9.7c.5.5,3.2,1.2,3.5,1.9l1.7,3.1-4.9-2.4-2,9.8-3.3,16.7-2.3,11.1-.9,4.1-1,6.8-2.7,10.9c-.2,1-.6,2.2-1.2,2.7l-10.4,9.5-8.4,8.3-8.7,1.2-7.9,1.3-17.5,2.4-3.5.5-.8,5.7c.2,2.8-.2,4.6-1.5,7l-1.6,5-3.5,17.6c.4,3,3.3,6.6,3.7,6.4l1.3-.6c.2,0,1.1.4,1,.6l-1,1.6c0-.2.3,1.3.5,1.6l3.3,3.8-5.7,1.4-3.3.5-12.7,1.3h-3.4l-5.2,1.1-18.9,2.1-7.3.4,4-3.3c1.1-.9,2.8-2.8,3.8-4.1l-.2-.6h0ZM464.23,238.16l-.4.4.4.4h.8l.4-.4-.4-.4h-.8ZM484.34,242.06l-2.1-2.4c-.2,1.4.9,2.6,2.1,2.4ZM431.93,242.46l3.2.2-3.2-.2ZM486.43,243.66v-.8.8ZM443.43,248.26l4.8-2.1c0-.4-.2-1.9,0-.9-1.6-.8-2-1.2-2.3-1.1l-3.8,1.4-.9,1.2c-.2.2-.2,1.1-.2,1,.9.2,2.2.7,2.5.5h-.1ZM487.04,244.26l.5-.4-.5.4ZM468.23,249.26l-.4.4.4.4.4-.4-.4-.4ZM453.84,250.06l-4,2,.8,1.6,4-2-.8-1.6ZM466.43,252.36c.2,0,1.5,0,1.4-.3l-.4-1.4-1,1.7ZM462.43,253.56l1.4-.7c.3,0,0-1.4-.5-1.3s-1.2.4-1.5.6l-2.3,1.7c1.2,0,2.3,0,2.8-.2h0l.1-.1ZM418.84,256.96l-.9-3.1-.6-1.4c0-.3-1.2.5-.9.4l.5,4.4c0,1,1.5.5,1.8-.3h.1ZM481.43,254.06c0-.5-.4-.9-.9-.9s-.9.4-.9.9.4.9.9.9.9-.4.9-.9ZM466.63,256.76c0-.4-.4-2.1-.7-1.8l-1.2,1c-.3.2-.9,1.3-.5,1.5l1.6.7c.3,0,.8-1,.9-1.3h0l-.1-.1ZM486.34,263.66c1-1.1,1.8-2.1,1.8-2.4l.2-4.1-1.6,3.4c-.3.7-.5,2.7-.4,3.1ZM437.13,260.56c0-.4.8-1.4,1.2-1.6l1.8-.9c-2.5,0-4.6,1-5.5,2.6l1.5,2.6c.2,1.2.4,1,.6,0l.5-2.7h-.1ZM456.04,301.86l.9-5.4.7-4,2.4-12.3.8-4.4,2.3-9.9c.4-1.9.2-3.8-.7-6l-18.6,2.2-3.7.4-.9,5.1-6.2,28.7-2.7,12.6,16.9-2.3,4.5-.6,4.3-4.2h0v.1ZM423.23,263.46c1.9,0,2.6-1.1,2.3-2.3l-2.3,2.3ZM415.04,276.16l2.2-4.1,2.3-4.9c.8.2-.3,0-.9-.3l-4.4,5.8-2,2.6c0,.4,2.5,1.6,2.9.9h-.1ZM478.63,283.66l1.8-5.2c.4-1.2.2-3.6,0-5.2-1.8,1.8-2.2,6.9-1.7,10.4h-.1ZM484.84,278.96c1-1.4,1.6-2.2,1.6-2.6l.2-3.4-1.8,3.7v2.3ZM422.54,281.46l-4.9,6.4,1.1.8,4.9-6.4-1.1-.8ZM427.84,292.46l2.8-6.2c0-.3-.3-2-.6-1.8s-.9.8-1,1.1l-1.3,4.4c-.2.6,0,1.9,0,2.5h.1ZM410.93,293.46v-6.1l-2.2,3.4c-.6,1-2,3.4-2.1,4.5l-.8,5.1c2.6-2.1,4.2-4.1,5-6.8h0l.1-.1ZM464.04,290.96l.4-3.6-1.6,3.5c.5,1.7.9,1.4,1.2,0h0v.1ZM484.13,295.56c.6-1,1.4-2.5,1.5-3.2l.4-4.9-1.3,2.7-.6,3.5v1.9h0ZM421.13,293.06l2.5-2.3,1.3-.5c.3,0-.4-1.1-.8-1.6l-3.2,3,.2,1.4h0ZM415.63,296.96l1.3-2.5-1.6,1.3c-.2.2.5,1.6.3,1.1h0v.1ZM473.73,294.66l-.4.4.4.4.4-.4-.4-.4ZM460.23,299.36l-.4.4v.8l.4.4.4-.4v-.8l-.4-.4ZM477.34,300.96h-1.6v4h1.6v-4ZM461.04,308.26c0-1.2,0-1.5-.2-1.6s-1.6,0-1.7.3l-3.6,4.6,5.5-3.3ZM407.23,315.96l.3-3.7c0-.6-.3-1.5-.8-2.9l-1.6-1.2-1.7,3.8c-.2.3-.5,1.7-.3,1.2l4.2,2.8h-.1ZM427.54,310.96l-.9-3.1-1.3,3.3c.4,1.2,2,.7,2.2-.2ZM476.04,311.16l-1.1-1.4-5,6.5,6.1-5h0v-.1ZM445.93,314.56l-.5-.4-2.3,2.3.4.4,2.4-2.3h0ZM403.34,323.16l1-6.4-1.2-.3-.8,4.2-.8,4.3s1.7-1.2,1.8-1.8ZM412.43,317.26c.2-.8,0,.4-.4,1.7,1.1.6,2.9-.3.4-1.7ZM413.04,321.66c.7-.2,1.3-.8,1.5-1.5l-1.5,1.5ZM451.93,323.66l.4.4,2-2-.4-.4-2,2ZM459.54,326.26c.4,0,1.9-1,2-1l.8-3-5.6,3.5-.8,1.4,3.6-.9ZM437.93,327.86l3.9-2,1.3-.7c.3-.2-.5-1.1-.8-1.4l-3.1,2.7c-.4,0-1.8,0-1.7.3s.4,1.1.4,1.1h0ZM429.13,324.76l-3.7,5.5c3.4-.8,5.3-3.8,3.7-5.5ZM401.04,330.76l1.5-3.4-1.6-.8-.8,4.2c.3,1.4.7,1.1.9,0h0ZM405.13,327.56c.7-.8,1.3-1.3,1-1-1.1,1.1-1.4,1.4-1,1ZM436.23,328.16c-.3-.4-1.2-1.2-1.4-1l-1.2,1.6,2.6-.6h0ZM422.04,335.06c.9-.6,1.4-2.7.8-2.9-.9.7-1.4,2.7-.8,2.9ZM409.34,335.16l-.4.4v.8l.4.4.4-.4v-.8l-.4-.4ZM408.54,337.56l-.4.4.4.4.4-.4-.4-.4ZM409.23,346.46l2.3-4.5c.2-.5,0-1.9-.6-2.9l-3,5.5-1,2.5,2.3-.5h0v-.1ZM399.93,345.56c.3-.4-.3-3-.5-2.5l-1.1,2.2-.6,1.5c0,.3,1.1.7,1.3.4l1-1.6h-.1ZM418.04,348.96l.6-4.4-1.6,1.8,1.1,2.6h-.1ZM418.73,352.16l-2.2-.8-1.2,5c1.7-1.5,2.3-2.4,3.4-4.2ZM408.23,358.66l-.4-6.4-1.9,4.7,2.3,1.7h0ZM403.73,354.26l-.4.4.4.4h.8l.4-.4-.4-.4h-.8ZM394.73,366.46l-.4-4.4-1,2-1,2.8,2.4-.4h0ZM409.43,368.76l4.3-2.6-.9-2.2c-.3-.3-1.3-.9-1.5-.5l-.6,1.3-1.2,2.5-.2,1.6h.1v-.1ZM391.54,366.56c.5-2.7-2.3-2.7-1.8,0h1.8ZM401.84,371.16c-1.9,0-2.6,1.1-2.3,2.3l2.3-2.3ZM412.43,376.16l-.9-3.1-1.3,3.3c.4,1.2,2,.7,2.2-.2ZM388.63,374.16l-.4.4.4.4.4-.4-.4-.4ZM417.13,378.16l.3-2.9c.2-1.8-1.3-.8-1.1.2l-1.8,2.7h2.6ZM401.13,381.36l1.6-1.7-4.4.5-4.5.6.5.5h6.9l-.1.1ZM391.04,381.36l-.4.4.4.4h.8l.4-.4-.4-.4h-.8ZM382.13,385.36c-.3-.4-1.2-1.2-1.4-1l-1.2,1.6,2.6-.6h0Z"/>
        <path class="cls-1" d="M133.23,433.46c-.5.2-1.8.3-3,.2l8.5-6.9,2.3-1.8c1.2-.9,2.8-3.3,3.7-4.7l7.9-12.9,1.1-4.3-1.1-2.5,2.7-8,8.9-37.2,5-22.6,1.6-2.6c.6-1-.7-2.7,0-6.9l1.6-8.4c0-.4,2.1-.3,3,0-.2,1,0-.2.2-1.1l-.9-4.6c-.1-.6-.3-2.8-.1-3.4l2.4-7.3v-2.1c-.1,0,2.9-3.2,2.9-3.2l-1.8-1.9,2-9,2.2-9.8,2.9-13c.3-1.1-.5-3.4-1.3-4.3l-3.7-4.2-.6,2.7-4.2-4,1.7-.9c1.5-.8-.6-2.9-5.8-5l-2.8-1.1,11.6-2.5,5-1.4c.5.2,2.2.7,2.7.6l4.7-.8,13.2-2.2,10.7-2,4.1-.9,4.7-1.7c1-.4,3.3,0,4.7,0l4.7-.4,3.2-.5,1.3-.2c.4,0,.8.7,1.5,1.9-.3.6,0,0,.5-1.3.2-.2,1.5-1.3,2-1.3h3.2l-3.4,2.5-4.9,4.4-6.4,7.3-5.8,6.6c-.3.4-.5,2.3-.5,2.8l.5,3.2-2.4,6-.6,3.6-1,4.5-4.6,20.1-1.8,8.5-5.8,24.9-1.2,4.7-.9,3.3-.9,4.9c-.6,3.2-1.1,5.9-2,8.7l-1.4,4-1.4,5.3-3.6,16.1-2.7,12.6-1,5.8-1.3,6.2-1.1,4c-.3.9.4,3.1,1,4l2.2,3.5,4.4-2.5h1.9l-4.8,3.9,3.7,5c.2.3,2.2-.2,2.5,0l1.8.9-4.3,2c-.7.3-2.3.5-3.1.7l-15.7,3.7-3.5,1-4.9,1.6-6.6,2.2-3.1.5,1.9-1.6.5-1.2-15.6,4.8-2.5,1c-.8.3-2.6,0-3.4-.3l-6.9,2.7-4.3,2.1v-.6l-.1.1ZM222.43,239.76l-.4.4.4.4.4-.4-.4-.4ZM230.93,242.96c-.3-.4-1.2-1.2-1.4-1l-1.2,1.6,2.6-.6ZM183.73,245.06l-2.8-1.2c0-.2-.1.7-.2,1.1s1.1.4,1.4.5l1.6-.3h0v-.1ZM204.34,246.26c-1.4-1.1-4.1-3.1-6.6-2l3.9,3c.4.3,2.2,0,2.6-.2l.2-.8h-.1ZM212.13,250.56l5.8-6.9-5.4,4.5-.4,2.4ZM205.13,246.86l-.5.5,1.7.8-1.2-1.3ZM189.43,249.36c-.5.3,1.5,2,1.6,1.4l.4-1.7c.1-.4-1.6,0-2.1.2h.1v.1ZM221.23,249.56c-.5,0-2.1,0-2,.5l.2,2.1,1.8-2.6ZM187.13,250.66l-1.5.6.9,2c.1.3,1.4,0,1.3-.4l-.7-2.2h0ZM197.63,255.46l-1.7-.7c-.4-.4-1.1-1-1.3-.8l-1.1,1,1.6,2.1.8,1.2c.1.2.3,0,.4-.2l1.3-2.7h0v.1ZM206.53,260.36c-.9-.7-1.4-1.2-1.3-1.1-1.6,2.1.2,2.7,1.3,1.1ZM217.43,264.56l1.2-3.8c-.7,0-1.6,0-1.3,0l-2.1,3.9,2.2-.2h0v.1ZM208.84,263.56l-.4.4v.8l.4.4.4-.4v-.8l-.4-.4ZM188.93,279.66c1.4-2.3,2.3-5.2,2.5-8l.3-3.7c0-1.1-.4-1.4-.9,0l-1.3,5-.6,6.8v-.1ZM183.43,278.46c.8-.6,1.2-2.3.9-3l-.9,3ZM212.34,288.76l2.3-5.4c-1.2-.5-1.4-.5-1.2-.5l-1.3,3.3-2.1,5.4c.9-.8,2-2.1,2.3-2.8h0ZM191.13,283.66l-3.5,4.3.9.8,3.5-4.3-.9-.8ZM185.03,294.66l-.4.4v.8l.4.4.4-.4v-.8l-.4-.4ZM193.73,295.36l-.4.4.4.4.4-.4-.4-.4ZM207.23,301.76l-.4.4v.8l.4.4.4-.4v-.8l-.4-.4ZM200.13,308.96l-.4.4v.8l.4.4.4-.4v-.8l-.4-.4ZM181.73,312.66l.5-1.7c0-.3-1.2-.8-1.3-.4l-.6,2.1h1.4ZM196.03,316.76c.8-1.3,1.2-2.1,1.1-2.1-.9,1.1-1.4,2.1-1.1,2.1ZM192.13,316.06l-.4.4v.8l.4.4.4-.4v-.8l-.4-.4ZM177.73,330.56l2-3.5-1.8-.3-.2,3.8ZM174.93,328.86c.2-.2,0-1.7-.2-1.5l-1.2,1c-.3.3-.6.9-.6,1.3s.8,1,1,.7l1-1.6h0v.1ZM196.73,333.46l-2.2,3.6,1.3.8,2.2-3.6-1.3-.8ZM194.34,340.06l-1.8-1.2-2.4,4.6,4.2-3.4h0ZM175.63,347.96c.3-.5-.2-3-.5-2.5l-1.1,2.2-.6,1.5c-.1.3,1.1.7,1.3.4l.9-1.6h0ZM183.34,360.56l2.8-4.3c.9-1.4,1.4-4.4,1.5-7-1.1,1.5-1.9,3-2.5,4.7l-1.3,3.7c-.2.7-.5,2.1-.5,2.9h0ZM171.34,366.96l.8-4.1.4-3.1-1.1,2-.9,2.4-.5,2.6-.6,1.5c-.1.3,1.2.8,1.3.5l.6-1.7h0v-.1ZM184.23,381.36l2.2-10.1.8-4.5-1.5,1.6-.8,3.4-1,3.9-.8,3.9-.4,1.8c0,.3,1.5.3,1.6,0h-.1ZM192.93,368.56l-.4.4.4.4.4-.4-.4-.4ZM165.13,378.96l-.4.4v.8l.4.4.4-.4v-.8l-.4-.4ZM191.23,383.96l.6-4.4-1.6,1.8,1.1,2.6h-.1ZM164.34,382.16l-.4.4.4.4.4-.4-.4-.4ZM167.53,394.16l1.7,2.6.6-.3v-1c0-.3.1-1.3.2-1.7l1.7-7.3c-.7,0-1.5.2-1.6.4l-2.1,3.8-1,2.5-2.7,6.4.5.8,1.2-2.7,1.6-3.6h-.1v.1ZM189.73,389.26l-.4.4.4.4.4-.4-.4-.4ZM188.23,401.56l1.1-6.9-.2-3.9-1,4.1-1.4,5.5c0,.3,0,1.3.1,1.3h1.4v-.1ZM164.23,395.16l.3-3.6-1.6,3.8,1.3-.2h0ZM160.34,393.26l-.4.4.4.4.4-.4-.4-.4ZM180.23,403.86c.8.5-.7-.7-.8-.3l-.4,1.7c-.1.5.9,2.1,1.1,1.7s.4-.9.3-1.2l-.2-1.8h0v-.1ZM182.53,408.36l1.4,1,3.3-3.4-2-1.9-4.6,4c-.7.2-2.6.8-3,1.3l-4.2,4.5,4.4-1.3c2.3-.7,3.6-5.2,4.8-4.3h0l-.1.1ZM156.34,405.16l-.4.4.4.4.4-.4-.4-.4ZM190.53,407.56l-.4.4.4.4.4-.4-.4-.4ZM163.53,409.16l-.4.4v.8l.4.4.4-.4v-.8l-.4-.4ZM193.73,412.36l-.4.4v.8l.4.4.4-.4v-.8l-.4-.4ZM159.53,419.66l-2.9-.7c0,.2.7-1.1,1.1-1.8l1.2-2c.3-.5-1.4-1.4-1.8-1l-3.1,4.1-2.6,3.3s.5,1.2.3.8l7.8-2.7h0ZM180.13,417.36c2.2-.4,4.5-1.1,7-2.1-1.2,0-3.2-.2-4.2,0l-4.2,1.1c0-.2-.2.7-.3,1.3l1.7-.3ZM145.84,426.06l-.6-1.5-2,.9c-.3,0,0,1.4.4,1.3l2.2-.7Z"/>
        <path class="cls-1" d="M708.34,358.36c5-2.5,3-6.6,3.9-7.1l3.9-2.4c3.5-2.1,4.1-5.9,4.6-9.6l1.1-7.8.8-2.9.8-2.7,4.6-23.1.9-5.6.7-3.3.8-3.6,4.4-21.1,1-4.7.6-4.1.7-3.1,1.7-7,.9-6.4.3-1.7.6-2.6,1.1-5.1-2.3.4-8.6,1.5c-1.4.2-4.5.3-5.6,1.1l-5.2,3.6-5.1,3.6-5.5,5-.6-3.4c-.3-1.5.6-4.3,1.1-6.3l1.6-7.2,1.9-9.2,1.3-8.1-1.4-2.8-6-1.4,5.2-1.4,3-.8h3.2l11.5-1.5,5.3-.8,8.6-1.4,14.9-2.5,6.9-4-1.9,3.5,6.6-1.2,15-2.7,33.3-6.5,5.8-1.1,12-2.4,3.8-1c-.2-.4.4.7.7,1l-8.7,5.1-3.1,1.2-4.1,2.8-5.5,4.3.9,1.9-5.3,6.2-10.1,13.9-2.7,3.3c-.2.2-2.4-1.1-2.4-.8l.5,4.1-5.2,7c0-.4,0-1.9.3-2.4l1.7-3.3c.3-.6-1.2-2.5-1.8-2.9l-3-1.6-7.2,1.1-9.5,1.4-3.9,18.7-.9,4.3-2,10.1-6.3,31-5.8,31.6.3,6.4c0,.7-.5,2.4-.5,2.2l-1.4-1.9-1.8,8.2c-.2.8-.9,3-.5,3.6l3,4.9c.2.3,1.2.9,1.4.6l1.3-1.6,1.2,1.2-1.6,3.2,5.9,4.1c.6-.2-1.1.7-1.5.7l-7.3.9-4.5.9-8.8,1.3-4.1.5-1.8,2.3c-.5.6-2.3.8-3.2.5l3.7-3.1c0-.2,1-1.6.3-.5l-6.3.6-14.8,1.2c-1,0-2.9,1.6-3.8,2.3l-.7-1.8-9.1.2c.7-1,1.8-1.9,2.5-2.3l3.5-1.7h-.2ZM777.54,205.06l3.8-.6-.4-.6-4.1.3-3.1.9c-1.2,0-1.3.2,0,.6l3.8-.6h0ZM796.84,209.16c1,0,2.3.2,2.7,0l8.6-4.5-1.6-.6-3.1,1.6-3.6,1.9-3,1.6h0ZM770.34,206.56c1.4-.5,1.5-.9,0-1.2-1.9.3-2.7.4-4.4,1.5l4.4-.2h0v-.1ZM793.73,212.06l-1.9-.9-1.2,2.6,3.1-1.7h0ZM748.73,211.66l-3.5,1.3,2,.4,1.5-1.7ZM784.73,216.66l1.9-1.1c.3-.2,1.1-1.2.7-1.3l-1.4-.4-4.5,2.6c-.3-.3.4.4.8.8,1-.2,2.1-.3,2.5-.5h0v-.1ZM724.34,214.26l-.4.4.4.4h.8l.4-.4-.4-.4h-.8ZM735.93,214.46l-4.1.9c1.4.7,3.2.4,4.1-.9ZM738.43,217.56c-.3-.4-1.2-1.2-1.4-1l-1.2,1.6,2.6-.6h0ZM803.84,219.96l3-3.3-3.1,1.5-2.1,1.4c.8.2,2,.6,2.2.4h0ZM798.84,220.96h-2l-1.2,1.4,3.2-1.4ZM780.84,224.16l2.1-1.7h-2.9l-4.6,2.3c.8.9,4.6-.2,5.3-.8h.1v.2ZM718.84,230.36v-5.3l-1.9,3.6,1.9,1.7ZM762.43,227.66c.8-1.3,1.2-2.1,1.1-2.1-.9,1.1-1.4,2.2-1.1,2.1ZM739.43,229.06c-2.1-.2-2.4-.2-.5,0,1,0,1.5,0,.5,0ZM745.43,229.06l-4.7-.3.8,2.5,3.9-2.2ZM771.13,231.56l1.4-1c.2-.2-.5-1.3-.5-1.2l-1.9-.5-1.6.9c-.3.2,0,1.4.4,1.3l1.7-.7c0-.2.4,1,.5,1.2h0ZM732.23,231.36h-4.2c-.7.5-.6,1,.4,1.7l3.8-1.7ZM747.23,232.06l-1.7.6,1,3.1,1.7-.6-1-3.1ZM766.04,244.36v-4.4c.5-.3,1.3-1.3.9-1.4l-1.3-.4-1,1.9v5.4l1.5-1.1h-.1ZM715.54,240.86l1.3-.7c.3-.2,0-1.4-.4-1.2l-1.5.5-1.3.7c-.3.2,0,1.4.4,1.2l1.5-.5ZM763.73,265.36l.9-3.4.9-3.9v-8.4l-1.4,1.7-.9,7.5-.8,6.1,1.2.4h.1ZM741.84,265.96l-.4.4.4.4.4-.4-.4-.4ZM741.54,273.16l-.3-5.8-.4,1.8-1,4c0,.5,1.8.6,1.8,0h-.1ZM747.84,270.76h-1.6v4h1.6v-4ZM761.63,279.56l.5-2.4c.2-.7-1.9-.8-1.6,0l-.9,1.8.4,5.5,1.6-5h0v.1ZM746.13,295.26l1.1-4.9,1-4.6s-1.7.8-1.8,1.2l-1.6,5.4c-.3,1,0,2.6.5,4.6l.8-1.7ZM758.54,289.86l-.4.4.4.4.4-.4-.4-.4ZM735.04,300.96l.7-3.9.8-5.2c-.3-1.6-.9-1.4-1.2,0l-1.7,8.4,1.4.7ZM744.84,300.06c1.1-.7,1.5-1.2,1.2-1.2-.7.7-1.3,1.3-1.2,1.2ZM753.63,312.86l.6-6.6c-.2-1.1-.5-1.4-.9,0l-.9,3.6-.5,2,1.6,1.2h.1v-.2ZM744.63,315.26h-1.6v4h1.6v-4ZM750.34,336.36l.8-7.2.5-2,1-4c0-.5-1.8-.5-1.8,0l-.7,4-.4,2.4-1.1,7.8c0,.3.7,1,.8.7l.8-1.8h.1v.1ZM730.23,332.06l.7-1.8c0-.4-1.6-.4-1.6,0l-.5,5.8c.3-.4.8-1.1.9-1.4l.6-2.5h-.1v-.1ZM742.63,340.76l-.4.4.4.4.4-.4-.4-.4ZM728.13,341.56l-1.4.4-.4,1.5c0,.3,1.2.8,1.3.4l.5-2.4h0v.1ZM743.63,352.56l3.3-6.2.7-1.8c0-.4-.7-1.5-1-1.2l-2.2,2.2-.3,2.5-.4,4.4h0l-.1.1ZM725.93,349.46l3.1-3.8c-.9.3-2,.8-2.3,1.1l-3.5,3.3c0,.2,2.3,0,2.7-.6ZM747.43,350.26l-.4.4.4.4h.8l.4-.4-.4-.4h-.8ZM751.84,350.86s-1.6-.5-1.8-.6c0,.8.4,2.7,1.1,2.7l3,.2-2.2-2.4h0l-.1.1ZM722.84,355.56l2.8-1.9-3.2.3c-.3,0-1.1,1-1.7,1.6h2.1Z"/>
        <path class="cls-1" d="M545.73,449.76l2.6-3.8,1.6-2.1,3.2-16.2,4.9-24.1c.2-.8-.4-2.7-.9-3.3l-2.5-3.6,10.9-1.1,4.8-.5,4.7,14.3,2.8,8.6,2,6.3,1,.9.8-4.2,1.5-7.5.8-3.9,1.6-7.5c.4-1.7.3-4.5-.4-5.8l-.9-1.7c-.2-.3.9-.9,1.2-.9l5.3-.5,9.8-.9-2.4,3.7c-.4.5-2.1,1.9-2.2,2.7l-2.1,10.5-4.4,21.7-2.1,10.2c-.3,1.3.7,3.1,1.7,5l-12.7,1.3c-.8,0-.7-2.3-.7-3.2l-3.7-10.4-3.2-9-1.6-4.5-.9-2.5-1-1.5-.8,4.1-.8,3.9-4.1,19.5,2.4,4.8-13.9,1.6c-.4,0-2.3-.2-2.5-.2l.2-.2h0ZM593.84,400.96l.5-1.7c0-.3-1.2-.8-1.3-.4l-.6,2.1h1.4,0ZM569.63,401.16c-.2-.7-.8-1.3-1.5-1.5l1.5,1.5ZM560.23,407.86c.7-.8,1.3-1.3,1-1-1.1,1.1-1.4,1.4-1,1ZM588.34,408.36l-.4.4v.8l.4.4.4-.4v-.8l-.4-.4ZM573.34,410.56l-1.4-1.4-.5,2.5,1,1.6c.2.3,1.2,0,1.2-.4l-.3-2.2h0v-.1ZM568.43,409.96l-.4.4.4.4.4-.4-.4-.4ZM563.93,416.06l-2.3-.6.4,4.3,1.9-3.8h0v.1ZM570.04,416.36l-.4.4.4.4.4-.4-.4-.4ZM586.73,426.56c.5-.5,1.3-2.2,1.4-2.9l.8-3.4c-.5-.7-1-1.5-.9-1.3l-1.3,3.9c-.3.8-.3,2.7,0,3.8h0v-.1ZM579.54,429.06l-.4.4v.8l.4.4.4-.4v-.8l-.4-.4ZM561.84,432.76l-2.6-.4.3,3.3,2.3-2.9h0ZM576.54,432.36l-.8,1.3.6,1.8c0,.3,1.4,0,1.3-.4l-1.1-2.6h0v-.1ZM556.43,435.96l.5-1.7c0-.3-1.2-.8-1.3-.4l-.6,2.1h1.4,0ZM556.63,442.26c.5.6,1.3,1.5,1.4,1.2l.4-1.4c0-.3-.9,0-1.8.2h0ZM585.13,441.76l-.4.4v.8l.4.4.4-.4v-.8l-.4-.4Z"/>
        <path class="cls-1" d="M305.93,472.46l-4,.7h-2.7l-5.8.5,1.5-2.5,1.3-2.1c1.4-2.3,2.5-4.5,3-7.2l4.2-20.5,3.2-15.2-.9-1.3-2.4-4.6,7-.7,11.6-1.2,5.9-.6,7.4-.9,5.2,5.9-2.1,9.6-.6,3.4c-.2,1-1.4,2.8-2.1,3.4l-3.6,3.1,3.9,4.8-3.3,16.5-7.9,7.1-6.3.6-12.4,1.2h-.1ZM329.04,421.06l-.4.4.4.4.4-.4-.4-.4ZM336.43,421.86c-1.4-1-1.8-.6-.7.7l.7-.7ZM337.04,423.96v-1.2c0,.3,0,1.8,0,1.2ZM313.43,425.36l-1.3-.3c-.3,0-.2,1.2,0,1.6.3,1.8.3,1.9,0,.2l1.3-1.5ZM325.93,438.66c1,0,1.8-3.1,2-4l1-5.7.2-2.1c0-.4-1-.4-1.4-.3l-11.2,1.1-2.4,12.3,11.9-1.3h-.1ZM334.54,430.66l-.4.4.4.4.4-.4-.4-.4ZM310.13,434.16c0-.6-.2-1.5-.5,0-.7,1.1-.8,1.3-.7,1.2l.9,1.7c.2.3,1.4,0,1.3-.4l-1-2.4h0v-.1ZM309.13,440.16l-.4.4v.8l.4.4.4-.4v-.8l-.4-.4ZM328.54,441.06c-1.6.2-2.4.3-2.3.3.7.7,1.3,1.3,1.5,1l.8-1.3ZM327.43,445.86l.4-1.4c0-.3-1.1-.3-1.6-.2l1.2,1.6h0ZM322.73,461.26l2-9.2c.2-1,.2-2.6.2-4.3l-13.1,1.4-2.7,13.8,13.6-1.7ZM307.84,451.16c1.2-.4,1.1-.4,0,0-1,1.2-.6.6,0,0ZM305.13,451.36l-.4.4v.8l.4.4.4-.4v-.8l-.4-.4ZM329.54,453.56c.5.3,1.5-.7,1.2-1.2l-1.2,1.2ZM306.53,458.46c.7-.6,1.4-1.2,1.4-1.2l-1.4-1.2v2.3h0v.1ZM302.73,461.56c1-.8,1.3-2.4.8-3-.9,1-1.3,2.7-.8,3ZM326.23,461.86c-1.9,0-2.6,1.1-2.3,2.3l2.3-2.3ZM327.43,464.06l-.4.4.4.4.4-.4-.4-.4ZM304.34,465.66l-.4.4.4.4h.8l.4-.4-.4-.4h-.8ZM320.23,467.26l-.4.4v.8l.4.4.4-.4v-.8l-.4-.4Z"/>
        <path class="cls-1" d="M373.63,466.26l-2.6.5-5.4-5.9c-.5-.5-.8-2-.6-2.8l3.5-16.2,4.2-20.2c.2-1.2,1.3-2.6,2.3-3.4l6.9-5.7,21.2-2.1,6.1,5.8-.7,2.8-7.5,35.5c-.3,1.3-.7,2.5-1.4,3.2l-6.7,6.5-19.2,2.1h0l-.1-.1ZM403.54,413.76l-1.5.6.9,2c0,.3,1.4,0,1.3-.4l-.7-2.2h0ZM383.23,418.06l1.8-3-3.4,1.4,1.5,1.6h.1ZM379.93,418.66l-.4.4.4.4h.8l.4-.4-.4-.4h-.8ZM406.43,420.16c.2-.2-.9-.9-1.1-.6l-.9,1.6.4,1.3,1.6-2.3ZM383.13,455.56l4.5-.5c.8,0,2.3-.6,2.8-1.1s.7-1.8.9-2.6l2.9-13.7,3.1-14.1c.3-1.5-.8-3.3-2.3-3.2l-6.8.6c-1.3,0-4.6.6-4.9,2l-3,13.8-.9,4.2-2.8,13c0,.4,1.2,2.2,1.5,2.1l5.2-.5h-.2ZM400.23,431.86s-1.3-.8-1.3-.5l-.3,1.8,1.6-1.3ZM402.13,433.86l-.4.4.4.4.4-.4-.4-.4ZM378.73,436.66c.2-1-2.2-2.4-1.4.7l1.4-.7ZM374.13,441.76c.7-.5,1.4-1.2,1.4-1.2l-1.4-1.2v2.4ZM399.43,440.96c0-2.1-1.8-2.1-1.7,0,0,2.1,1.8,2.1,1.7,0ZM374.23,451.56l.6-4.4-1.6,1.8,1.1,2.6h-.1ZM371.13,451.36l-.4.4.4.4.4-.4-.4-.4ZM398.84,453.26c.7-.8,1.3-1.3,1-1-1.1,1.1-1.4,1.4-1,1ZM394.63,458.36c.6,0,1.7,0,1.6-.2l-.4-1.4-1.2,1.6h0ZM371.63,458.46c0-.5-.4-.9-.9-.9s-.9.4-.9.9.4.9.9.9.9-.4.9-.9ZM387.93,461.26s-.6-1.3-.8-1.2l-1.7,1.1.8,1.2,1.8-1.2h0l-.1.1ZM371.73,463.26l1.4-1.2s-.7-.6-1.4-1.2v2.4Z"/>
        <path class="cls-1" d="M648.34,419.46l-7.1.4.8-3,.5-4.4c-.3.2,1.2-.9,1.7-1.2l17.9-1.6c-1.4,2.3-2.5,4.4-2.9,6.3l-1.7,9.3-1.3,7.7-7.4,7.3-6.8.7-14.7,1.5c-.5.5-2.1,0-1.9-.5l-5.1-6.5,1-4.9,5.9-29.8.9-4.7,8.2-7.1,4.1-.2,17.9-1.9,5.6,5.3-1.4,6.4-.7,3.2-4.7.8-5.2,1.1,1.2-5.7c-.4-.7-2.2-1.6-3.1-1.5l-10.4,1.2-1.5,1.7-2.9,14.5-.6,2.5-2.8,13.7c-.2,1,1.7,2.3,2.8,2.2l9.1-1.1c.5,0,2,0,2.2-.4l.8-2.5,1.8-8.9h-.2v.1ZM640.04,391.66l-.4.4.4.4.4-.4-.4-.4ZM660.73,392.46l-.4.4.4.4.4-.4-.4-.4ZM631.63,397.86c1.9,0,2.6-1.1,2.3-2.3l-2.3,2.3ZM635.13,398.56l-1.6,3.2,1.3.6,1.6-3.2-1.3-.6ZM634.43,411.56l-.4.4.4.4.4-.4-.4-.4ZM651.93,416.36l-.4.4v.8l.4.4.4-.4v-.8l-.4-.4ZM626.54,417.16l-.4.4.4.4.4-.4-.4-.4ZM631.13,421.46l-.6-.8-1.1,2.6c-.2,0,.7,0,1.1.2s.5-.9.7-2h-.1ZM651.93,425.06l-.4.4v.8l.4.4.4-.4v-.8l-.4-.4ZM650.23,433.36c-.6-.4-1.9-1.1-2-.7l-.7,2.1,2.7-1.4h0ZM630.13,433.86c0-.5-.4-.9-.9-.9s-.9.4-.9.9.4.9.9.9.9-.4.9-.9ZM624.93,433.86l-.4.4v.8l.4.4.4-.4v-.8l-.4-.4ZM627.34,436.26l-.4.4v.8l.4.4.4-.4v-.8l-.4-.4ZM641.63,436.96l-.4.4.4.4h.8l.4-.4-.4-.4h-.8Z"/>
        <path class="cls-1" d="M500.54,454.06l1.7-3.1,1.9-3.2,2-8.1,2.1-10.6,4.7-23-2.9-5.4,5.4-.5,8.8-.8,4.1-.4-4.8,6.2-4.4,20.8-4.2,21.3,2.9,4.8s-1.7.7-2,.7l-15.3,1.3ZM521.54,402.76l-.4.4.4.4.4-.4-.4-.4ZM517.04,425.76l.9-3.9-2,2.6,1.1,1.4h0v-.1ZM511.93,427.46l-.4.4v.8l.4.4.4-.4v-.8l-.4-.4ZM514.34,432.26l-.4.4.4.4h.8l.4-.4-.4-.4h-.8ZM512.63,447.56l.6-4.4-1.6,1.8,1.1,2.6h-.1Z"/>
        <path class="cls-2" d="M238.93,456.76h-14.4l-9.7-.4-8.9-.4,4.1-1.1,7.3-1.6,28.1-5.6,4.4-.9,7.8-1.5,6.3-.9,7-1.3c.3,0,1.3.3,1.1.3-.8,1.3-.9,3.7.1,3.7h10.2c-.2.3-1.6,1.9-2.2,2l-8.3,2.4c-.5.2-1.1,1.8-1.2,2.3l-1,3.5h-20l-7-.4h-3.9.2v-.1ZM263.34,447.86l-3.2-.2,3.2.2ZM242.93,449.56l-4.4.6c-.3,0-1.2.7-1.6,1l4.5.4,1.5-2ZM266.23,452.96l-3.1.4c.5,1.8,2.9,1.7,3.1-.4ZM241.23,453.36l-4.4.8c-.3,0-1.1.6-1.5,1l4.9.2,1.1-2h-.1Z"/>
        <path class="cls-2" d="M723.93,413.16l-3.4.6-29.7,5.4-1.9.4-1.9.4c-.4,0-.7-1.6-.6-2l.7-3.9h-8.4l-1.7-1.3,6.1-.7c1.9-.2,4.1-1.4,5.9-3l-3.2-2.9,11.3.5,14.8.2,2.8.3,13.3.3h3.5l12.3.8c.5,0,2.2.6,2.7.7l-9,1.7-13.3,2.6h-.3v-.1ZM718.34,410.36l3.2.2-3.2-.2ZM691.43,415.56c.7-.2,1.3-.8,1.5-1.5l-1.5,1.5Z"/>
        <path class="cls-1" d="M727.43,368.66c-.4.7-1.8,1.8-2.9,2.6,0-2.9,2.7-6.8,5.6-7.1l-2.7,4.5h0Z"/>
        <path class="cls-1" d="M179.63,426.76c.2-2.7,4.2-5.7,6.5-5.3-2.3,2.8-3.2,3.5-6.5,5.3Z"/>
        <path class="cls-1" d="M532.34,377.26c-.4.3-1.8.7-2.6.8l2.3-2.4c.2-.2,2.1.3,1.9.5l-1.6,1.1h0Z"/>
        <rect class="cls-1" x="690.84" y="359.84" width="3.1" height="1.9" transform="translate(-81.18 466.44) rotate(-35.3)"/>
        <polygon class="cls-1" points="230.93 377.36 230.73 372.16 231.43 371.76 231.63 376.96 230.93 377.36"/>
        <path class="cls-1" d="M497.84,307.16c0,.3-.4-1.6-.2-1.8l1.3-1.3-1.2,3.1h.1Z"/>
        <path class="cls-1" d="M444.73,459.36l-5.8.6-12.5,1.2,3.7-4.3,3.2-3.4,15.9-22-2.8-7.5-4-10.7c-.4-.9-2.6-2.5-4.7-5.8l1.4-.3,6.1-.6,9.5-1-1.8,4.5,3.6,10.8c-.4,1,1.7,1.2,1.5,0l5.5-7.8,2.9-4.2-.3-4.5,4.5-.4,12.4-1.1-3.2,4.6-2.3,1.1-11.7,15.8-4.5,6.5,5.3,12.7,3.5,8c.2.5,1.4,1.5,1.7,2l1.2,1.6c1,.2.7,2.2-.3,1.7l-16.5,1.6,2.7-4.9-4.7-12.9c0-.2-1.4.7-1.8,1.2l-9.8,13.6,1.7,4.1.4-.2h0ZM446.84,409.66c.5.6,1.3,1.5,1.4,1.2l.4-1.4c0-.3-.9,0-1.8.2h0ZM472.04,412.96c.8-1.3,1.2-2.1,1.1-2.1-.9,1.1-1.4,2.1-1.1,2.1ZM445.93,411.56l-.4.4.4.4.4-.4-.4-.4ZM454.63,422.66l-.4.4v.8l.4.4.4-.4v-.8l-.4-.4ZM459.43,424.26l-.4.4v.8l.4.4.4-.4v-.8l-.4-.4ZM453.34,431.16l-2,1.4v2.1l2-3.5ZM453.13,435.46l-.4.4.4.4.4-.4-.4-.4ZM462.13,437.76l-1.2-2.4c0,1,.7,2.2,1.2,2.4ZM457.73,437.96c0-.9,0-1.2,0-.3.2,2.1.2,2.2,0,.3ZM441.43,454.66l1.8-2.7,2.3-3.9-2.3,2.4-2.6,3.3.9,1h-.1v-.1ZM463.43,449.76l-.4.4v.8l.4.4.4-.4v-.8l-.4-.4ZM437.93,452.96l-.4.4.4.4.4-.4-.4-.4Z"/>
      </g>
    </g>
  </g>
</svg>